<svg viewBox="0 0 330 200" xmlns="http://www.w3.org/2000/svg"><g><g><g><g><g><line x1="62.8125" y1="176" x2="57.8125" y2="176" style="visibility: inherit;" fill="rgb(0, 0, 0)" stroke="rgb(204, 204, 204)" stroke-width="1px"></line><line x1="62.8125" y1="160" x2="57.8125" y2="160" style="visibility: inherit;" fill="rgb(0, 0, 0)" stroke="rgb(204, 204, 204)" stroke-width="1px"></line><line x1="62.8125" y1="144" x2="57.8125" y2="144" style="visibility: inherit;" fill="rgb(0, 0, 0)" stroke="rgb(204, 204, 204)" stroke-width="1px"></line><line x1="62.8125" y1="128" x2="57.8125" y2="128" style="visibility: inherit;" fill="rgb(0, 0, 0)" stroke="rgb(204, 204, 204)" stroke-width="1px"></line><line x1="62.8125" y1="112" x2="57.8125" y2="112" style="visibility: inherit;" fill="rgb(0, 0, 0)" stroke="rgb(204, 204, 204)" stroke-width="1px"></line><line x1="62.8125" y1="96" x2="57.8125" y2="96" style="visibility: inherit;" fill="rgb(0, 0, 0)" stroke="rgb(204, 204, 204)" stroke-width="1px"></line><line x1="62.8125" y1="79.99999999999999" x2="57.8125" y2="79.99999999999999" style="visibility: inherit;" fill="rgb(0, 0, 0)" stroke="rgb(204, 204, 204)" stroke-width="1px"></line><line x1="62.8125" y1="64.00000000000003" x2="57.8125" y2="64.00000000000003" style="visibility: inherit;" fill="rgb(0, 0, 0)" stroke="rgb(204, 204, 204)" stroke-width="1px"></line><line x1="62.8125" y1="48" x2="57.8125" y2="48" style="visibility: inherit;" fill="rgb(0, 0, 0)" stroke="rgb(204, 204, 204)" stroke-width="1px"></line><line x1="62.8125" y1="32" x2="57.8125" y2="32" style="visibility: inherit;" fill="rgb(0, 0, 0)" stroke="rgb(204, 204, 204)" stroke-width="1px"></line><line x1="62.8125" y1="16" x2="57.8125" y2="16" style="visibility: inherit;" fill="rgb(0, 0, 0)" stroke="rgb(204, 204, 204)" stroke-width="1px"></line><line x1="62.8125" y1="0" x2="57.8125" y2="0" style="visibility: inherit;" fill="rgb(0, 0, 0)" stroke="rgb(204, 204, 204)" stroke-width="1px"></line></g><g transform="translate(52.8125, 0)"><text x="0" y="176" dx="0em" dy="0.3em" style="text-anchor: end; visibility: hidden; font-family: &quot;Helvetica Neue&quot;, sans-serif; font-size: 12px; font-weight: 200;" fill="rgb(50, 49, 63)" stroke="none" stroke-width="1px">-0.01</text><text x="0" y="160" dx="0em" dy="0.3em" style="text-anchor: end; visibility: inherit; font-family: &quot;Helvetica Neue&quot;, sans-serif; font-size: 12px; font-weight: 200;" fill="rgb(50, 49, 63)" stroke="none" stroke-width="1px">0</text><text x="0" y="144" dx="0em" dy="0.3em" style="text-anchor: end; visibility: hidden; font-family: &quot;Helvetica Neue&quot;, sans-serif; font-size: 12px; font-weight: 200;" fill="rgb(50, 49, 63)" stroke="none" stroke-width="1px">0.01</text><text x="0" y="128" dx="0em" dy="0.3em" style="text-anchor: end; visibility: inherit; font-family: &quot;Helvetica Neue&quot;, sans-serif; font-size: 12px; font-weight: 200;" fill="rgb(50, 49, 63)" stroke="none" stroke-width="1px">0.02</text><text x="0" y="112" dx="0em" dy="0.3em" style="text-anchor: end; visibility: hidden; font-family: &quot;Helvetica Neue&quot;, sans-serif; font-size: 12px; font-weight: 200;" fill="rgb(50, 49, 63)" stroke="none" stroke-width="1px">0.03</text><text x="0" y="96" dx="0em" dy="0.3em" style="text-anchor: end; visibility: inherit; font-family: &quot;Helvetica Neue&quot;, sans-serif; font-size: 12px; font-weight: 200;" fill="rgb(50, 49, 63)" stroke="none" stroke-width="1px">0.04</text><text x="0" y="79.99999999999999" dx="0em" dy="0.3em" style="text-anchor: end; visibility: hidden; font-family: &quot;Helvetica Neue&quot;, sans-serif; font-size: 12px; font-weight: 200;" fill="rgb(50, 49, 63)" stroke="none" stroke-width="1px">0.05</text><text x="0" y="64.00000000000003" dx="0em" dy="0.3em" style="text-anchor: end; visibility: inherit; font-family: &quot;Helvetica Neue&quot;, sans-serif; font-size: 12px; font-weight: 200;" fill="rgb(50, 49, 63)" stroke="none" stroke-width="1px">0.06</text><text x="0" y="48" dx="0em" dy="0.3em" style="text-anchor: end; visibility: hidden; font-family: &quot;Helvetica Neue&quot;, sans-serif; font-size: 12px; font-weight: 200;" fill="rgb(50, 49, 63)" stroke="none" stroke-width="1px">0.07</text><text x="0" y="32" dx="0em" dy="0.3em" style="text-anchor: end; visibility: inherit; font-family: &quot;Helvetica Neue&quot;, sans-serif; font-size: 12px; font-weight: 200;" fill="rgb(50, 49, 63)" stroke="none" stroke-width="1px">0.08</text><text x="0" y="16" dx="0em" dy="0.3em" style="text-anchor: end; visibility: hidden; font-family: &quot;Helvetica Neue&quot;, sans-serif; font-size: 12px; font-weight: 200;" fill="rgb(50, 49, 63)" stroke="none" stroke-width="1px">0.09</text><text x="0" y="0" dx="0em" dy="0.3em" style="text-anchor: end; visibility: hidden; font-family: &quot;Helvetica Neue&quot;, sans-serif; font-size: 12px; font-weight: 200;" fill="rgb(50, 49, 63)" stroke="none" stroke-width="1px">0.1</text></g><line x1="62.8125" y1="0" x2="62.8125" y2="176" fill="rgb(0, 0, 0)" stroke="rgb(204, 204, 204)" stroke-width="1px"></line></g></g><g transform="translate(62, 0)" clip-path="url(#clip_0)"><clipPath id="clip_0"><rect width="267" height="176"></rect></clipPath><g><g><g><line x1="0" y1="0" x2="0" y2="176" fill="rgb(0, 0, 0)" stroke="rgb(60, 60, 60)" stroke-width="1px" opacity="0.25"></line><line x1="19.084821428571427" y1="0" x2="19.084821428571427" y2="176" fill="rgb(0, 0, 0)" stroke="rgb(60, 60, 60)" stroke-width="1px" opacity="0.25"></line><line x1="38.169642857142854" y1="0" x2="38.169642857142854" y2="176" fill="rgb(0, 0, 0)" stroke="rgb(60, 60, 60)" stroke-width="1px" opacity="0.25"></line><line x1="57.254464285714285" y1="0" x2="57.254464285714285" y2="176" fill="rgb(0, 0, 0)" stroke="rgb(60, 60, 60)" stroke-width="1px" opacity="0.25"></line><line x1="76.33928571428571" y1="0" x2="76.33928571428571" y2="176" fill="rgb(0, 0, 0)" stroke="rgb(60, 60, 60)" stroke-width="1px" opacity="0.25"></line><line x1="95.42410714285714" y1="0" x2="95.42410714285714" y2="176" fill="rgb(0, 0, 0)" stroke="rgb(60, 60, 60)" stroke-width="1px" opacity="0.25"></line><line x1="114.50892857142857" y1="0" x2="114.50892857142857" y2="176" fill="rgb(0, 0, 0)" stroke="rgb(60, 60, 60)" stroke-width="1px" opacity="0.25"></line><line x1="133.59375" y1="0" x2="133.59375" y2="176" fill="rgb(0, 0, 0)" stroke="rgb(60, 60, 60)" stroke-width="1px" opacity="0.25"></line><line x1="152.67857142857142" y1="0" x2="152.67857142857142" y2="176" fill="rgb(0, 0, 0)" stroke="rgb(60, 60, 60)" stroke-width="1px" opacity="0.25"></line><line x1="171.76339285714286" y1="0" x2="171.76339285714286" y2="176" fill="rgb(0, 0, 0)" stroke="rgb(60, 60, 60)" stroke-width="1px" opacity="0.25"></line><line x1="190.84821428571428" y1="0" x2="190.84821428571428" y2="176" fill="rgb(0, 0, 0)" stroke="rgb(60, 60, 60)" stroke-width="1px" opacity="0.25"></line><line x1="209.93303571428572" y1="0" x2="209.93303571428572" y2="176" fill="rgb(0, 0, 0)" stroke="rgb(60, 60, 60)" stroke-width="1px" opacity="0.25"></line><line x1="229.01785714285714" y1="0" x2="229.01785714285714" y2="176" fill="rgb(0, 0, 0)" stroke="rgb(60, 60, 60)" stroke-width="1px" opacity="0.25"></line><line x1="248.10267857142858" y1="0" x2="248.10267857142858" y2="176" fill="rgb(0, 0, 0)" stroke="rgb(60, 60, 60)" stroke-width="1px" opacity="0.25"></line><line x1="267.1875" y1="0" x2="267.1875" y2="176" fill="rgb(0, 0, 0)" stroke="rgb(60, 60, 60)" stroke-width="1px" opacity="0.25"></line></g><g><line x1="0" y1="176" x2="267.1875" y2="176" fill="rgb(0, 0, 0)" stroke="rgb(60, 60, 60)" stroke-width="1px" opacity="0.25"></line><line x1="0" y1="160" x2="267.1875" y2="160" fill="rgb(0, 0, 0)" stroke="rgb(60, 60, 60)" stroke-width="1px" opacity="0.25"></line><line x1="0" y1="144" x2="267.1875" y2="144" fill="rgb(0, 0, 0)" stroke="rgb(60, 60, 60)" stroke-width="1px" opacity="0.25"></line><line x1="0" y1="128" x2="267.1875" y2="128" fill="rgb(0, 0, 0)" stroke="rgb(60, 60, 60)" stroke-width="1px" opacity="0.25"></line><line x1="0" y1="112" x2="267.1875" y2="112" fill="rgb(0, 0, 0)" stroke="rgb(60, 60, 60)" stroke-width="1px" opacity="0.25"></line><line x1="0" y1="96" x2="267.1875" y2="96" fill="rgb(0, 0, 0)" stroke="rgb(60, 60, 60)" stroke-width="1px" opacity="0.25"></line><line x1="0" y1="79.99999999999999" x2="267.1875" y2="79.99999999999999" fill="rgb(0, 0, 0)" stroke="rgb(60, 60, 60)" stroke-width="1px" opacity="0.25"></line><line x1="0" y1="64.00000000000003" x2="267.1875" y2="64.00000000000003" fill="rgb(0, 0, 0)" stroke="rgb(60, 60, 60)" stroke-width="1px" opacity="0.25"></line><line x1="0" y1="48" x2="267.1875" y2="48" fill="rgb(0, 0, 0)" stroke="rgb(60, 60, 60)" stroke-width="1px" opacity="0.25"></line><line x1="0" y1="32" x2="267.1875" y2="32" fill="rgb(0, 0, 0)" stroke="rgb(60, 60, 60)" stroke-width="1px" opacity="0.25"></line><line x1="0" y1="16" x2="267.1875" y2="16" fill="rgb(0, 0, 0)" stroke="rgb(60, 60, 60)" stroke-width="1px" opacity="0.25"></line><line x1="0" y1="0" x2="267.1875" y2="0" fill="rgb(0, 0, 0)" stroke="rgb(60, 60, 60)" stroke-width="1px" opacity="0.25"></line></g></g></g><g><g><line x1="0" y1="160" x2="267.1875" y2="160" fill="rgb(0, 0, 0)" stroke="rgb(153, 153, 153)" stroke-width="1.5px"></line></g></g><g><g><line x1="19.084821428571427" y1="0" x2="19.084821428571427" y2="176" fill="rgb(0, 0, 0)" stroke="rgb(153, 153, 153)" stroke-width="1.5px"></line></g></g><g><g><g><g><g><path stroke="rgb(255, 112, 67)" stroke-width="2px" d="M19.084821428571427,84.97013807296752L20.0390625,73.78871649503708L20.99330357142857,84.42335972980578L21.947544642857142,85.63995786887757L22.901785714285715,82.1361242798283L23.856026785714285,84.20451723111172L24.810267857142858,84.331025079459L25.76450892857143,86.55082473308194L26.71875,75.66236370410783L27.672991071428573,82.83704002729546L28.627232142857142,84.74974352101708L29.58147321428571,75.74478217847015L30.535714285714285,82.89817533079675L31.489955357142858,70.76379331668863L32.44419642857143,64.45295983102675L33.3984375,56.42035858366151L34.35267857142857,62.15767399126793L35.306919642857146,64.3717879163861L36.26116071428571,46.44852247882969L37.215401785714285,51.6022635709008L38.169642857142854,59.71960334326491L39.12388392857143,63.66159113182704L40.078125,63.224888165745725L41.03236607142858,69.75407518442385L41.98660714285714,50.69258371308483L42.940848214285715,48.246513004764125L43.895089285714285,44.248982507811206L44.849330357142854,49.89923504600736L45.80357142857143,61.964097341420484L46.7578125,70.98314789872916L47.71205357142857,74.00776347667835L48.66629464285714,77.41337350978843L49.620535714285715,84.38748376278359L50.574776785714285,82.49900393265844L51.52901785714286,70.67457114741357L52.48325892857143,71.29513690566435L53.4375,67.66213003351285L54.39174107142857,71.08233014157221L55.345982142857146,71.42866539681111L56.300223214285715,71.60179810382714L57.254464285714285,67.25553057237236L58.20870535714286,65.45798552929544L59.16294642857142,66.21857174000759L60.1171875,63.08930592340627L61.07142857142857,60.93914816716254L62.025669642857146,60.807016789540995L62.979910714285715,56.07957941253697L63.93415178571429,44.6402021760739L64.88839285714286,46.25719145031945L65.84263392857143,35.80601450847388L66.796875,40.87464855343657L67.75111607142857,43.63453797240203L68.70535714285714,40.65126092277927L69.65959821428572,47.17158407595221L70.61383928571429,49.47080952302639L71.56808035714286,48.470555438852074L72.52232142857142,46.40577858344017L73.4765625,48.31041852030363L74.43080357142857,52.56631016369619L75.38504464285714,49.096953151440204L76.33928571428571,46.20222668517559L77.29352678571429,41.5228000919158L78.24776785714286,42.7360162520489L79.20200892857143,42.78261717463022L80.15625,48.43861994924838L81.11049107142857,48.77805577387032L82.06473214285715,47.89754692715178L83.01897321428572,44.47790136338335L83.97321428571428,42.28147500992458L84.92745535714285,35.76775356674574L85.88169642857143,32.978519228365286L86.8359375,35.664419428864875L87.79017857142857,40.04695087454303L88.74441964285714,35.918542801031975L89.69866071428571,46.17232767265409L90.65290178571429,35.88961677265985L91.60714285714286,37.06657264538302L92.56138392857143,38.28810700123128L93.515625,41.4267235299624L94.46986607142858,40.638980704586345L95.42410714285714,36.194267176413916L96.37834821428571,39.78380006720087L97.33258928571428,37.64831711154858L98.28683035714286,41.05293947042037L99.24107142857143,37.27370284546021L100.1953125,28.254771367005134L101.14955357142857,36.70378597694139L102.10379464285714,32.01821274827421L103.05803571428572,35.9758774475485L104.01227678571429,35.9516611120838L104.96651785714286,35.99056091438163L105.92075892857142,32.24690155107038L106.875,29.906993126381963L107.82924107142857,36.738226065343326L108.78348214285714,34.247443466964796L109.73772321428571,41.83194863175359L110.69196428571429,40.09562532529239L111.64620535714286,39.94368577256802L112.60044642857143,41.6166144863069L113.5546875,41.10279931159616L114.50892857142857,40.6655400605905L115.46316964285715,37.89672336649346L116.41741071428572,37.24986625713976L117.37165178571428,37.6860222399406L118.32589285714285,34.07166869522169L119.28013392857143,28.417248195892796L120.234375,37.38918368010894L121.18861607142857,36.29734935754047L122.14285714285714,30.146676673850493L123.09709821428571,35.05291746518674L124.05133928571429,33.4607723144392L125.00558035714286,30.583311723929626L125.95982142857143,28.43303204015612L126.9140625,29.010301592562882L127.86830357142858,32.20011959231752L128.82254464285714,35.86136108491934L129.77678571428572,41.227094208324644L130.73102678571428,47.34393970675748L131.68526785714286,37.7710870296209L132.63950892857144,36.49873944464022L133.59375,39.046712233678676L134.54799107142856,27.18836421612272L135.50223214285714,27.64968749787431L136.4564732142857,31.701482039129843L137.41071428571428,29.59131425704726L138.36495535714286,31.18794838241439L139.31919642857144,39.32403993398964L140.2734375,40.706940363592025L141.22767857142858,32.937661570755324L142.18191964285714,32.17737565186482L143.13616071428572,33.14672309009353L144.09040178571428,28.401226030874966L145.04464285714283,30.00978030388876L145.99888392857142,34.602942691000266L146.953125,31.3328200732183L147.90736607142858,37.739457974106784L148.86160714285714,39.32266991691034L149.81584821428572,41.97941661689424L150.77008928571428,42.27623391636459L151.72433035714286,39.08546023659855L152.67857142857142,40.23674424346058L153.6328125,40.65541229162076L154.58705357142858,38.98114467569269L155.54129464285717,40.242018371272536L156.49553571428572,35.97678927746324L157.44977678571428,40.10689513782805L158.40401785714286,42.7568155342349L159.35825892857142,36.711741793990655L160.3125,35.66624147226844L161.26674107142856,34.046318903746794L162.22098214285714,41.855760321129935L163.17522321428572,34.61062568730688L164.1294642857143,30.16077696267709L165.08370535714286,26.574558371209775L166.03794642857144,27.22987696761112L166.9921875,29.711443217004643L167.94642857142856,30.70225979769549L168.90066964285714,33.80837980439853L169.8549107142857,39.2535613985693L170.80915178571428,31.09750217269874L171.76339285714286,31.278596556609983L172.71763392857144,34.61656608368523L173.671875,37.595614660892295L174.62611607142858,32.58117632217014L175.58035714285714,34.76171276656871L176.53459821428572,31.282704005766448L177.48883928571428,29.011058408098506L178.44308035714283,33.68926882629222L179.39732142857142,25.13540673187154L180.3515625,34.63525729138121L181.30580357142858,32.325671891918574L182.26004464285714,42.79671977791236L183.21428571428572,33.27046579619079L184.16852678571428,27.977687039970334L185.12276785714286,31.914551448225353L186.07700892857142,28.956049556374182L187.03125,31.633849307799125L187.98549107142858,32.39997968965994L188.93973214285717,36.28074518379108L189.89397321428572,31.607170292952873L190.84821428571428,33.96529781175806L191.80245535714286,37.61795680137368L192.75669642857142,37.475729944776816L193.7109375,34.433493234200085L194.66517857142856,34.24845672695804L195.61941964285714,31.609845024639213L196.57366071428572,30.972513116773257L197.5279017857143,30.51884589038866L198.48214285714286,38.0485263910447L199.43638392857144,39.90542599240271L200.390625,37.18649595188694L201.34486607142856,26.637472446010094L202.29910714285714,31.980526527908808L203.2533482142857,34.97529654571255L204.20758928571428,31.937058382444633L205.16183035714286,32.54734397722069L206.11607142857144,34.21025014396179L207.0703125,36.95853934571548L208.02455357142858,40.79938546350837L208.97879464285714,34.983818862028386L209.93303571428572,28.033060749284914L210.88727678571428,29.325981926865865L211.84151785714283,36.22043752190322L212.79575892857142,41.2134674997142L213.75,39.12716459101503L214.70424107142858,36.57957310000697L215.65848214285714,32.55173822951102L216.61272321428572,38.21991146035066L217.56696428571428,38.07524979369089L218.52120535714286,36.545081020928876L219.47544642857142,36.32495968433469L220.4296875,34.742229037834704L221.38392857142858,43.66846516928288L222.33816964285717,47.43818923950917L223.29241071428572,43.1481857605024L224.24665178571428,41.73241636200211L225.20089285714286,33.562836772462504L226.15513392857142,33.74094970599458L227.109375,22.073897406909737L228.06361607142856,23.10196822014683L229.01785714285714,23.598294884724822L229.97209821428572,20.956480402209422L230.9263392857143,27.34033721593505L231.88058035714286,27.61930643264941L232.83482142857144,27.645534627106713L233.7890625,24.243622274677136L234.74330357142856,28.062407762694477L235.69754464285714,26.073998803429674L236.6517857142857,34.02930318983368L237.60602678571428,29.001336453389968L238.56026785714286,31.980874274988082L239.51450892857144,37.4844601957912L240.46875,34.11411018424718L241.42299107142858,31.128231354078594L242.37723214285714,31.80598620624599L243.33147321428572,36.43458869487799L244.28571428571428,34.89531532782769" style="fill: none;" fill="none"></path></g><g><path stroke="rgb(187, 187, 187)" stroke-width="2px" d="M19.084821428571427,14.342496395111112L20.0390625,65.0222583115101L20.99330357142857,86.83445300374713L21.947544642857142,101.5384158382521L22.901785714285715,114.16481098435473L23.856026785714285,121.44756761636629L24.810267857142858,128.12670203699673L25.76450892857143,132.61940531255397L26.71875,135.47438603921267L27.672991071428573,136.88568508853925L28.627232142857142,139.2888642860521L29.58147321428571,140.6345651732095L30.535714285714285,141.3860611392542L31.489955357142858,142.70305163715383L32.44419642857143,145.35931380693626L33.3984375,147.01236195257502L34.35267857142857,147.6021289540859L35.306919642857146,148.55336335393673L36.26116071428571,148.99722048523498L37.215401785714285,148.06129400667243L38.169642857142854,146.15500741494438L39.12388392857143,148.3294902150938L40.078125,150.08974880755682L41.03236607142858,150.3863998449383L41.98660714285714,149.55621049392676L42.940848214285715,149.6275746584658L43.895089285714285,151.25409309209533L44.849330357142854,151.28850154689655L45.80357142857143,149.2122860209156L46.7578125,152.00404246512932L47.71205357142857,153.81887748987242L48.66629464285714,155.38444053265343L49.620535714285715,156.49595040105402L50.574776785714285,157.47031657520694L51.52901785714286,158.10236013946923L52.48325892857143,158.47179695312553L53.4375,158.70317459603913L54.39174107142857,158.99568332021232L55.345982142857146,159.25791270700282L56.300223214285715,159.28205188541173L57.254464285714285,159.41365297814468L58.20870535714286,159.43873128627112L59.16294642857142,159.53099891037547L60.1171875,159.52845734426813L61.07142857142857,159.60908100684492L62.025669642857146,159.67405202459207L62.979910714285715,159.55878365394585L63.93415178571429,159.62160056781678L64.88839285714286,159.6697255057217L65.84263392857143,159.74486306054183L66.796875,159.72461581076843L67.75111607142857,159.74929591362582L68.70535714285714,159.7818626530538L69.65959821428572,159.7330138593208L70.61383928571429,159.70743657890208L71.56808035714286,159.783430445154L72.52232142857142,159.82032525045247L73.4765625,159.821356580608L74.43080357142857,159.73095110935145L75.38504464285714,159.70748134147928L76.33928571428571,159.5867168244231L77.29352678571429,159.62621776530196L78.24776785714286,159.64012236233978L79.20200892857143,159.72937537110704L80.15625,159.77959672027444L81.11049107142857,159.8101244105465L82.06473214285715,159.8590844664241L83.01897321428572,159.88151228872033L83.97321428571428,159.87919952558482L84.92745535714285,159.88436531923415L85.88169642857143,159.88382253253283L86.8359375,159.889854734302L87.79017857142857,159.89468689346936L88.74441964285714,159.89729373039827L89.69866071428571,159.89746060654983L90.65290178571429,159.8993981245784L91.60714285714286,159.90369286413508L92.56138392857143,159.91486475352505L93.515625,159.91806287793256L94.46986607142858,159.93149416736213L95.42410714285714,159.9263283665155L96.37834821428571,159.83883053206947L97.33258928571428,159.8424887479457L98.28683035714286,159.8702566475153L99.24107142857143,159.8909879328038L100.1953125,159.91132414478662L101.14955357142857,159.93041295468532L102.10379464285714,159.93030948557168L103.05803571428572,159.93898682687743L104.01227678571429,159.89288917511888L104.96651785714286,159.89385503950828L105.92075892857142,159.90109185679623L106.875,159.91828277841654L107.82924107142857,159.9278086804476L108.78348214285714,159.93958731905568L109.73772321428571,159.93928545076594L110.69196428571429,159.9454413442847L111.64620535714286,159.9311840661786L112.60044642857143,159.93693738218303L113.5546875,159.93185617293364L114.50892857142857,159.9439858877555L115.46316964285715,159.94192490863549L116.41741071428572,159.9280438826248L117.37165178571428,159.94654473440625L118.32589285714285,159.9483807779582L119.28013392857143,159.9515503185548L120.234375,159.9444119775702L121.18861607142857,159.90169126004187L122.14285714285714,159.89127316656086L123.09709821428571,159.91417903772293L124.05133928571429,159.9157982981357L125.00558035714286,159.87916726305502L125.95982142857143,159.91385695476112L126.9140625,159.89813741826282L127.86830357142858,159.92081497694636L128.82254464285714,159.92444118703506L129.77678571428572,159.93612054307818L130.73102678571428,159.93096007802075L131.68526785714286,159.92877405038766L132.63950892857144,159.92396782279786L133.59375,159.93806508865296L134.54799107142856,159.9422491338966L135.50223214285714,159.94895759766507L136.4564732142857,159.93618056894218L137.41071428571428,159.9028185891114L138.36495535714286,159.92962396030143L139.31919642857144,159.94043306485833L140.2734375,159.94440048630028L141.22767857142858,159.92249071229986L142.18191964285714,159.93534555111896L143.13616071428572,159.92551587147383L144.09040178571428,159.86293081714433L145.04464285714283,159.8879816768242L145.99888392857142,159.90230799635043L146.953125,159.87948018674427L147.90736607142858,159.90440289865433L148.86160714285714,159.9298684521757L149.81584821428572,159.94552457644744L150.77008928571428,159.93233091254803L151.72433035714286,159.9439744522018L152.67857142857142,159.93570348775938L153.6328125,159.95063099535363L154.58705357142858,159.95371190685887L155.54129464285717,159.95649388112565L156.49553571428572,159.95370809113496L157.44977678571428,159.88778105452963L158.40401785714286,159.89971720136887L159.35825892857142,159.90502259827144L160.3125,159.88562140134863L161.26674107142856,159.89142683699217L162.22098214285714,159.9221850243385L163.17522321428572,159.93333796612845L164.1294642857143,159.91582943284467L165.08370535714286,159.9336752877732L166.03794642857144,159.93145688158495L166.9921875,159.93806721149593L167.94642857142856,159.94060795737778L168.90066964285714,159.93242078730302L169.8549107142857,159.93397888842648L170.80915178571428,159.94279639585125L171.76339285714286,159.93343671191963L172.71763392857144,159.93710537970728L173.671875,159.93328741464043L174.62611607142858,159.8806455770017L175.58035714285714,159.91450786799044L176.53459821428572,159.90867861857922L177.48883928571428,159.9315212927813L178.44308035714283,159.92275690082786L179.39732142857142,159.93862860000888L180.3515625,159.9529608051472L181.30580357142858,159.9481203891072L182.26004464285714,159.93851215595652L183.21428571428572,159.94080287228317L184.16852678571428,159.9335868944096L185.12276785714286,159.93990216871677L186.07700892857142,159.9459159707294L187.03125,159.9531670747856L187.98549107142858,159.93369527410178L188.93973214285717,159.92448915085245L189.89397321428572,159.92785058995963L190.84821428571428,159.93172073412467L191.80245535714286,159.93114181366803L192.75669642857142,159.922557250826L193.7109375,159.92305116611328L194.66517857142856,159.92852991795976L195.61941964285714,159.93791122594774L196.57366071428572,159.9341315980065L197.5279017857143,159.92324811186614L198.48214285714286,159.9377556541784L199.43638392857144,159.8917362657844L200.390625,159.9077365340946L201.34486607142856,159.92861691252153L202.29910714285714,159.93819663167824L203.2533482142857,159.93239895966028L204.20758928571428,159.94320120442174L205.16183035714286,159.94198273362673L206.11607142857144,159.93397128139486L207.0703125,159.94671941916377L208.02455357142858,159.94233614501493L208.97879464285714,159.9446388909609L209.93303571428572,159.94517687669116L210.88727678571428,159.95103644835632L211.84151785714283,159.95105768279095L212.79575892857142,159.95348117871163L213.75,159.95283110541078L214.70424107142858,159.93134933621866L215.65848214285714,159.94613421534333L216.61272321428572,159.95405976192927L217.56696428571428,159.9401063001597L218.52120535714286,159.93218035455087L219.47544642857142,159.94303672445514L220.4296875,159.9266192169574L221.38392857142858,159.9378362372532L222.33816964285717,159.92205356787977L223.29241071428572,159.90338038045965L224.24665178571428,159.9270246623441L225.20089285714286,159.94467249298748L226.15513392857142,159.94158376941624L227.109375,159.9495400872669L228.06361607142856,159.91162216175147L229.01785714285714,159.92172721424578L229.97209821428572,159.9318819229983L230.9263392857143,159.92302036895575L231.88058035714286,159.8899412437631L232.83482142857144,159.88930536545683L233.7890625,159.908686568699L234.74330357142856,159.92744422269192L235.69754464285714,159.92186460075797L236.6517857142857,159.92808659546017L237.60602678571428,159.92805038756094L238.56026785714286,159.92915044319085L239.51450892857144,159.92610464858384L240.46875,159.92018768084344L241.42299107142858,159.89417980882405L242.37723214285714,159.918929190325L243.33147321428572,159.91924894374597L244.28571428571428,159.91239476775817" style="fill: none;" fill="none"></path></g></g></g></g><g opacity="0.2"><g><g><g><path stroke="rgb(255, 112, 67)" stroke-width="2px" d="M19.084821428571427,84.97013807296753L20.0390625,67.07986354827882L20.99330357142857,94.63261723518372L21.947544642857142,87.07067728042603L22.901785714285715,77.56151914596558L23.856026785714285,87.06584930419922L24.810267857142858,84.51193332672119L25.76450892857143,89.78731393814087L26.71875,59.603998661041274L27.672991071428573,93.49059820175171L28.627232142857142,87.6014506816864L29.58147321428571,62.286344766616835L30.535714285714285,93.60490798950195L31.489955357142858,52.585992813110366L32.44419642857143,54.99412775039674L33.3984375,44.37712192535403L34.35267857142857,70.7612192630768L35.306919642857146,67.6923966407776L36.26116071428571,19.566354751586914L37.215401785714285,59.332404136657715L38.169642857142854,71.89516782760622L39.12388392857143,69.57444310188295L40.078125,62.569842338562026L41.03236607142858,79.54777836799622L41.98660714285714,22.10048198699951L42.940848214285715,44.577417373657255L43.895089285714285,38.2526969909668L44.849330357142854,58.37460517883302L45.80357142857143,80.0613796710968L46.7578125,84.51171875L47.71205357142857,78.54468584060669L48.66629464285714,82.5217878818512L49.620535714285715,94.84864830970764L50.574776785714285,79.66628432273865L51.52901785714286,52.93792247772217L52.48325892857143,72.22598552703857L53.4375,62.21261978149414L54.39174107142857,76.2126302719116L55.345982142857146,71.94816827774049L56.300223214285715,71.86149716377258L57.254464285714285,60.73612928390504L58.20870535714286,62.76166796684265L59.16294642857142,67.35945105552675L60.1171875,58.39540719985962L61.07142857142857,57.71391153335573L62.025669642857146,60.60881972312927L62.979910714285715,48.98842334747316L63.93415178571429,27.481136322021484L64.88839285714286,48.6826753616333L65.84263392857143,20.129249095916748L66.796875,48.477599620819106L67.75111607142857,47.77437210083011L68.70535714285714,36.176345348358154L69.65959821428572,56.95206880569458L70.61383928571429,52.91964769363405L71.56808035714286,46.97017431259155L72.52232142857142,43.308613300323486L73.4765625,51.167378425598145L74.43080357142857,58.950147628784194L75.38504464285714,43.89291763305667L76.33928571428571,41.86013698577884L77.29352678571429,34.50366020202637L78.24776785714286,44.555840492248535L79.20200892857143,42.8525185585022L80.15625,56.92262411117554L81.11049107142857,49.28720951080324L82.06473214285715,46.576783657073975L83.01897321428572,39.34843301773071L83.97321428571428,38.98683547973633L84.92745535714285,25.99717140197754L85.88169642857143,28.794667720794678L86.8359375,39.69326972961426L87.79017857142857,46.6207480430603L88.74441964285714,29.72593069076538L89.69866071428571,61.553004980087294L90.65290178571429,20.465550422668457L91.60714285714286,38.83200645446777L92.56138392857143,40.12040853500366L93.515625,46.13464832305908L94.46986607142858,39.45736646652222L95.42410714285714,29.527196884155273L96.37834821428571,45.168099403381376L97.33258928571428,34.44509267807007L98.28683035714286,46.15987300872803L99.24107142857143,31.60484790802002L100.1953125,14.72637414932251L101.14955357142857,49.37730789184572L102.10379464285714,24.989852905273438L103.05803571428572,41.91237449645996L104.01227678571429,35.91533660888672L104.96651785714286,36.0489106178284L105.92075892857142,26.631412506103516L106.875,26.397130489349394L107.82924107142857,46.9850754737854L108.78348214285714,30.511269569396973L109.73772321428571,53.20870637893677L110.69196428571429,37.491140365600614L111.64620535714286,39.715776443481445L112.60044642857143,44.12600755691531L113.5546875,40.33207654953006L114.50892857142857,40.00965118408203L115.46316964285715,33.7434983253479L116.41741071428572,36.27958059310913L117.37165178571428,38.340256214141846L118.32589285714285,28.65013837814331L119.28013392857143,19.935617446899414L120.234375,50.84708690643312L121.18861607142857,34.659597873687744L122.14285714285714,20.92066764831543L123.09709821428571,42.41227865219116L124.05133928571429,31.07255458831787L125.00558035714286,26.26712083816531L125.95982142857143,25.20761251449585L126.9140625,29.876205921173096L127.86830357142858,36.98484659194949L128.82254464285714,41.35322332382202L129.77678571428572,49.27569389343262L130.73102678571428,56.51920795440674L131.68526785714286,23.411808013916016L132.63950892857144,34.59021806716922L133.59375,42.86867141723633L134.54799107142856,9.400842189788818L135.50223214285714,28.34167242050171L136.4564732142857,37.77917385101321L137.41071428571428,26.42606258392334L138.36495535714286,33.58289957046509L139.31919642857144,51.52817726135255L140.2734375,42.781291007995605L141.22767857142858,21.283743381500244L142.18191964285714,31.036946773529053L143.13616071428572,34.60074424743652L144.09040178571428,21.28298044204712L145.04464285714283,32.422611713409424L145.99888392857142,41.49268627166748L146.953125,26.42763614654541L147.90736607142858,47.34941482543945L148.86160714285714,41.69748783111572L149.81584821428572,45.96453666687012L150.77008928571428,42.72145986557007L151.72433035714286,34.29929971694949L152.67857142857142,41.96367025375369L153.6328125,41.283414363861084L154.58705357142858,36.46974325180054L155.54129464285717,42.133328914642334L156.49553571428572,29.578945636749296L157.44977678571428,46.302053928375244L158.40401785714286,46.73169612884524L159.35825892857142,27.644131183624268L160.3125,34.09799098968506L161.26674107142856,31.616435050964355L162.22098214285714,53.569922447204604L163.17522321428572,23.742923736572294L164.1294642857143,23.486003875732422L165.08370535714286,21.19523048400879L166.03794642857144,28.212854862213135L166.9921875,33.43379259109497L167.94642857142856,32.18848466873169L168.90066964285714,38.467559814453125L169.8549107142857,47.42133378982544L170.80915178571428,18.863413333892822L171.76339285714286,31.550238132476807L172.71763392857144,39.623520374298124L173.671875,42.06418752670288L174.62611607142858,25.059518814086914L175.58035714285714,38.03251743316653L176.53459821428572,26.064190864563017L177.48883928571428,25.60359001159668L178.44308035714283,40.70658445358279L179.39732142857142,12.304613590240479L180.3515625,48.885033130645766L181.30580357142858,28.86129379272461L182.26004464285714,58.50329160690309L183.21428571428572,18.9810848236084L184.16852678571428,20.03851890563965L185.12276785714286,37.81984806060791L186.07700892857142,24.51829671859744L187.03125,35.65054893493652L187.98549107142858,33.5491752624512L188.93973214285717,42.10189342498779L189.89397321428572,24.596807956695557L190.84821428571428,37.50248908996585L191.80245535714286,43.09694528579712L192.75669642857142,37.26238965988162L193.7109375,29.87013816833496L194.66517857142856,33.97090196609497L195.61941964285714,27.65192747116089L196.57366071428572,30.016515254974365L197.5279017857143,29.838345050811768L198.48214285714286,49.34304714202881L199.43638392857144,42.6907753944397L200.390625,33.10810089111328L201.34486607142856,10.813937187194824L202.29910714285714,39.995107650756836L203.2533482142857,39.46745157241821L204.20758928571428,27.379701137542725L205.16183035714286,33.462772369384766L206.11607142857144,36.704609394073486L207.0703125,41.08097314834595L208.02455357142858,46.560654640197754L208.97879464285714,26.26046895980835L209.93303571428572,17.606923580169678L210.88727678571428,31.265363693237305L211.84151785714283,46.56212091445923L212.79575892857142,48.70301246643068L213.75,35.99771022796631L214.70424107142858,32.75818586349487L215.65848214285714,26.50998592376709L216.61272321428572,46.72217130661011L217.56696428571428,37.85825729370117L218.52120535714286,34.24982786178589L219.47544642857142,35.99477767944336L220.4296875,32.36813306808472L221.38392857142858,57.05781936645508L222.33816964285717,53.09277534484863L223.29241071428572,36.71318054199219L224.24665178571428,39.60876226425174L225.20089285714286,21.308467388153076L226.15513392857142,34.008119106292725L227.109375,4.573318958282471L228.06361607142856,24.64407444000244L229.01785714285714,24.342784881591825L229.97209821428572,16.99375867843628L230.9263392857143,36.91612243652344L231.88058035714286,28.037760257720947L232.83482142857144,27.684876918792725L233.7890625,19.140753746032715L234.74330357142856,33.79058599472049L235.69754464285714,23.09138536453247L236.6517857142857,45.9622597694397L237.60602678571428,21.459386348724365L238.56026785714286,36.450181007385254L239.51450892857144,45.73983907699585L240.46875,29.058585166931152L241.42299107142858,26.649413108825684L242.37723214285714,32.82261848449707L243.33147321428572,43.37749242782593L244.28571428571428,32.5864052772522" style="fill: none;" fill="none"></path></g><g><path stroke="rgb(187, 187, 187)" stroke-width="2px" d="M19.084821428571427,14.342496395111084L20.0390625,95.43011546134949L20.99330357142857,107.77415990829468L21.947544642857142,118.83027613162994L22.901785714285715,130.64983248710632L23.856026785714285,131.5222418308258L24.810267857142858,137.67797112464905L25.76450892857143,139.16980981826782L26.71875,139.68492805957794L27.672991071428573,138.9812996983528L28.627232142857142,142.8718364238739L29.58147321428571,142.64579325914383L30.535714285714285,142.51085132360458L31.489955357142858,144.67595726251602L32.44419642857143,149.34058472514153L33.3984375,149.4907683134079L34.35267857142857,148.48652988672256L35.306919642857146,149.97997343540192L36.26116071428571,149.6629385650158L37.215401785714285,146.65748983621597L38.169642857142854,143.29568207263947L39.12388392857143,151.5911428630352L40.078125,152.73010194301605L41.03236607142858,150.83137288689613L41.98660714285714,148.31093236804008L42.940848214285715,149.7346206009388L43.895089285714285,153.69386658072472L44.849330357142854,151.34011417627335L45.80357142857143,146.09796464443207L46.7578125,156.19167558848858L47.71205357142857,156.54112942516804L48.66629464285714,157.7327847853303L49.620535714285715,158.1632150709629L50.574776785714285,158.93186576664448L51.52901785714286,159.05042545869946L52.48325892857143,159.02595216408372L53.4375,159.0502410568297L54.39174107142857,159.43444640375674L55.345982142857146,159.65125678572804L56.300223214285715,159.31826065294445L57.254464285714285,159.61105461698025L58.20870535714286,159.4763487484306L59.16294642857142,159.6694003464654L60.1171875,159.52464499510825L61.07142857142857,159.7300165006891L62.025669642857146,159.77150855120271L62.979910714285715,159.3858810979873L63.93415178571429,159.71582593861967L64.88839285714286,159.7419129125774L65.84263392857143,159.85756939277053L66.796875,159.6942449361086L67.75111607142857,159.78631606791168L68.70535714285714,159.83071276219562L69.65959821428572,159.6597406687215L70.61383928571429,159.669070658274L71.56808035714286,159.89742124453187L72.52232142857142,159.87566745840013L73.4765625,159.82290357584134L74.43080357142857,159.59534290246665L75.38504464285714,159.67227668967098L76.33928571428571,159.40557004883885L77.29352678571429,159.68546917662024L78.24776785714286,159.66097925789654L79.20200892857143,159.8632548842579L80.15625,159.85492874402553L81.11049107142857,159.85591594595462L82.06473214285715,159.9325245502405L83.01897321428572,159.91515402216464L83.97321428571428,159.87573038088158L84.92745535714285,159.89211400970817L85.88169642857143,159.88300835248083L86.8359375,159.89890303695574L87.79017857142857,159.9019351322204L88.74441964285714,159.90120398579165L89.69866071428571,159.89771092077717L90.65290178571429,159.90230440162122L91.60714285714286,159.91013497347012L92.56138392857143,159.93162258761004L93.515625,159.92286006454378L94.46986607142858,159.95164110150654L95.42410714285714,159.9185796652455L96.37834821428571,159.70758378040045L97.33258928571428,159.84797607176006L98.28683035714286,159.91190849686973L99.24107142857143,159.9220848607365L100.1953125,159.9418284627609L101.14955357142857,159.9590461695334L102.10379464285714,159.9301542819012L103.05803571428572,159.95200283883605L104.01227678571429,159.82374269748107L104.96651785714286,159.89530383609235L105.92075892857142,159.91194708272815L106.875,159.944069160847L107.82924107142857,159.94209753349423L108.78348214285714,159.95725527696777L109.73772321428571,159.9388326483313L110.69196428571429,159.9546751845628L111.64620535714286,159.90979814901948L112.60044642857143,159.9455673561897L113.5546875,159.92423435905948L114.50892857142857,159.9621804599883L115.46316964285715,159.9388334399555L116.41741071428572,159.90722234360874L117.37165178571428,159.9742960120784L118.32589285714285,159.95113484328613L119.28013392857143,159.95630462944973L120.234375,159.93370446609333L121.18861607142857,159.83761018374935L122.14285714285714,159.87564602633938L123.09709821428571,159.94853784446605L124.05133928571429,159.91822718875483L125.00558035714286,159.82422071043402L125.95982142857143,159.96589149232022L126.9140625,159.87455811351538L127.86830357142858,159.95483131497167L128.82254464285714,159.9298805021681L129.77678571428572,159.9536395771429L130.73102678571428,159.9232193804346L131.68526785714286,159.92549500893801L132.63950892857144,159.91675848141313L133.59375,159.95921098743565L134.54799107142856,159.9485252017621L135.50223214285714,159.95902029331774L136.4564732142857,159.91701502585784L137.41071428571428,159.85277561936527L138.36495535714286,159.96983201708645L139.31919642857144,159.9566467216937L140.2734375,159.95035161846317L141.22767857142858,159.88962605129927L142.18191964285714,159.95462780934758L143.13616071428572,159.91077135200612L144.09040178571428,159.76905323565006L145.04464285714283,159.92555796634406L145.99888392857142,159.92379747563973L146.953125,159.84523847233504L147.90736607142858,159.94178696651943L148.86160714285714,159.96806678245775L149.81584821428572,159.96900876285508L150.77008928571428,159.9125404166989L151.72433035714286,159.9614397616824L152.67857142857142,159.9232970410958L153.6328125,159.97302225674503L154.58705357142858,159.95833327411674L155.54129464285717,159.96066684252582L156.49553571428572,159.94952940614894L157.44977678571428,159.78889049962163L158.40401785714286,159.9176214216277L159.35825892857142,159.9129806936253L160.3125,159.85651960596442L161.26674107142856,159.90013499045745L162.22098214285714,159.96832230535802L163.17522321428572,159.9500673788134L164.1294642857143,159.889566632919L165.08370535714286,159.96044407016598L166.03794642857144,159.9281292723026L166.9921875,159.94798270636238L167.94642857142856,159.94441907620057L168.90066964285714,159.92014003219083L169.8549107142857,159.9363160401117L170.80915178571428,159.95602265698835L171.76339285714286,159.91939718602225L172.71763392857144,159.9426083813887L173.671875,159.92756046704017L174.62611607142858,159.80168282054365L175.58035714285714,159.96530130447354L176.53459821428572,159.89993474446237L177.48883928571428,159.96578530408442L178.44308035714283,159.9096103128977L179.39732142857142,159.9624361487804L180.3515625,159.97445911285467L181.30580357142858,159.9408597650472L182.26004464285714,159.92409980623052L183.21428571428572,159.9442389467731L184.16852678571428,159.92276292759925L185.12276785714286,159.94937508017756L186.07700892857142,159.9549366737483L187.03125,159.9640437308699L187.98549107142858,159.90448757307604L188.93973214285717,159.9106799659785L189.89397321428572,159.93289274862036L190.84821428571428,159.93752595037222L191.80245535714286,159.93027343298309L192.75669642857142,159.90968040656298L193.7109375,159.9237920390442L194.66517857142856,159.93674804572947L195.61941964285714,159.95198318792973L196.57366071428572,159.9284621560946L197.5279017857143,159.90692288265564L198.48214285714286,159.95951696764678L199.43638392857144,159.82270718319342L200.390625,159.9317369365599L201.34486607142856,159.9599374801619L202.29910714285714,159.95256621041335L203.2533482142857,159.9237024516333L204.20758928571428,159.95940457156394L205.16183035714286,159.94015502743423L206.11607142857144,159.92195410304703L207.0703125,159.96584162581712L208.02455357142858,159.9357612337917L208.97879464285714,159.9480930098798L209.93303571428572,159.9459838552866L210.88727678571428,159.95982580585405L211.84151785714283,159.95108953444287L212.79575892857142,159.95711642259266L213.75,159.95185599545948L214.70424107142858,159.8991266824305L215.65848214285714,159.96831153403036L216.61272321428572,159.96594808180816L217.56696428571428,159.91917610750534L218.52120535714286,159.92029143613763L219.47544642857142,159.95932127931155L220.4296875,159.90199295571074L221.38392857142858,159.95466176769696L222.33816964285717,159.89837956381962L223.29241071428572,159.87537059932947L224.24665178571428,159.96249108517077L225.20089285714286,159.97114423895255L226.15513392857142,159.9369506840594L227.109375,159.96147456404287L228.06361607142856,159.85474527347833L229.01785714285714,159.93688479298726L229.97209821428572,159.94711398612708L230.9263392857143,159.9097280378919L231.88058035714286,159.84032255597413L232.83482142857144,159.88835154799744L233.7890625,159.93775837356225L234.74330357142856,159.95558070368133L235.69754464285714,159.91349516785704L236.6517857142857,159.93741958751343L237.60602678571428,159.92799607571214L238.56026785714286,159.93080052663572L239.51450892857144,159.92153595667332L240.46875,159.91131222923286L241.42299107142858,159.85516800079495L242.37723214285714,159.95605326257646L243.33147321428572,159.91972857387736L244.28571428571428,159.9021135037765" style="fill: none;" fill="none"></path></g></g></g></g></g></g><g transform="translate(62, 176)" clip-path="url(#clip_1)"><clipPath id="clip_1"><rect width="267" height="24"></rect></clipPath><g><g><line x1="0" y1="0" x2="0" y2="5" style="visibility: inherit;" fill="rgb(0, 0, 0)" stroke="rgb(204, 204, 204)" stroke-width="1px"></line><line x1="19.084821428571427" y1="0" x2="19.084821428571427" y2="5" style="visibility: inherit;" fill="rgb(0, 0, 0)" stroke="rgb(204, 204, 204)" stroke-width="1px"></line><line x1="38.169642857142854" y1="0" x2="38.169642857142854" y2="5" style="visibility: inherit;" fill="rgb(0, 0, 0)" stroke="rgb(204, 204, 204)" stroke-width="1px"></line><line x1="57.254464285714285" y1="0" x2="57.254464285714285" y2="5" style="visibility: inherit;" fill="rgb(0, 0, 0)" stroke="rgb(204, 204, 204)" stroke-width="1px"></line><line x1="76.33928571428571" y1="0" x2="76.33928571428571" y2="5" style="visibility: inherit;" fill="rgb(0, 0, 0)" stroke="rgb(204, 204, 204)" stroke-width="1px"></line><line x1="95.42410714285714" y1="0" x2="95.42410714285714" y2="5" style="visibility: inherit;" fill="rgb(0, 0, 0)" stroke="rgb(204, 204, 204)" stroke-width="1px"></line><line x1="114.50892857142857" y1="0" x2="114.50892857142857" y2="5" style="visibility: inherit;" fill="rgb(0, 0, 0)" stroke="rgb(204, 204, 204)" stroke-width="1px"></line><line x1="133.59375" y1="0" x2="133.59375" y2="5" style="visibility: inherit;" fill="rgb(0, 0, 0)" stroke="rgb(204, 204, 204)" stroke-width="1px"></line><line x1="152.67857142857142" y1="0" x2="152.67857142857142" y2="5" style="visibility: inherit;" fill="rgb(0, 0, 0)" stroke="rgb(204, 204, 204)" stroke-width="1px"></line><line x1="171.76339285714286" y1="0" x2="171.76339285714286" y2="5" style="visibility: inherit;" fill="rgb(0, 0, 0)" stroke="rgb(204, 204, 204)" stroke-width="1px"></line><line x1="190.84821428571428" y1="0" x2="190.84821428571428" y2="5" style="visibility: inherit;" fill="rgb(0, 0, 0)" stroke="rgb(204, 204, 204)" stroke-width="1px"></line><line x1="209.93303571428572" y1="0" x2="209.93303571428572" y2="5" style="visibility: inherit;" fill="rgb(0, 0, 0)" stroke="rgb(204, 204, 204)" stroke-width="1px"></line><line x1="229.01785714285714" y1="0" x2="229.01785714285714" y2="5" style="visibility: inherit;" fill="rgb(0, 0, 0)" stroke="rgb(204, 204, 204)" stroke-width="1px"></line><line x1="248.10267857142858" y1="0" x2="248.10267857142858" y2="5" style="visibility: inherit;" fill="rgb(0, 0, 0)" stroke="rgb(204, 204, 204)" stroke-width="1px"></line><line x1="267.1875" y1="0" x2="267.1875" y2="5" style="visibility: inherit;" fill="rgb(0, 0, 0)" stroke="rgb(204, 204, 204)" stroke-width="1px"></line></g><g transform="translate(0, 8)"><text x="0" y="0" dx="0em" dy="0.95em" style="text-anchor: middle; visibility: hidden; font-family: &quot;Helvetica Neue&quot;, sans-serif; font-size: 12px; font-weight: 200;" fill="rgb(50, 49, 63)" stroke="none" stroke-width="1px">-20</text><text x="19.084821428571427" y="0" dx="0em" dy="0.95em" style="text-anchor: middle; visibility: inherit; font-family: &quot;Helvetica Neue&quot;, sans-serif; font-size: 12px; font-weight: 200;" fill="rgb(50, 49, 63)" stroke="none" stroke-width="1px">0</text><text x="38.169642857142854" y="0" dx="0em" dy="0.95em" style="text-anchor: middle; visibility: hidden; font-family: &quot;Helvetica Neue&quot;, sans-serif; font-size: 12px; font-weight: 200;" fill="rgb(50, 49, 63)" stroke="none" stroke-width="1px">20</text><text x="57.254464285714285" y="0" dx="0em" dy="0.95em" style="text-anchor: middle; visibility: inherit; font-family: &quot;Helvetica Neue&quot;, sans-serif; font-size: 12px; font-weight: 200;" fill="rgb(50, 49, 63)" stroke="none" stroke-width="1px">40</text><text x="76.33928571428571" y="0" dx="0em" dy="0.95em" style="text-anchor: middle; visibility: hidden; font-family: &quot;Helvetica Neue&quot;, sans-serif; font-size: 12px; font-weight: 200;" fill="rgb(50, 49, 63)" stroke="none" stroke-width="1px">60</text><text x="95.42410714285714" y="0" dx="0em" dy="0.95em" style="text-anchor: middle; visibility: inherit; font-family: &quot;Helvetica Neue&quot;, sans-serif; font-size: 12px; font-weight: 200;" fill="rgb(50, 49, 63)" stroke="none" stroke-width="1px">80</text><text x="114.50892857142857" y="0" dx="0em" dy="0.95em" style="text-anchor: middle; visibility: hidden; font-family: &quot;Helvetica Neue&quot;, sans-serif; font-size: 12px; font-weight: 200;" fill="rgb(50, 49, 63)" stroke="none" stroke-width="1px">100</text><text x="133.59375" y="0" dx="0em" dy="0.95em" style="text-anchor: middle; visibility: inherit; font-family: &quot;Helvetica Neue&quot;, sans-serif; font-size: 12px; font-weight: 200;" fill="rgb(50, 49, 63)" stroke="none" stroke-width="1px">120</text><text x="152.67857142857142" y="0" dx="0em" dy="0.95em" style="text-anchor: middle; visibility: hidden; font-family: &quot;Helvetica Neue&quot;, sans-serif; font-size: 12px; font-weight: 200;" fill="rgb(50, 49, 63)" stroke="none" stroke-width="1px">140</text><text x="171.76339285714286" y="0" dx="0em" dy="0.95em" style="text-anchor: middle; visibility: inherit; font-family: &quot;Helvetica Neue&quot;, sans-serif; font-size: 12px; font-weight: 200;" fill="rgb(50, 49, 63)" stroke="none" stroke-width="1px">160</text><text x="190.84821428571428" y="0" dx="0em" dy="0.95em" style="text-anchor: middle; visibility: hidden; font-family: &quot;Helvetica Neue&quot;, sans-serif; font-size: 12px; font-weight: 200;" fill="rgb(50, 49, 63)" stroke="none" stroke-width="1px">180</text><text x="209.93303571428572" y="0" dx="0em" dy="0.95em" style="text-anchor: middle; visibility: inherit; font-family: &quot;Helvetica Neue&quot;, sans-serif; font-size: 12px; font-weight: 200;" fill="rgb(50, 49, 63)" stroke="none" stroke-width="1px">200</text><text x="229.01785714285714" y="0" dx="0em" dy="0.95em" style="text-anchor: middle; visibility: hidden; font-family: &quot;Helvetica Neue&quot;, sans-serif; font-size: 12px; font-weight: 200;" fill="rgb(50, 49, 63)" stroke="none" stroke-width="1px">220</text><text x="248.10267857142858" y="0" dx="0em" dy="0.95em" style="text-anchor: middle; visibility: inherit; font-family: &quot;Helvetica Neue&quot;, sans-serif; font-size: 12px; font-weight: 200;" fill="rgb(50, 49, 63)" stroke="none" stroke-width="1px">240</text><text x="267.1875" y="0" dx="0em" dy="0.95em" style="text-anchor: middle; visibility: hidden; font-family: &quot;Helvetica Neue&quot;, sans-serif; font-size: 12px; font-weight: 200;" fill="rgb(50, 49, 63)" stroke="none" stroke-width="1px">260</text></g><line x1="0" y1="0" x2="267.1875" y2="0" fill="rgb(0, 0, 0)" stroke="rgb(204, 204, 204)" stroke-width="1px"></line></g></g></g></g></svg>