<svg viewBox="0 0 330 200" xmlns="http://www.w3.org/2000/svg"><g><g><g><g><g><line x1="62.8125" y1="176" x2="57.8125" y2="176" style="visibility: inherit;" fill="rgb(0, 0, 0)" stroke="rgb(204, 204, 204)" stroke-width="1px"></line><line x1="62.8125" y1="160" x2="57.8125" y2="160" style="visibility: inherit;" fill="rgb(0, 0, 0)" stroke="rgb(204, 204, 204)" stroke-width="1px"></line><line x1="62.8125" y1="144" x2="57.8125" y2="144" style="visibility: inherit;" fill="rgb(0, 0, 0)" stroke="rgb(204, 204, 204)" stroke-width="1px"></line><line x1="62.8125" y1="128" x2="57.8125" y2="128" style="visibility: inherit;" fill="rgb(0, 0, 0)" stroke="rgb(204, 204, 204)" stroke-width="1px"></line><line x1="62.8125" y1="112" x2="57.8125" y2="112" style="visibility: inherit;" fill="rgb(0, 0, 0)" stroke="rgb(204, 204, 204)" stroke-width="1px"></line><line x1="62.8125" y1="96" x2="57.8125" y2="96" style="visibility: inherit;" fill="rgb(0, 0, 0)" stroke="rgb(204, 204, 204)" stroke-width="1px"></line><line x1="62.8125" y1="79.99999999999999" x2="57.8125" y2="79.99999999999999" style="visibility: inherit;" fill="rgb(0, 0, 0)" stroke="rgb(204, 204, 204)" stroke-width="1px"></line><line x1="62.8125" y1="64.00000000000003" x2="57.8125" y2="64.00000000000003" style="visibility: inherit;" fill="rgb(0, 0, 0)" stroke="rgb(204, 204, 204)" stroke-width="1px"></line><line x1="62.8125" y1="48" x2="57.8125" y2="48" style="visibility: inherit;" fill="rgb(0, 0, 0)" stroke="rgb(204, 204, 204)" stroke-width="1px"></line><line x1="62.8125" y1="32" x2="57.8125" y2="32" style="visibility: inherit;" fill="rgb(0, 0, 0)" stroke="rgb(204, 204, 204)" stroke-width="1px"></line><line x1="62.8125" y1="16" x2="57.8125" y2="16" style="visibility: inherit;" fill="rgb(0, 0, 0)" stroke="rgb(204, 204, 204)" stroke-width="1px"></line><line x1="62.8125" y1="0" x2="57.8125" y2="0" style="visibility: inherit;" fill="rgb(0, 0, 0)" stroke="rgb(204, 204, 204)" stroke-width="1px"></line></g><g transform="translate(52.8125, 0)"><text x="0" y="176" dx="0em" dy="0.3em" style="text-anchor: end; visibility: hidden; font-family: &quot;Helvetica Neue&quot;, sans-serif; font-size: 12px; font-weight: 200;" fill="rgb(50, 49, 63)" stroke="none" stroke-width="1px">-0.01</text><text x="0" y="160" dx="0em" dy="0.3em" style="text-anchor: end; visibility: inherit; font-family: &quot;Helvetica Neue&quot;, sans-serif; font-size: 12px; font-weight: 200;" fill="rgb(50, 49, 63)" stroke="none" stroke-width="1px">0</text><text x="0" y="144" dx="0em" dy="0.3em" style="text-anchor: end; visibility: hidden; font-family: &quot;Helvetica Neue&quot;, sans-serif; font-size: 12px; font-weight: 200;" fill="rgb(50, 49, 63)" stroke="none" stroke-width="1px">0.01</text><text x="0" y="128" dx="0em" dy="0.3em" style="text-anchor: end; visibility: inherit; font-family: &quot;Helvetica Neue&quot;, sans-serif; font-size: 12px; font-weight: 200;" fill="rgb(50, 49, 63)" stroke="none" stroke-width="1px">0.02</text><text x="0" y="112" dx="0em" dy="0.3em" style="text-anchor: end; visibility: hidden; font-family: &quot;Helvetica Neue&quot;, sans-serif; font-size: 12px; font-weight: 200;" fill="rgb(50, 49, 63)" stroke="none" stroke-width="1px">0.03</text><text x="0" y="96" dx="0em" dy="0.3em" style="text-anchor: end; visibility: inherit; font-family: &quot;Helvetica Neue&quot;, sans-serif; font-size: 12px; font-weight: 200;" fill="rgb(50, 49, 63)" stroke="none" stroke-width="1px">0.04</text><text x="0" y="79.99999999999999" dx="0em" dy="0.3em" style="text-anchor: end; visibility: hidden; font-family: &quot;Helvetica Neue&quot;, sans-serif; font-size: 12px; font-weight: 200;" fill="rgb(50, 49, 63)" stroke="none" stroke-width="1px">0.05</text><text x="0" y="64.00000000000003" dx="0em" dy="0.3em" style="text-anchor: end; visibility: inherit; font-family: &quot;Helvetica Neue&quot;, sans-serif; font-size: 12px; font-weight: 200;" fill="rgb(50, 49, 63)" stroke="none" stroke-width="1px">0.06</text><text x="0" y="48" dx="0em" dy="0.3em" style="text-anchor: end; visibility: hidden; font-family: &quot;Helvetica Neue&quot;, sans-serif; font-size: 12px; font-weight: 200;" fill="rgb(50, 49, 63)" stroke="none" stroke-width="1px">0.07</text><text x="0" y="32" dx="0em" dy="0.3em" style="text-anchor: end; visibility: inherit; font-family: &quot;Helvetica Neue&quot;, sans-serif; font-size: 12px; font-weight: 200;" fill="rgb(50, 49, 63)" stroke="none" stroke-width="1px">0.08</text><text x="0" y="16" dx="0em" dy="0.3em" style="text-anchor: end; visibility: hidden; font-family: &quot;Helvetica Neue&quot;, sans-serif; font-size: 12px; font-weight: 200;" fill="rgb(50, 49, 63)" stroke="none" stroke-width="1px">0.09</text><text x="0" y="0" dx="0em" dy="0.3em" style="text-anchor: end; visibility: hidden; font-family: &quot;Helvetica Neue&quot;, sans-serif; font-size: 12px; font-weight: 200;" fill="rgb(50, 49, 63)" stroke="none" stroke-width="1px">0.1</text></g><line x1="62.8125" y1="0" x2="62.8125" y2="176" fill="rgb(0, 0, 0)" stroke="rgb(204, 204, 204)" stroke-width="1px"></line></g></g><g transform="translate(62, 0)" clip-path="url(#clip_0)"><clipPath id="clip_0"><rect width="267" height="176"></rect></clipPath><g><g><g><line x1="0" y1="0" x2="0" y2="176" fill="rgb(0, 0, 0)" stroke="rgb(60, 60, 60)" stroke-width="1px" opacity="0.25"></line><line x1="24.289772727272727" y1="0" x2="24.289772727272727" y2="176" fill="rgb(0, 0, 0)" stroke="rgb(60, 60, 60)" stroke-width="1px" opacity="0.25"></line><line x1="48.57954545454545" y1="0" x2="48.57954545454545" y2="176" fill="rgb(0, 0, 0)" stroke="rgb(60, 60, 60)" stroke-width="1px" opacity="0.25"></line><line x1="72.86931818181817" y1="0" x2="72.86931818181817" y2="176" fill="rgb(0, 0, 0)" stroke="rgb(60, 60, 60)" stroke-width="1px" opacity="0.25"></line><line x1="97.1590909090909" y1="0" x2="97.1590909090909" y2="176" fill="rgb(0, 0, 0)" stroke="rgb(60, 60, 60)" stroke-width="1px" opacity="0.25"></line><line x1="121.44886363636363" y1="0" x2="121.44886363636363" y2="176" fill="rgb(0, 0, 0)" stroke="rgb(60, 60, 60)" stroke-width="1px" opacity="0.25"></line><line x1="145.73863636363635" y1="0" x2="145.73863636363635" y2="176" fill="rgb(0, 0, 0)" stroke="rgb(60, 60, 60)" stroke-width="1px" opacity="0.25"></line><line x1="170.0284090909091" y1="0" x2="170.0284090909091" y2="176" fill="rgb(0, 0, 0)" stroke="rgb(60, 60, 60)" stroke-width="1px" opacity="0.25"></line><line x1="194.3181818181818" y1="0" x2="194.3181818181818" y2="176" fill="rgb(0, 0, 0)" stroke="rgb(60, 60, 60)" stroke-width="1px" opacity="0.25"></line><line x1="218.60795454545456" y1="0" x2="218.60795454545456" y2="176" fill="rgb(0, 0, 0)" stroke="rgb(60, 60, 60)" stroke-width="1px" opacity="0.25"></line><line x1="242.89772727272725" y1="0" x2="242.89772727272725" y2="176" fill="rgb(0, 0, 0)" stroke="rgb(60, 60, 60)" stroke-width="1px" opacity="0.25"></line><line x1="267.1875" y1="0" x2="267.1875" y2="176" fill="rgb(0, 0, 0)" stroke="rgb(60, 60, 60)" stroke-width="1px" opacity="0.25"></line></g><g><line x1="0" y1="176" x2="267.1875" y2="176" fill="rgb(0, 0, 0)" stroke="rgb(60, 60, 60)" stroke-width="1px" opacity="0.25"></line><line x1="0" y1="160" x2="267.1875" y2="160" fill="rgb(0, 0, 0)" stroke="rgb(60, 60, 60)" stroke-width="1px" opacity="0.25"></line><line x1="0" y1="144" x2="267.1875" y2="144" fill="rgb(0, 0, 0)" stroke="rgb(60, 60, 60)" stroke-width="1px" opacity="0.25"></line><line x1="0" y1="128" x2="267.1875" y2="128" fill="rgb(0, 0, 0)" stroke="rgb(60, 60, 60)" stroke-width="1px" opacity="0.25"></line><line x1="0" y1="112" x2="267.1875" y2="112" fill="rgb(0, 0, 0)" stroke="rgb(60, 60, 60)" stroke-width="1px" opacity="0.25"></line><line x1="0" y1="96" x2="267.1875" y2="96" fill="rgb(0, 0, 0)" stroke="rgb(60, 60, 60)" stroke-width="1px" opacity="0.25"></line><line x1="0" y1="79.99999999999999" x2="267.1875" y2="79.99999999999999" fill="rgb(0, 0, 0)" stroke="rgb(60, 60, 60)" stroke-width="1px" opacity="0.25"></line><line x1="0" y1="64.00000000000003" x2="267.1875" y2="64.00000000000003" fill="rgb(0, 0, 0)" stroke="rgb(60, 60, 60)" stroke-width="1px" opacity="0.25"></line><line x1="0" y1="48" x2="267.1875" y2="48" fill="rgb(0, 0, 0)" stroke="rgb(60, 60, 60)" stroke-width="1px" opacity="0.25"></line><line x1="0" y1="32" x2="267.1875" y2="32" fill="rgb(0, 0, 0)" stroke="rgb(60, 60, 60)" stroke-width="1px" opacity="0.25"></line><line x1="0" y1="16" x2="267.1875" y2="16" fill="rgb(0, 0, 0)" stroke="rgb(60, 60, 60)" stroke-width="1px" opacity="0.25"></line><line x1="0" y1="0" x2="267.1875" y2="0" fill="rgb(0, 0, 0)" stroke="rgb(60, 60, 60)" stroke-width="1px" opacity="0.25"></line></g></g></g><g><g><line x1="0" y1="160" x2="267.1875" y2="160" fill="rgb(0, 0, 0)" stroke="rgb(153, 153, 153)" stroke-width="1.5px"></line></g></g><g><g><line x1="24.289772727272727" y1="0" x2="24.289772727272727" y2="176" fill="rgb(0, 0, 0)" stroke="rgb(153, 153, 153)" stroke-width="1.5px"></line></g></g><g><g><g><g><g><path stroke="rgb(204, 51, 17)" stroke-width="2px" d="M24.289772727272727,63.62617969512941L26.71875,40.48035502433777L29.14772727272727,55.92128797453279L31.576704545454543,55.641536002649985L34.00568181818181,53.159983168038806L36.434659090909086,52.356961027636046L38.86363636363636,52.37898064707056L41.29261363636363,45.123714537776806L43.72159090909091,32.12375824631195L46.15056818181818,45.61718036119319L48.57954545454545,25.919445160011463L51.00852272727273,35.510765336454796L53.4375,35.853037366932085L55.866477272727266,34.06887402064507L58.29545454545454,30.55429784222696L60.72443181818181,25.887838020879173L63.153409090909086,29.85191532518735L65.58238636363636,39.739545006805116L68.01136363636363,24.65687767498352L70.4403409090909,29.623008240204683L72.86931818181817,31.169447770267993L75.29829545454545,45.48618317797917L77.72727272727272,50.62385897818568L80.15625,58.41463884358245L82.58522727272727,33.88279807222278L85.01420454545455,29.187497066918212L87.44318181818181,31.77907193752472L89.8721590909091,41.1079056631483L92.30113636363636,36.02115155019149L94.73011363636364,42.20510429215963L97.1590909090909,52.1509991133736L99.58806818181819,56.5117487828244L102.01704545454545,58.58864993954944L104.44602272727273,63.36902424147061L106.875,62.58712698337584L109.30397727272728,66.34882888690635L111.73295454545453,63.72918390498201L114.16193181818181,62.30961288440997L116.59090909090908,66.40184430455194L119.01988636363636,66.41596524821635L121.44886363636363,62.55462770692901L123.8778409090909,59.657037525167794L126.30681818181817,61.716319721811004L128.73579545454544,51.23761176993088L131.16477272727272,54.76159048075138L133.59375,55.879972171821365L136.02272727272725,55.44358026505161L138.45170454545456,50.61079365910557L140.8806818181818,47.18665804203587L143.3096590909091,49.57872608744789L145.73863636363635,45.005456325053984L148.16761363636365,31.257270644052454L150.5965909090909,27.26412133570429L153.0255681818182,28.28738782522737L155.45454545454544,36.032628617992856L157.88352272727275,35.67923426765836L160.3125,36.81286549650838L162.74147727272728,40.0928367142873L165.17045454545453,46.982680139840056L167.59943181818184,41.76944302195312L170.0284090909091,49.66733245059275L172.45738636363637,44.680121111896085L174.88636363636363,39.51402721883437L177.31534090909093,19.77159057904217L179.7443181818182,38.322785585218355L182.17329545454544,32.73192494457581L184.60227272727272,32.619739111337765L187.03125,25.89348252777677L189.46022727272728,37.840180016544L191.88920454545453,44.00705982267053L194.3181818181818,44.79457574498173L196.7471590909091,45.852202638456305L199.17613636363637,48.50951246289557L201.60511363636363,47.73946793000786L204.0340909090909,42.08346862268979L206.4630681818182,39.11041080160459L208.89204545454547,33.294946546575545L211.32102272727272,34.45383846474951L213.75,32.552323220451285L216.17897727272728,29.63536255257108L218.60795454545456,35.131222681383946L221.0369318181818,37.776096508610635L223.46590909090907,40.203293708389026L225.89488636363637,35.52949842657151L228.32386363636363,34.682146649631875L230.7528409090909,46.1302580482203L233.18181818181816,41.876204374220265L235.61079545454547,36.341732718221124L238.03977272727272,38.358106838269094L240.46875,40.79876722490971L242.89772727272725,36.08775986192336L245.32670454545456,46.1455076513154L247.7556818181818,45.734769915191094L250.1846590909091,32.90928674617274L252.61363636363635,39.739472346775926L255.04261363636365,41.43871610002111" style="fill: none;" fill="none"></path></g><g><path stroke="rgb(0, 119, 187)" stroke-width="2px" d="M24.289772727272727,20.286390781402616L26.71875,51.432760655879974L29.14772727272727,67.282208179941L31.576704545454543,79.96480616576531L34.00568181818181,88.05827814286819L36.434659090909086,90.63359781059361L38.86363636363636,100.26999297272701L41.29261363636363,104.84837031626036L43.72159090909091,109.20257134059598L46.15056818181818,112.3853971570979L48.57954545454545,113.48503984402939L51.00852272727273,106.72077216705195L53.4375,115.8685923064897L55.866477272727266,122.12656498230945L58.29545454545454,124.49128352772021L60.72443181818181,120.51220316782015L63.153409090909086,122.58544978864528L65.58238636363636,127.81747821301747L68.01136363636363,131.0668081188193L70.4403409090909,132.65943235529923L72.86931818181817,128.39118622231157L75.29829545454545,124.31930321913546L77.72727272727272,130.51763576821395L80.15625,133.44572407182332L82.58522727272727,136.4071832581537L85.01420454545455,136.90131811057066L87.44318181818181,136.56533950604543L89.8721590909091,136.28318014721427L92.30113636363636,138.57695391639464L94.73011363636364,137.92414693028778L97.1590909090909,143.21211001676045L99.58806818181819,148.32708376466624L102.01704545454545,151.6144295284498L104.44602272727273,153.73934692268182L106.875,155.6394746920753L109.30397727272728,156.15126692413406L111.73295454545453,157.1522340577746L114.16193181818181,157.96175152524322L116.59090909090908,158.32886846721905L119.01988636363636,158.71102689621713L121.44886363636363,158.81219428140807L123.8778409090909,159.02037910446938L126.30681818181817,158.7775839526275L128.73579545454544,159.126989253079L131.16477272727272,159.2192867295332L133.59375,155.19104110551908L136.02272727272725,157.00825514563587L138.45170454545456,158.07955115465938L140.8806818181818,158.6672356839773L143.3096590909091,159.08986489979054L145.73863636363635,159.33329981421127L148.16761363636365,159.51793676788975L150.5965909090909,156.49171367987682L153.0255681818182,157.7647678260798L155.45454545454544,158.54074498369116L157.88352272727275,159.04486080097467L160.3125,159.30583703011166L162.74147727272728,155.68967770033962L165.17045454545453,157.24604973863904L167.59943181818184,158.21804683087083L170.0284090909091,158.8073384876717L172.45738636363637,158.22889744434767L174.88636363636363,158.83697607260353L177.31534090909093,159.1088593007112L179.7443181818182,159.36060931166915L182.17329545454544,158.7360339664275L184.60227272727272,159.13616605418053L187.03125,159.36041689294353L189.46022727272728,159.54335261678114L191.88920454545453,159.61420468379805L194.3181818181818,159.7037102515757L196.7471590909091,159.73966169455707L199.17613636363637,159.76624661947972L201.60511363636363,159.77582586118987L204.0340909090909,155.42839224522956L206.4630681818182,157.14464844248084L208.89204545454547,155.05499542344444L211.32102272727272,156.9635697358926L213.75,158.11406659694492L216.17897727272728,158.81131061978328L218.60795454545456,159.2020298522245L221.0369318181818,159.46239278821088L223.46590909090907,159.60123816141L225.89488636363637,159.69145117015995L228.32386363636363,159.70009990035805L230.7528409090909,159.62675723433085L233.18181818181816,159.7186100289201L235.61079545454547,159.76725214768055L238.03977272727272,159.78353587715984L240.46875,159.81304855155446L242.89772727272725,159.82148828585443L245.32670454545456,159.82198796595333L247.7556818181818,159.11969339504955L250.1846590909091,159.42237101792614L252.61363636363635,159.57057615920496L255.04261363636365,159.67118204305822" style="fill: none;" fill="none"></path></g></g></g></g><g opacity="0.2"><g><g><g><path stroke="rgb(204, 51, 17)" stroke-width="2px" d="M24.289772727272727,63.62617969512941L26.71875,26.592860221862793L29.14772727272727,70.74458360671998L31.576704545454543,55.31254768371582L34.00568181818181,49.92006778717041L36.434659090909086,51.24609231948854L38.86363636363636,52.410469055175795L41.29261363636363,34.545466899871826L43.72159090909091,12.951347827911377L46.15056818181818,65.65333962440491L48.57954545454545,-3.448500633239746L51.00852272727273,49.84555006027223L53.4375,36.365327835083036L55.866477272727266,31.396124362945557L58.29545454545454,25.286564826965332L60.72443181818181,18.89143943786624L63.153409090909086,35.79635381698611L65.58238636363636,54.56847906112672L68.01136363636363,2.03517436981204L70.4403409090909,37.07175016403198L72.86931818181817,33.48902225494385L75.29829545454545,66.96081519126894L77.72727272727272,58.33027124404909L80.15625,70.10071635246278L82.58522727272727,-2.9147887229919434L85.01420454545455,22.14456558227539L87.44318181818181,35.66642761230469L89.8721590909091,55.10114192962648L92.30113636363636,28.391025066375732L94.73011363636364,51.48102998733522L97.1590909090909,67.0698380470276L99.58806818181819,63.052872419357314L102.01704545454545,61.70400142669679L104.44602272727273,70.53958535194397L106.875,61.41428112983705L109.30397727272728,71.99138164520264L111.73295454545453,59.79971647262575L114.16193181818181,60.18025636672975L116.59090909090908,72.54019141197206L119.01988636363636,66.43714666366579L121.44886363636363,56.76262140274049L123.8778409090909,55.31065225601196L126.30681818181817,64.80524301528932L128.73579545454544,35.51954984664917L131.16477272727272,60.0475585460663L133.59375,57.55754470825197L136.02272727272725,54.78899240493776L138.45170454545456,43.361613750457764L140.8806818181818,42.05045461654663L143.3096590909091,53.16682815551759L145.73863636363635,38.14555168151858L148.16761363636365,10.634992122650146L150.5965909090909,21.27439737319949L153.0255681818182,29.822287559509277L155.45454545454544,47.650489807128906L157.88352272727275,35.14914274215698L160.3125,38.513312339782715L162.74147727272728,45.01279354095459L165.17045454545453,57.31744527816774L167.59943181818184,33.94958734512329L170.0284090909091,61.514166593551636L172.45738636363637,37.19930410385132L174.88636363636363,31.764886379241972L177.31534090909093,-9.842064380645724L179.7443181818182,66.14957809448244L182.17329545454544,24.34563398361206L184.60227272727272,32.45146036148071L187.03125,15.804097652435303L189.46022727272728,55.760226249694824L191.88920454545453,53.257379531860366L194.3181818181818,45.975849628448486L196.7471590909091,47.43864297866821L199.17613636363637,52.49547719955444L201.60511363636363,46.58440113067627L204.0340909090909,33.59946966171265L206.4630681818182,34.65082406997681L208.89204545454547,24.571750164031982L211.32102272727272,36.1921763420105L213.75,29.700050354003906L216.17897727272728,25.259921550750732L218.60795454545456,43.37501287460327L221.0369318181818,41.743407249450684L223.46590909090907,43.84408950805664L225.89488636363637,28.518805503845215L228.32386363636363,33.41111898422241L230.7528409090909,63.30242514610292L233.18181818181816,35.495123863220215L235.61079545454547,28.040025234222412L238.03977272727272,41.382668018341064L240.46875,44.459757804870605L242.89772727272725,29.021248817443876L245.32670454545456,61.23212933540346L247.7556818181818,45.11866331100467L250.1846590909091,13.671061992645264L252.61363636363635,49.98475074768068L255.04261363636365,43.987581729888916" style="fill: none;" fill="none"></path></g><g><path stroke="rgb(0, 119, 187)" stroke-width="2px" d="M24.289772727272727,20.286390781402588L26.71875,70.12058258056642L29.14772727272727,82.49767780303955L31.576704545454543,94.87954139709473L34.00568181818181,98.6251151561737L36.434659090909086,94.1961920261383L38.86363636363636,114.05019223690033L41.29261363636363,111.5236884355545L43.72159090909091,115.62417209148407L46.15056818181818,117.11152255535126L48.57954545454545,115.12453019618988L51.00852272727273,96.61118149757385L53.4375,129.5604532957077L55.866477272727266,131.5012639760971L58.29545454545454,128.0355817079544L60.72443181818181,114.5463889837265L63.153409090909086,125.69444239139557L65.58238636363636,135.6641924381256L68.01136363636363,135.94030797481537L70.4403409090909,135.04822313785553L72.86931818181817,121.98905110359192L75.29829545454545,118.21161270141602L77.72727272727272,139.815012216568L80.15625,137.83782184123993L82.58522727272727,140.8493509888649L85.01420454545455,137.64251828193665L87.44318181818181,136.06137245893478L89.8721590909091,135.8599415421486L92.30113636363636,142.0176124572754L94.73011363636364,136.94493681192398L97.1590909090909,151.14405289292336L99.58806818181819,155.99954336881638L102.01704545454545,156.54544778168201L104.44602272727273,156.92672286182642L106.875,158.4896662645042L109.30397727272728,156.9189552590251L111.73295454545453,158.65368474274874L114.16193181818181,159.17602771893144L116.59090909090908,158.87954387813807L119.01988636363636,159.28426453843713L121.44886363636363,158.96394535899162L123.8778409090909,159.33265633881092L126.30681818181817,158.41339122503996L128.73579545454544,159.65109720360488L131.16477272727272,159.3577329441905L133.59375,149.14867267012596L136.02272727272725,159.73407620564103L138.45170454545456,159.68649516813457L140.8806818181818,159.54876247793436L143.3096590909091,159.72380872350186L145.73863636363635,159.69845218583941L148.16761363636365,159.79489219840616L150.5965909090909,151.95237904787064L153.0255681818182,159.67434904538095L155.45454545454544,159.70471072010696L157.88352272727275,159.80103452689946L160.3125,159.69730137381703L162.74147727272728,150.26543870568275L165.17045454545453,159.58060779608786L167.59943181818184,159.67604246921837L170.0284090909091,159.69127597287297L172.45738636363637,157.36123587936163L174.88636363636363,159.74909401498735L177.31534090909093,159.5166841428727L179.7443181818182,159.73823432810605L182.17329545454544,157.799170948565L184.60227272727272,159.7363641858101L187.03125,159.69679315108806L189.46022727272728,159.81775620253757L191.88920454545453,159.7204827843234L194.3181818181818,159.8379686032422L196.7471590909091,159.79358885902911L199.17613636363637,159.80612400686368L201.60511363636363,159.79019472375512L204.0340909090909,148.90724182128906L206.4630681818182,159.71903273835778L208.89204545454547,151.92051589488983L211.32102272727272,159.82643120456487L213.75,159.8398118885234L216.17897727272728,159.8571766540408L218.60795454545456,159.78810870088637L221.0369318181818,159.85293719219044L223.46590909090907,159.80950622120872L225.89488636363637,159.82677068328485L228.32386363636363,159.71307299565524L230.7528409090909,159.51674323529005L233.18181818181816,159.85638922080398L235.61079545454547,159.8402153258212L238.03977272727272,159.8079614713788L240.46875,159.85731756314635L242.89772727272725,159.83414788730443L245.32670454545456,159.8227374861017L247.7556818181818,158.0662515386939L250.1846590909091,159.87638745224103L252.61363636363635,159.7928838711232L255.04261363636365,159.82209086883813" style="fill: none;" fill="none"></path></g></g></g></g></g></g><g transform="translate(62, 176)" clip-path="url(#clip_1)"><clipPath id="clip_1"><rect width="267" height="24"></rect></clipPath><g><g><line x1="0" y1="0" x2="0" y2="5" style="visibility: inherit;" fill="rgb(0, 0, 0)" stroke="rgb(204, 204, 204)" stroke-width="1px"></line><line x1="24.289772727272727" y1="0" x2="24.289772727272727" y2="5" style="visibility: inherit;" fill="rgb(0, 0, 0)" stroke="rgb(204, 204, 204)" stroke-width="1px"></line><line x1="48.57954545454545" y1="0" x2="48.57954545454545" y2="5" style="visibility: inherit;" fill="rgb(0, 0, 0)" stroke="rgb(204, 204, 204)" stroke-width="1px"></line><line x1="72.86931818181817" y1="0" x2="72.86931818181817" y2="5" style="visibility: inherit;" fill="rgb(0, 0, 0)" stroke="rgb(204, 204, 204)" stroke-width="1px"></line><line x1="97.1590909090909" y1="0" x2="97.1590909090909" y2="5" style="visibility: inherit;" fill="rgb(0, 0, 0)" stroke="rgb(204, 204, 204)" stroke-width="1px"></line><line x1="121.44886363636363" y1="0" x2="121.44886363636363" y2="5" style="visibility: inherit;" fill="rgb(0, 0, 0)" stroke="rgb(204, 204, 204)" stroke-width="1px"></line><line x1="145.73863636363635" y1="0" x2="145.73863636363635" y2="5" style="visibility: inherit;" fill="rgb(0, 0, 0)" stroke="rgb(204, 204, 204)" stroke-width="1px"></line><line x1="170.0284090909091" y1="0" x2="170.0284090909091" y2="5" style="visibility: inherit;" fill="rgb(0, 0, 0)" stroke="rgb(204, 204, 204)" stroke-width="1px"></line><line x1="194.3181818181818" y1="0" x2="194.3181818181818" y2="5" style="visibility: inherit;" fill="rgb(0, 0, 0)" stroke="rgb(204, 204, 204)" stroke-width="1px"></line><line x1="218.60795454545456" y1="0" x2="218.60795454545456" y2="5" style="visibility: inherit;" fill="rgb(0, 0, 0)" stroke="rgb(204, 204, 204)" stroke-width="1px"></line><line x1="242.89772727272725" y1="0" x2="242.89772727272725" y2="5" style="visibility: inherit;" fill="rgb(0, 0, 0)" stroke="rgb(204, 204, 204)" stroke-width="1px"></line><line x1="267.1875" y1="0" x2="267.1875" y2="5" style="visibility: inherit;" fill="rgb(0, 0, 0)" stroke="rgb(204, 204, 204)" stroke-width="1px"></line></g><g transform="translate(0, 8)"><text x="0" y="0" dx="0em" dy="0.95em" style="text-anchor: middle; visibility: hidden; font-family: &quot;Helvetica Neue&quot;, sans-serif; font-size: 12px; font-weight: 200;" fill="rgb(50, 49, 63)" stroke="none" stroke-width="1px">-10</text><text x="24.289772727272727" y="0" dx="0em" dy="0.95em" style="text-anchor: middle; visibility: inherit; font-family: &quot;Helvetica Neue&quot;, sans-serif; font-size: 12px; font-weight: 200;" fill="rgb(50, 49, 63)" stroke="none" stroke-width="1px">0</text><text x="48.57954545454545" y="0" dx="0em" dy="0.95em" style="text-anchor: middle; visibility: inherit; font-family: &quot;Helvetica Neue&quot;, sans-serif; font-size: 12px; font-weight: 200;" fill="rgb(50, 49, 63)" stroke="none" stroke-width="1px">10</text><text x="72.86931818181817" y="0" dx="0em" dy="0.95em" style="text-anchor: middle; visibility: inherit; font-family: &quot;Helvetica Neue&quot;, sans-serif; font-size: 12px; font-weight: 200;" fill="rgb(50, 49, 63)" stroke="none" stroke-width="1px">20</text><text x="97.1590909090909" y="0" dx="0em" dy="0.95em" style="text-anchor: middle; visibility: inherit; font-family: &quot;Helvetica Neue&quot;, sans-serif; font-size: 12px; font-weight: 200;" fill="rgb(50, 49, 63)" stroke="none" stroke-width="1px">30</text><text x="121.44886363636363" y="0" dx="0em" dy="0.95em" style="text-anchor: middle; visibility: inherit; font-family: &quot;Helvetica Neue&quot;, sans-serif; font-size: 12px; font-weight: 200;" fill="rgb(50, 49, 63)" stroke="none" stroke-width="1px">40</text><text x="145.73863636363635" y="0" dx="0em" dy="0.95em" style="text-anchor: middle; visibility: inherit; font-family: &quot;Helvetica Neue&quot;, sans-serif; font-size: 12px; font-weight: 200;" fill="rgb(50, 49, 63)" stroke="none" stroke-width="1px">50</text><text x="170.0284090909091" y="0" dx="0em" dy="0.95em" style="text-anchor: middle; visibility: inherit; font-family: &quot;Helvetica Neue&quot;, sans-serif; font-size: 12px; font-weight: 200;" fill="rgb(50, 49, 63)" stroke="none" stroke-width="1px">60</text><text x="194.3181818181818" y="0" dx="0em" dy="0.95em" style="text-anchor: middle; visibility: inherit; font-family: &quot;Helvetica Neue&quot;, sans-serif; font-size: 12px; font-weight: 200;" fill="rgb(50, 49, 63)" stroke="none" stroke-width="1px">70</text><text x="218.60795454545456" y="0" dx="0em" dy="0.95em" style="text-anchor: middle; visibility: inherit; font-family: &quot;Helvetica Neue&quot;, sans-serif; font-size: 12px; font-weight: 200;" fill="rgb(50, 49, 63)" stroke="none" stroke-width="1px">80</text><text x="242.89772727272725" y="0" dx="0em" dy="0.95em" style="text-anchor: middle; visibility: inherit; font-family: &quot;Helvetica Neue&quot;, sans-serif; font-size: 12px; font-weight: 200;" fill="rgb(50, 49, 63)" stroke="none" stroke-width="1px">90</text><text x="267.1875" y="0" dx="0em" dy="0.95em" style="text-anchor: middle; visibility: hidden; font-family: &quot;Helvetica Neue&quot;, sans-serif; font-size: 12px; font-weight: 200;" fill="rgb(50, 49, 63)" stroke="none" stroke-width="1px">100</text></g><line x1="0" y1="0" x2="267.1875" y2="0" fill="rgb(0, 0, 0)" stroke="rgb(204, 204, 204)" stroke-width="1px"></line></g></g></g></g></svg>