<svg viewBox="0 0 330 200" xmlns="http://www.w3.org/2000/svg"><g><g><g><g><g><line x1="62.8125" y1="176" x2="57.8125" y2="176" style="visibility: inherit;" fill="rgb(0, 0, 0)" stroke="rgb(204, 204, 204)" stroke-width="1px"></line><line x1="62.8125" y1="162.46153846153845" x2="57.8125" y2="162.46153846153845" style="visibility: inherit;" fill="rgb(0, 0, 0)" stroke="rgb(204, 204, 204)" stroke-width="1px"></line><line x1="62.8125" y1="148.9230769230769" x2="57.8125" y2="148.9230769230769" style="visibility: inherit;" fill="rgb(0, 0, 0)" stroke="rgb(204, 204, 204)" stroke-width="1px"></line><line x1="62.8125" y1="135.3846153846154" x2="57.8125" y2="135.3846153846154" style="visibility: inherit;" fill="rgb(0, 0, 0)" stroke="rgb(204, 204, 204)" stroke-width="1px"></line><line x1="62.8125" y1="121.84615384615384" x2="57.8125" y2="121.84615384615384" style="visibility: inherit;" fill="rgb(0, 0, 0)" stroke="rgb(204, 204, 204)" stroke-width="1px"></line><line x1="62.8125" y1="108.3076923076923" x2="57.8125" y2="108.3076923076923" style="visibility: inherit;" fill="rgb(0, 0, 0)" stroke="rgb(204, 204, 204)" stroke-width="1px"></line><line x1="62.8125" y1="94.76923076923076" x2="57.8125" y2="94.76923076923076" style="visibility: inherit;" fill="rgb(0, 0, 0)" stroke="rgb(204, 204, 204)" stroke-width="1px"></line><line x1="62.8125" y1="81.23076923076924" x2="57.8125" y2="81.23076923076924" style="visibility: inherit;" fill="rgb(0, 0, 0)" stroke="rgb(204, 204, 204)" stroke-width="1px"></line><line x1="62.8125" y1="67.69230769230768" x2="57.8125" y2="67.69230769230768" style="visibility: inherit;" fill="rgb(0, 0, 0)" stroke="rgb(204, 204, 204)" stroke-width="1px"></line><line x1="62.8125" y1="54.15384615384616" x2="57.8125" y2="54.15384615384616" style="visibility: inherit;" fill="rgb(0, 0, 0)" stroke="rgb(204, 204, 204)" stroke-width="1px"></line><line x1="62.8125" y1="40.61538461538464" x2="57.8125" y2="40.61538461538464" style="visibility: inherit;" fill="rgb(0, 0, 0)" stroke="rgb(204, 204, 204)" stroke-width="1px"></line><line x1="62.8125" y1="27.076923076923066" x2="57.8125" y2="27.076923076923066" style="visibility: inherit;" fill="rgb(0, 0, 0)" stroke="rgb(204, 204, 204)" stroke-width="1px"></line><line x1="62.8125" y1="13.538461538461547" x2="57.8125" y2="13.538461538461547" style="visibility: inherit;" fill="rgb(0, 0, 0)" stroke="rgb(204, 204, 204)" stroke-width="1px"></line><line x1="62.8125" y1="0" x2="57.8125" y2="0" style="visibility: inherit;" fill="rgb(0, 0, 0)" stroke="rgb(204, 204, 204)" stroke-width="1px"></line></g><g transform="translate(52.8125, 0)"><text x="0" y="176" dx="0em" dy="0.3em" style="text-anchor: end; visibility: hidden; font-family: &quot;Helvetica Neue&quot;, sans-serif; font-size: 12px; font-weight: 200;" fill="rgb(50, 49, 63)" stroke="none" stroke-width="1px">-0.01</text><text x="0" y="162.46153846153845" dx="0em" dy="0.3em" style="text-anchor: end; visibility: inherit; font-family: &quot;Helvetica Neue&quot;, sans-serif; font-size: 12px; font-weight: 200;" fill="rgb(50, 49, 63)" stroke="none" stroke-width="1px">0</text><text x="0" y="148.9230769230769" dx="0em" dy="0.3em" style="text-anchor: end; visibility: hidden; font-family: &quot;Helvetica Neue&quot;, sans-serif; font-size: 12px; font-weight: 200;" fill="rgb(50, 49, 63)" stroke="none" stroke-width="1px">0.01</text><text x="0" y="135.3846153846154" dx="0em" dy="0.3em" style="text-anchor: end; visibility: inherit; font-family: &quot;Helvetica Neue&quot;, sans-serif; font-size: 12px; font-weight: 200;" fill="rgb(50, 49, 63)" stroke="none" stroke-width="1px">0.02</text><text x="0" y="121.84615384615384" dx="0em" dy="0.3em" style="text-anchor: end; visibility: hidden; font-family: &quot;Helvetica Neue&quot;, sans-serif; font-size: 12px; font-weight: 200;" fill="rgb(50, 49, 63)" stroke="none" stroke-width="1px">0.03</text><text x="0" y="108.3076923076923" dx="0em" dy="0.3em" style="text-anchor: end; visibility: inherit; font-family: &quot;Helvetica Neue&quot;, sans-serif; font-size: 12px; font-weight: 200;" fill="rgb(50, 49, 63)" stroke="none" stroke-width="1px">0.04</text><text x="0" y="94.76923076923076" dx="0em" dy="0.3em" style="text-anchor: end; visibility: hidden; font-family: &quot;Helvetica Neue&quot;, sans-serif; font-size: 12px; font-weight: 200;" fill="rgb(50, 49, 63)" stroke="none" stroke-width="1px">0.05</text><text x="0" y="81.23076923076924" dx="0em" dy="0.3em" style="text-anchor: end; visibility: inherit; font-family: &quot;Helvetica Neue&quot;, sans-serif; font-size: 12px; font-weight: 200;" fill="rgb(50, 49, 63)" stroke="none" stroke-width="1px">0.06</text><text x="0" y="67.69230769230768" dx="0em" dy="0.3em" style="text-anchor: end; visibility: hidden; font-family: &quot;Helvetica Neue&quot;, sans-serif; font-size: 12px; font-weight: 200;" fill="rgb(50, 49, 63)" stroke="none" stroke-width="1px">0.07</text><text x="0" y="54.15384615384616" dx="0em" dy="0.3em" style="text-anchor: end; visibility: inherit; font-family: &quot;Helvetica Neue&quot;, sans-serif; font-size: 12px; font-weight: 200;" fill="rgb(50, 49, 63)" stroke="none" stroke-width="1px">0.08</text><text x="0" y="40.61538461538464" dx="0em" dy="0.3em" style="text-anchor: end; visibility: hidden; font-family: &quot;Helvetica Neue&quot;, sans-serif; font-size: 12px; font-weight: 200;" fill="rgb(50, 49, 63)" stroke="none" stroke-width="1px">0.09</text><text x="0" y="27.076923076923066" dx="0em" dy="0.3em" style="text-anchor: end; visibility: inherit; font-family: &quot;Helvetica Neue&quot;, sans-serif; font-size: 12px; font-weight: 200;" fill="rgb(50, 49, 63)" stroke="none" stroke-width="1px">0.1</text><text x="0" y="13.538461538461547" dx="0em" dy="0.3em" style="text-anchor: end; visibility: hidden; font-family: &quot;Helvetica Neue&quot;, sans-serif; font-size: 12px; font-weight: 200;" fill="rgb(50, 49, 63)" stroke="none" stroke-width="1px">0.11</text><text x="0" y="0" dx="0em" dy="0.3em" style="text-anchor: end; visibility: hidden; font-family: &quot;Helvetica Neue&quot;, sans-serif; font-size: 12px; font-weight: 200;" fill="rgb(50, 49, 63)" stroke="none" stroke-width="1px">0.12</text></g><line x1="62.8125" y1="0" x2="62.8125" y2="176" fill="rgb(0, 0, 0)" stroke="rgb(204, 204, 204)" stroke-width="1px"></line></g></g><g transform="translate(62, 0)" clip-path="url(#clip_0)"><clipPath id="clip_0"><rect width="267" height="176"></rect></clipPath><g><g><g><line x1="0" y1="0" x2="0" y2="176" fill="rgb(0, 0, 0)" stroke="rgb(60, 60, 60)" stroke-width="1px" opacity="0.25"></line><line x1="26.71875" y1="0" x2="26.71875" y2="176" fill="rgb(0, 0, 0)" stroke="rgb(60, 60, 60)" stroke-width="1px" opacity="0.25"></line><line x1="53.4375" y1="0" x2="53.4375" y2="176" fill="rgb(0, 0, 0)" stroke="rgb(60, 60, 60)" stroke-width="1px" opacity="0.25"></line><line x1="80.15625" y1="0" x2="80.15625" y2="176" fill="rgb(0, 0, 0)" stroke="rgb(60, 60, 60)" stroke-width="1px" opacity="0.25"></line><line x1="106.875" y1="0" x2="106.875" y2="176" fill="rgb(0, 0, 0)" stroke="rgb(60, 60, 60)" stroke-width="1px" opacity="0.25"></line><line x1="133.59375" y1="0" x2="133.59375" y2="176" fill="rgb(0, 0, 0)" stroke="rgb(60, 60, 60)" stroke-width="1px" opacity="0.25"></line><line x1="160.3125" y1="0" x2="160.3125" y2="176" fill="rgb(0, 0, 0)" stroke="rgb(60, 60, 60)" stroke-width="1px" opacity="0.25"></line><line x1="187.03125" y1="0" x2="187.03125" y2="176" fill="rgb(0, 0, 0)" stroke="rgb(60, 60, 60)" stroke-width="1px" opacity="0.25"></line><line x1="213.75" y1="0" x2="213.75" y2="176" fill="rgb(0, 0, 0)" stroke="rgb(60, 60, 60)" stroke-width="1px" opacity="0.25"></line><line x1="240.46875" y1="0" x2="240.46875" y2="176" fill="rgb(0, 0, 0)" stroke="rgb(60, 60, 60)" stroke-width="1px" opacity="0.25"></line><line x1="267.1875" y1="0" x2="267.1875" y2="176" fill="rgb(0, 0, 0)" stroke="rgb(60, 60, 60)" stroke-width="1px" opacity="0.25"></line></g><g><line x1="0" y1="176" x2="267.1875" y2="176" fill="rgb(0, 0, 0)" stroke="rgb(60, 60, 60)" stroke-width="1px" opacity="0.25"></line><line x1="0" y1="162.46153846153845" x2="267.1875" y2="162.46153846153845" fill="rgb(0, 0, 0)" stroke="rgb(60, 60, 60)" stroke-width="1px" opacity="0.25"></line><line x1="0" y1="148.9230769230769" x2="267.1875" y2="148.9230769230769" fill="rgb(0, 0, 0)" stroke="rgb(60, 60, 60)" stroke-width="1px" opacity="0.25"></line><line x1="0" y1="135.3846153846154" x2="267.1875" y2="135.3846153846154" fill="rgb(0, 0, 0)" stroke="rgb(60, 60, 60)" stroke-width="1px" opacity="0.25"></line><line x1="0" y1="121.84615384615384" x2="267.1875" y2="121.84615384615384" fill="rgb(0, 0, 0)" stroke="rgb(60, 60, 60)" stroke-width="1px" opacity="0.25"></line><line x1="0" y1="108.3076923076923" x2="267.1875" y2="108.3076923076923" fill="rgb(0, 0, 0)" stroke="rgb(60, 60, 60)" stroke-width="1px" opacity="0.25"></line><line x1="0" y1="94.76923076923076" x2="267.1875" y2="94.76923076923076" fill="rgb(0, 0, 0)" stroke="rgb(60, 60, 60)" stroke-width="1px" opacity="0.25"></line><line x1="0" y1="81.23076923076924" x2="267.1875" y2="81.23076923076924" fill="rgb(0, 0, 0)" stroke="rgb(60, 60, 60)" stroke-width="1px" opacity="0.25"></line><line x1="0" y1="67.69230769230768" x2="267.1875" y2="67.69230769230768" fill="rgb(0, 0, 0)" stroke="rgb(60, 60, 60)" stroke-width="1px" opacity="0.25"></line><line x1="0" y1="54.15384615384616" x2="267.1875" y2="54.15384615384616" fill="rgb(0, 0, 0)" stroke="rgb(60, 60, 60)" stroke-width="1px" opacity="0.25"></line><line x1="0" y1="40.61538461538464" x2="267.1875" y2="40.61538461538464" fill="rgb(0, 0, 0)" stroke="rgb(60, 60, 60)" stroke-width="1px" opacity="0.25"></line><line x1="0" y1="27.076923076923066" x2="267.1875" y2="27.076923076923066" fill="rgb(0, 0, 0)" stroke="rgb(60, 60, 60)" stroke-width="1px" opacity="0.25"></line><line x1="0" y1="13.538461538461547" x2="267.1875" y2="13.538461538461547" fill="rgb(0, 0, 0)" stroke="rgb(60, 60, 60)" stroke-width="1px" opacity="0.25"></line><line x1="0" y1="0" x2="267.1875" y2="0" fill="rgb(0, 0, 0)" stroke="rgb(60, 60, 60)" stroke-width="1px" opacity="0.25"></line></g></g></g><g><g><line x1="0" y1="162.46153846153845" x2="267.1875" y2="162.46153846153845" fill="rgb(0, 0, 0)" stroke="rgb(153, 153, 153)" stroke-width="1.5px"></line></g></g><g><g><line x1="26.71875" y1="0" x2="26.71875" y2="176" fill="rgb(0, 0, 0)" stroke="rgb(153, 153, 153)" stroke-width="1.5px"></line></g></g><g><g><g><g><g><path stroke="rgb(238, 51, 119)" stroke-width="2px" d="M26.71875,73.3699229680575L29.390625,86.37358978161446L32.0625,86.40762934392814L34.734375,87.81067879565434L37.40625000000001,80.30396721087271L40.078125,81.68847972589228L42.75,81.82874801109989L45.421875,62.51397178454286L48.09375,50.595519962431496L50.765625,53.21017301483397L53.4375,63.46088802993559L56.109375,60.47225871766253L58.78125,66.93795823332584L61.453125,61.91824824164607L64.125,63.87535375812594L66.796875,36.56564996832307L69.46875,42.70183779058246L72.140625,52.904484318368134L74.81250000000001,45.15358905891867L77.484375,44.86630080787236L80.15625,45.40900133027728L82.828125,56.928771144582484L85.5,59.34208840778473L88.171875,62.036709305995075L90.84375,61.034743312512276L93.515625,57.30963492828161L96.1875,50.824606954751204L98.859375,43.13312363987697L101.53125,35.5688143647354L104.203125,39.44997869700049L106.875,51.990821119502726L109.546875,58.189853084682994L112.21875,61.517926905244366L114.890625,59.643605195866925L117.5625,64.14233200049236L120.234375,62.47869615849184L122.90625,58.63414563690688L125.57812499999999,60.102731004728426L128.25,52.26092253734558L130.921875,52.759003849845996L133.59375,53.090796582611176L136.265625,54.15107094124565L138.9375,60.612786297363584L141.609375,53.69800833328803L144.28125,45.838709135813616L146.953125,47.32088037002714L149.62500000000003,48.717059909291535L152.296875,42.53057372220698L154.96875,45.48724269844723L157.640625,40.08537487599207L160.3125,41.0092767391655L162.984375,41.29586205520479L165.65625,45.71980943189865L168.328125,48.09963556289394L171,39.39820200024403L173.671875,39.1146729889459L176.34375,40.82625404384683L179.015625,39.7058142185349L181.6875,35.22435465813473L184.35937499999997,33.46545846631446L187.03125,32.5451525980757L189.703125,35.11544184019408L192.375,30.785483157494014L195.046875,33.06545927644504L197.71875,38.83781444878284L200.390625,35.198012554673824L203.0625,36.925326219539016L205.734375,41.82855089295015L208.40625,37.62685838352962L211.078125,38.533683624243395L213.75,37.497102836594365L216.42187500000003,39.34153624395822L219.09375,41.48734880056003L221.765625,34.59662387525037L224.4375,32.917103966756486L227.109375,33.77240140112042L229.78125,32.317299142862L232.453125,29.922187150441715L235.125,31.42227142370666L237.796875,28.15984537469427" style="fill: none;" fill="none"></path></g><g><path stroke="rgb(51, 187, 238)" stroke-width="2px" d="M26.71875,44.53778721736029L29.390625,80.40815588144156L32.0625,98.36598642280374L34.734375,110.36320844983759L37.40625000000001,122.88500580175862L40.078125,127.75409194157555L42.75,131.53170436209456L45.421875,135.29900705604103L48.09375,138.80926448818548L50.765625,141.77883192176802L53.4375,141.4171825672851L56.109375,143.8996810166198L58.78125,145.79619552218733L61.453125,147.4758902117768L64.125,146.65266349516867L66.796875,146.95432889965502L69.46875,148.90818045480083L72.140625,150.3401068291908L74.81250000000001,150.8515650538848L77.484375,150.3995669395852L80.15625,149.60259798086975L82.828125,150.8828549699195L85.5,150.96980858345378L88.171875,151.13545085390675L90.84375,150.48702216031762L93.515625,150.52020665220815L96.1875,153.01270090281275L98.859375,153.5153757961324L101.53125,152.29441238042813L104.203125,151.97437642970928L106.875,153.8840765343038L109.546875,156.09422300770237L112.21875,157.81232509045645L114.890625,158.96424936531045L117.5625,159.91764625717173L120.234375,160.4600233249793L122.90625,160.81637561561544L125.57812499999999,161.17392780530457L128.25,161.45173885806204L130.921875,161.6330871716798L133.59375,161.70598741019614L136.265625,161.78715635731507L138.9375,161.94519466917353L141.609375,161.98769406700563L144.28125,162.09744638413991L146.953125,162.13955524563616L149.62500000000003,162.16642924031382L152.296875,162.20891906972207L154.96875,162.2083715855886L157.640625,162.11374455743044L160.3125,162.17236844123659L162.984375,162.22243736366602L165.65625,162.24965857028036L168.328125,162.2736306657524L171,162.28106787104082L173.671875,162.1799412816798L176.34375,162.23551699502175L179.015625,162.2043034781471L181.6875,162.25932078457126L184.35937499999997,162.3084034029228L187.03125,162.3355535299002L189.703125,162.35674469847865L192.375,162.37158690270647L195.046875,162.36375193192947L197.71875,162.38251380798L200.390625,162.37373942745046L203.0625,162.3688231334767L205.734375,162.38066843527204L208.40625,162.39946594231262L211.078125,162.38925343306965L213.75,162.39821773904555L216.42187500000003,162.40335160598312L219.09375,162.40873071413407L221.765625,162.40275632871237L224.4375,162.4029853133162L227.109375,162.41236784056258L229.78125,162.41342624437493L232.453125,162.4173368371702L235.125,162.42073906199585L237.796875,162.4184693835871" style="fill: none;" fill="none"></path></g></g></g></g><g opacity="0.2"><g><g><g><path stroke="rgb(238, 51, 119)" stroke-width="2px" d="M26.71875,73.3699229680575L29.390625,94.17578986974863L32.0625,86.44030732374925L34.734375,89.46066495088431L37.40625000000001,70.50320456578183L40.078125,83.60375895866981L42.75,82.02933390323933L45.421875,34.35284262437088L48.09375,33.01811856489917L50.765625,57.09262807552632L53.4375,78.74398732185365L56.109375,56.00557873799252L58.78125,76.61539587607751L61.453125,54.3985173885639L64.125,66.80871152877809L66.796875,-4.379644797398498L69.46875,51.90352289493269L72.140625,68.20586365919847L74.81250000000001,33.52842694062454L77.484375,44.435394690586975L80.15625,46.22302235089816L82.828125,74.20804680310764L85.5,62.962016655848586L88.171875,66.07860873295712L90.84375,59.53180144383359L93.515625,51.72198823782115L96.1875,41.09708158786481L98.859375,31.59591047580426L101.53125,24.222357419820952L104.203125,45.271723050337584L106.875,70.80208059457632L109.546875,67.4883997990535L112.21875,66.51003723878128L114.890625,56.832122766054596L117.5625,70.89042201408974L120.234375,59.98324243838972L122.90625,52.867319914010864L125.57812499999999,62.30560904282791L128.25,40.49820987994855L130.921875,53.5061258169321L133.59375,53.58848568109366L136.265625,55.74148247792172L138.9375,70.30535932687613L141.609375,43.325841390169586L144.28125,34.049760341644316L146.953125,49.5441372211163L149.62500000000003,50.811329218057494L152.296875,33.2508444419274L154.96875,49.92224616270799L157.640625,31.982573142418516L160.3125,42.39512953391443L162.984375,41.72574002926166L165.65625,52.355730496920074L168.328125,51.669374759380645L171,26.346051656282867L173.671875,38.68937947199896L176.34375,43.393625626197235L179.015625,38.02515448056735L181.6875,28.50216531753543L184.35937499999997,30.827114178584168L187.03125,31.16469379571768L189.703125,38.97087570337149L192.375,24.290545133444L195.046875,36.48542345487155L197.71875,47.49634720728949L200.390625,29.738309713510375L203.0625,39.51629671683679L205.734375,49.18338790306679L208.40625,31.324319619398864L211.078125,39.893921485314024L213.75,35.94223165512088L216.42187500000003,42.108186355003966L219.09375,44.70606763546283L221.765625,24.26053648728592L224.4375,30.397824104015655L227.109375,35.05534755266632L229.78125,30.134645755474395L232.453125,26.32951916181125L235.125,33.672397833604094L237.796875,23.266206301175657" style="fill: none;" fill="none"></path></g><g><path stroke="rgb(51, 187, 238)" stroke-width="2px" d="M26.71875,44.53778721736029L29.390625,101.93037707989033L32.0625,115.60550374251146L34.734375,124.47194155362936L37.40625000000001,139.23346442442673L40.078125,134.4897909439527L42.75,136.9337505652354L45.421875,140.7917705499209L48.09375,143.98621236819486L50.765625,146.18829347537113L53.4375,140.8779886685885L56.109375,147.60991904368768L58.78125,148.63477483162512L61.453125,149.99214154940384L64.125,145.4187910923591L66.796875,147.40661424856918L69.46875,151.83813098302255L72.140625,152.4876328248244L74.81250000000001,151.6186744754131L77.484375,149.72161108255386L80.15625,148.40718825046832L82.828125,152.80319832609248L85.5,151.10023728700784L88.171875,151.38391229739557L90.84375,149.51438372868756L93.515625,150.56998324852722L96.1875,156.75143590111L98.859375,154.2693873643875L101.53125,150.4629683815516L104.203125,151.49432268051L106.875,156.74862605791827L109.546875,159.40944227805505L112.21875,160.38947800948068L114.890625,160.6921356950815L117.5625,161.34774155398975L120.234375,161.2735889127048L122.90625,161.35090404605637L125.57812499999999,161.71025608651914L128.25,161.86845543565084L130.921875,161.9051096415004L133.59375,161.81533776782453L136.265625,161.90890977789576L138.9375,162.18225213684715L141.609375,162.05144316373537L144.28125,162.26207485981286L146.953125,162.20271853787395L149.62500000000003,162.2067402323278L152.296875,162.27265381383208L154.96875,162.2075503593884L157.640625,161.97180401519515L160.3125,162.2603042669451L162.984375,162.29754074730982L165.65625,162.2904903802018L168.328125,162.30958880896034L171,162.29222367897344L173.671875,162.02825139763837L176.34375,162.31888056503465L179.015625,162.15748320283512L181.6875,162.34184674420752L184.35937499999997,162.38202733045014L187.03125,162.37627872036626L189.703125,162.38853145134635L192.375,162.39385020904817L195.046875,162.35199947576396L197.71875,162.41065662205577L200.390625,162.36057785665616L203.0625,162.36144869251606L205.734375,162.39843638796503L208.40625,162.42766220287348L211.078125,162.3739346692052L213.75,162.41166419800945L216.42187500000003,162.41105240638942L219.09375,162.4167993763605L221.765625,162.39379475057984L224.4375,162.40332879022193L227.109375,162.4264416314321L229.78125,162.41501385009346L232.453125,162.42320272636314L235.125,162.4258423992343L237.796875,162.415064865974" style="fill: none;" fill="none"></path></g></g></g></g></g><g><g><circle r="4" cx="138.9375" cy="60.612786297363584" fill="rgb(238, 51, 119)" style="stroke: none;" stroke="none" stroke-width="1px"></circle><circle r="4" cx="138.9375" cy="161.94519466917353" fill="rgb(51, 187, 238)" style="stroke: none;" stroke="none" stroke-width="1px"></circle></g></g></g><g transform="translate(62, 176)" clip-path="url(#clip_1)"><clipPath id="clip_1"><rect width="267" height="24"></rect></clipPath><g><g><line x1="0" y1="0" x2="0" y2="5" style="visibility: inherit;" fill="rgb(0, 0, 0)" stroke="rgb(204, 204, 204)" stroke-width="1px"></line><line x1="26.71875" y1="0" x2="26.71875" y2="5" style="visibility: inherit;" fill="rgb(0, 0, 0)" stroke="rgb(204, 204, 204)" stroke-width="1px"></line><line x1="53.4375" y1="0" x2="53.4375" y2="5" style="visibility: inherit;" fill="rgb(0, 0, 0)" stroke="rgb(204, 204, 204)" stroke-width="1px"></line><line x1="80.15625" y1="0" x2="80.15625" y2="5" style="visibility: inherit;" fill="rgb(0, 0, 0)" stroke="rgb(204, 204, 204)" stroke-width="1px"></line><line x1="106.875" y1="0" x2="106.875" y2="5" style="visibility: inherit;" fill="rgb(0, 0, 0)" stroke="rgb(204, 204, 204)" stroke-width="1px"></line><line x1="133.59375" y1="0" x2="133.59375" y2="5" style="visibility: inherit;" fill="rgb(0, 0, 0)" stroke="rgb(204, 204, 204)" stroke-width="1px"></line><line x1="160.3125" y1="0" x2="160.3125" y2="5" style="visibility: inherit;" fill="rgb(0, 0, 0)" stroke="rgb(204, 204, 204)" stroke-width="1px"></line><line x1="187.03125" y1="0" x2="187.03125" y2="5" style="visibility: inherit;" fill="rgb(0, 0, 0)" stroke="rgb(204, 204, 204)" stroke-width="1px"></line><line x1="213.75" y1="0" x2="213.75" y2="5" style="visibility: inherit;" fill="rgb(0, 0, 0)" stroke="rgb(204, 204, 204)" stroke-width="1px"></line><line x1="240.46875" y1="0" x2="240.46875" y2="5" style="visibility: inherit;" fill="rgb(0, 0, 0)" stroke="rgb(204, 204, 204)" stroke-width="1px"></line><line x1="267.1875" y1="0" x2="267.1875" y2="5" style="visibility: inherit;" fill="rgb(0, 0, 0)" stroke="rgb(204, 204, 204)" stroke-width="1px"></line></g><g transform="translate(0, 8)"><text x="0" y="0" dx="0em" dy="0.95em" style="text-anchor: middle; visibility: hidden; font-family: &quot;Helvetica Neue&quot;, sans-serif; font-size: 12px; font-weight: 200;" fill="rgb(50, 49, 63)" stroke="none" stroke-width="1px">-10</text><text x="26.71875" y="0" dx="0em" dy="0.95em" style="text-anchor: middle; visibility: inherit; font-family: &quot;Helvetica Neue&quot;, sans-serif; font-size: 12px; font-weight: 200;" fill="rgb(50, 49, 63)" stroke="none" stroke-width="1px">0</text><text x="53.4375" y="0" dx="0em" dy="0.95em" style="text-anchor: middle; visibility: inherit; font-family: &quot;Helvetica Neue&quot;, sans-serif; font-size: 12px; font-weight: 200;" fill="rgb(50, 49, 63)" stroke="none" stroke-width="1px">10</text><text x="80.15625" y="0" dx="0em" dy="0.95em" style="text-anchor: middle; visibility: inherit; font-family: &quot;Helvetica Neue&quot;, sans-serif; font-size: 12px; font-weight: 200;" fill="rgb(50, 49, 63)" stroke="none" stroke-width="1px">20</text><text x="106.875" y="0" dx="0em" dy="0.95em" style="text-anchor: middle; visibility: inherit; font-family: &quot;Helvetica Neue&quot;, sans-serif; font-size: 12px; font-weight: 200;" fill="rgb(50, 49, 63)" stroke="none" stroke-width="1px">30</text><text x="133.59375" y="0" dx="0em" dy="0.95em" style="text-anchor: middle; visibility: inherit; font-family: &quot;Helvetica Neue&quot;, sans-serif; font-size: 12px; font-weight: 200;" fill="rgb(50, 49, 63)" stroke="none" stroke-width="1px">40</text><text x="160.3125" y="0" dx="0em" dy="0.95em" style="text-anchor: middle; visibility: inherit; font-family: &quot;Helvetica Neue&quot;, sans-serif; font-size: 12px; font-weight: 200;" fill="rgb(50, 49, 63)" stroke="none" stroke-width="1px">50</text><text x="187.03125" y="0" dx="0em" dy="0.95em" style="text-anchor: middle; visibility: inherit; font-family: &quot;Helvetica Neue&quot;, sans-serif; font-size: 12px; font-weight: 200;" fill="rgb(50, 49, 63)" stroke="none" stroke-width="1px">60</text><text x="213.75" y="0" dx="0em" dy="0.95em" style="text-anchor: middle; visibility: inherit; font-family: &quot;Helvetica Neue&quot;, sans-serif; font-size: 12px; font-weight: 200;" fill="rgb(50, 49, 63)" stroke="none" stroke-width="1px">70</text><text x="240.46875" y="0" dx="0em" dy="0.95em" style="text-anchor: middle; visibility: inherit; font-family: &quot;Helvetica Neue&quot;, sans-serif; font-size: 12px; font-weight: 200;" fill="rgb(50, 49, 63)" stroke="none" stroke-width="1px">80</text><text x="267.1875" y="0" dx="0em" dy="0.95em" style="text-anchor: middle; visibility: hidden; font-family: &quot;Helvetica Neue&quot;, sans-serif; font-size: 12px; font-weight: 200;" fill="rgb(50, 49, 63)" stroke="none" stroke-width="1px">90</text></g><line x1="0" y1="0" x2="267.1875" y2="0" fill="rgb(0, 0, 0)" stroke="rgb(204, 204, 204)" stroke-width="1px"></line></g></g></g></g></svg>