<svg viewBox="0 0 330 200" xmlns="http://www.w3.org/2000/svg"><g><g><g><g><g><line x1="62.8125" y1="176" x2="57.8125" y2="176" style="visibility: inherit;" fill="rgb(0, 0, 0)" stroke="rgb(204, 204, 204)" stroke-width="1px"></line><line x1="62.8125" y1="164.26666666666668" x2="57.8125" y2="164.26666666666668" style="visibility: inherit;" fill="rgb(0, 0, 0)" stroke="rgb(204, 204, 204)" stroke-width="1px"></line><line x1="62.8125" y1="152.53333333333333" x2="57.8125" y2="152.53333333333333" style="visibility: inherit;" fill="rgb(0, 0, 0)" stroke="rgb(204, 204, 204)" stroke-width="1px"></line><line x1="62.8125" y1="140.8" x2="57.8125" y2="140.8" style="visibility: inherit;" fill="rgb(0, 0, 0)" stroke="rgb(204, 204, 204)" stroke-width="1px"></line><line x1="62.8125" y1="129.06666666666666" x2="57.8125" y2="129.06666666666666" style="visibility: inherit;" fill="rgb(0, 0, 0)" stroke="rgb(204, 204, 204)" stroke-width="1px"></line><line x1="62.8125" y1="117.33333333333334" x2="57.8125" y2="117.33333333333334" style="visibility: inherit;" fill="rgb(0, 0, 0)" stroke="rgb(204, 204, 204)" stroke-width="1px"></line><line x1="62.8125" y1="105.6" x2="57.8125" y2="105.6" style="visibility: inherit;" fill="rgb(0, 0, 0)" stroke="rgb(204, 204, 204)" stroke-width="1px"></line><line x1="62.8125" y1="93.86666666666666" x2="57.8125" y2="93.86666666666666" style="visibility: inherit;" fill="rgb(0, 0, 0)" stroke="rgb(204, 204, 204)" stroke-width="1px"></line><line x1="62.8125" y1="82.13333333333334" x2="57.8125" y2="82.13333333333334" style="visibility: inherit;" fill="rgb(0, 0, 0)" stroke="rgb(204, 204, 204)" stroke-width="1px"></line><line x1="62.8125" y1="70.4" x2="57.8125" y2="70.4" style="visibility: inherit;" fill="rgb(0, 0, 0)" stroke="rgb(204, 204, 204)" stroke-width="1px"></line><line x1="62.8125" y1="58.66666666666667" x2="57.8125" y2="58.66666666666667" style="visibility: inherit;" fill="rgb(0, 0, 0)" stroke="rgb(204, 204, 204)" stroke-width="1px"></line><line x1="62.8125" y1="46.93333333333334" x2="57.8125" y2="46.93333333333334" style="visibility: inherit;" fill="rgb(0, 0, 0)" stroke="rgb(204, 204, 204)" stroke-width="1px"></line><line x1="62.8125" y1="35.19999999999999" x2="57.8125" y2="35.19999999999999" style="visibility: inherit;" fill="rgb(0, 0, 0)" stroke="rgb(204, 204, 204)" stroke-width="1px"></line><line x1="62.8125" y1="23.46666666666667" x2="57.8125" y2="23.46666666666667" style="visibility: inherit;" fill="rgb(0, 0, 0)" stroke="rgb(204, 204, 204)" stroke-width="1px"></line><line x1="62.8125" y1="11.73333333333332" x2="57.8125" y2="11.73333333333332" style="visibility: inherit;" fill="rgb(0, 0, 0)" stroke="rgb(204, 204, 204)" stroke-width="1px"></line><line x1="62.8125" y1="0" x2="57.8125" y2="0" style="visibility: inherit;" fill="rgb(0, 0, 0)" stroke="rgb(204, 204, 204)" stroke-width="1px"></line></g><g transform="translate(52.8125, 0)"><text x="0" y="176" dx="0em" dy="0.3em" style="text-anchor: end; visibility: hidden; font-family: &quot;Helvetica Neue&quot;, sans-serif; font-size: 12px; font-weight: 200;" fill="rgb(50, 49, 63)" stroke="none" stroke-width="1px">0.974</text><text x="0" y="164.26666666666668" dx="0em" dy="0.3em" style="text-anchor: end; visibility: inherit; font-family: &quot;Helvetica Neue&quot;, sans-serif; font-size: 12px; font-weight: 200;" fill="rgb(50, 49, 63)" stroke="none" stroke-width="1px">0.976</text><text x="0" y="152.53333333333333" dx="0em" dy="0.3em" style="text-anchor: end; visibility: hidden; font-family: &quot;Helvetica Neue&quot;, sans-serif; font-size: 12px; font-weight: 200;" fill="rgb(50, 49, 63)" stroke="none" stroke-width="1px">0.978</text><text x="0" y="140.8" dx="0em" dy="0.3em" style="text-anchor: end; visibility: hidden; font-family: &quot;Helvetica Neue&quot;, sans-serif; font-size: 12px; font-weight: 200;" fill="rgb(50, 49, 63)" stroke="none" stroke-width="1px">0.98</text><text x="0" y="129.06666666666666" dx="0em" dy="0.3em" style="text-anchor: end; visibility: inherit; font-family: &quot;Helvetica Neue&quot;, sans-serif; font-size: 12px; font-weight: 200;" fill="rgb(50, 49, 63)" stroke="none" stroke-width="1px">0.982</text><text x="0" y="117.33333333333334" dx="0em" dy="0.3em" style="text-anchor: end; visibility: hidden; font-family: &quot;Helvetica Neue&quot;, sans-serif; font-size: 12px; font-weight: 200;" fill="rgb(50, 49, 63)" stroke="none" stroke-width="1px">0.984</text><text x="0" y="105.6" dx="0em" dy="0.3em" style="text-anchor: end; visibility: hidden; font-family: &quot;Helvetica Neue&quot;, sans-serif; font-size: 12px; font-weight: 200;" fill="rgb(50, 49, 63)" stroke="none" stroke-width="1px">0.986</text><text x="0" y="93.86666666666666" dx="0em" dy="0.3em" style="text-anchor: end; visibility: inherit; font-family: &quot;Helvetica Neue&quot;, sans-serif; font-size: 12px; font-weight: 200;" fill="rgb(50, 49, 63)" stroke="none" stroke-width="1px">0.988</text><text x="0" y="82.13333333333334" dx="0em" dy="0.3em" style="text-anchor: end; visibility: hidden; font-family: &quot;Helvetica Neue&quot;, sans-serif; font-size: 12px; font-weight: 200;" fill="rgb(50, 49, 63)" stroke="none" stroke-width="1px">0.99</text><text x="0" y="70.4" dx="0em" dy="0.3em" style="text-anchor: end; visibility: hidden; font-family: &quot;Helvetica Neue&quot;, sans-serif; font-size: 12px; font-weight: 200;" fill="rgb(50, 49, 63)" stroke="none" stroke-width="1px">0.992</text><text x="0" y="58.66666666666667" dx="0em" dy="0.3em" style="text-anchor: end; visibility: inherit; font-family: &quot;Helvetica Neue&quot;, sans-serif; font-size: 12px; font-weight: 200;" fill="rgb(50, 49, 63)" stroke="none" stroke-width="1px">0.994</text><text x="0" y="46.93333333333334" dx="0em" dy="0.3em" style="text-anchor: end; visibility: hidden; font-family: &quot;Helvetica Neue&quot;, sans-serif; font-size: 12px; font-weight: 200;" fill="rgb(50, 49, 63)" stroke="none" stroke-width="1px">0.996</text><text x="0" y="35.19999999999999" dx="0em" dy="0.3em" style="text-anchor: end; visibility: hidden; font-family: &quot;Helvetica Neue&quot;, sans-serif; font-size: 12px; font-weight: 200;" fill="rgb(50, 49, 63)" stroke="none" stroke-width="1px">0.998</text><text x="0" y="23.46666666666667" dx="0em" dy="0.3em" style="text-anchor: end; visibility: inherit; font-family: &quot;Helvetica Neue&quot;, sans-serif; font-size: 12px; font-weight: 200;" fill="rgb(50, 49, 63)" stroke="none" stroke-width="1px">1</text><text x="0" y="11.73333333333332" dx="0em" dy="0.3em" style="text-anchor: end; visibility: hidden; font-family: &quot;Helvetica Neue&quot;, sans-serif; font-size: 12px; font-weight: 200;" fill="rgb(50, 49, 63)" stroke="none" stroke-width="1px">1</text><text x="0" y="0" dx="0em" dy="0.3em" style="text-anchor: end; visibility: hidden; font-family: &quot;Helvetica Neue&quot;, sans-serif; font-size: 12px; font-weight: 200;" fill="rgb(50, 49, 63)" stroke="none" stroke-width="1px">1</text></g><line x1="62.8125" y1="0" x2="62.8125" y2="176" fill="rgb(0, 0, 0)" stroke="rgb(204, 204, 204)" stroke-width="1px"></line></g></g><g transform="translate(62, 0)" clip-path="url(#clip_0)"><clipPath id="clip_0"><rect width="267" height="176"></rect></clipPath><g><g><g><line x1="0" y1="0" x2="0" y2="176" fill="rgb(0, 0, 0)" stroke="rgb(60, 60, 60)" stroke-width="1px" opacity="0.25"></line><line x1="22.265625" y1="0" x2="22.265625" y2="176" fill="rgb(0, 0, 0)" stroke="rgb(60, 60, 60)" stroke-width="1px" opacity="0.25"></line><line x1="44.53125" y1="0" x2="44.53125" y2="176" fill="rgb(0, 0, 0)" stroke="rgb(60, 60, 60)" stroke-width="1px" opacity="0.25"></line><line x1="66.796875" y1="0" x2="66.796875" y2="176" fill="rgb(0, 0, 0)" stroke="rgb(60, 60, 60)" stroke-width="1px" opacity="0.25"></line><line x1="89.0625" y1="0" x2="89.0625" y2="176" fill="rgb(0, 0, 0)" stroke="rgb(60, 60, 60)" stroke-width="1px" opacity="0.25"></line><line x1="111.328125" y1="0" x2="111.328125" y2="176" fill="rgb(0, 0, 0)" stroke="rgb(60, 60, 60)" stroke-width="1px" opacity="0.25"></line><line x1="133.59375" y1="0" x2="133.59375" y2="176" fill="rgb(0, 0, 0)" stroke="rgb(60, 60, 60)" stroke-width="1px" opacity="0.25"></line><line x1="155.859375" y1="0" x2="155.859375" y2="176" fill="rgb(0, 0, 0)" stroke="rgb(60, 60, 60)" stroke-width="1px" opacity="0.25"></line><line x1="178.125" y1="0" x2="178.125" y2="176" fill="rgb(0, 0, 0)" stroke="rgb(60, 60, 60)" stroke-width="1px" opacity="0.25"></line><line x1="200.390625" y1="0" x2="200.390625" y2="176" fill="rgb(0, 0, 0)" stroke="rgb(60, 60, 60)" stroke-width="1px" opacity="0.25"></line><line x1="222.65625" y1="0" x2="222.65625" y2="176" fill="rgb(0, 0, 0)" stroke="rgb(60, 60, 60)" stroke-width="1px" opacity="0.25"></line><line x1="244.921875" y1="0" x2="244.921875" y2="176" fill="rgb(0, 0, 0)" stroke="rgb(60, 60, 60)" stroke-width="1px" opacity="0.25"></line><line x1="267.1875" y1="0" x2="267.1875" y2="176" fill="rgb(0, 0, 0)" stroke="rgb(60, 60, 60)" stroke-width="1px" opacity="0.25"></line></g><g><line x1="0" y1="176" x2="267.1875" y2="176" fill="rgb(0, 0, 0)" stroke="rgb(60, 60, 60)" stroke-width="1px" opacity="0.25"></line><line x1="0" y1="164.26666666666668" x2="267.1875" y2="164.26666666666668" fill="rgb(0, 0, 0)" stroke="rgb(60, 60, 60)" stroke-width="1px" opacity="0.25"></line><line x1="0" y1="152.53333333333333" x2="267.1875" y2="152.53333333333333" fill="rgb(0, 0, 0)" stroke="rgb(60, 60, 60)" stroke-width="1px" opacity="0.25"></line><line x1="0" y1="140.8" x2="267.1875" y2="140.8" fill="rgb(0, 0, 0)" stroke="rgb(60, 60, 60)" stroke-width="1px" opacity="0.25"></line><line x1="0" y1="129.06666666666666" x2="267.1875" y2="129.06666666666666" fill="rgb(0, 0, 0)" stroke="rgb(60, 60, 60)" stroke-width="1px" opacity="0.25"></line><line x1="0" y1="117.33333333333334" x2="267.1875" y2="117.33333333333334" fill="rgb(0, 0, 0)" stroke="rgb(60, 60, 60)" stroke-width="1px" opacity="0.25"></line><line x1="0" y1="105.6" x2="267.1875" y2="105.6" fill="rgb(0, 0, 0)" stroke="rgb(60, 60, 60)" stroke-width="1px" opacity="0.25"></line><line x1="0" y1="93.86666666666666" x2="267.1875" y2="93.86666666666666" fill="rgb(0, 0, 0)" stroke="rgb(60, 60, 60)" stroke-width="1px" opacity="0.25"></line><line x1="0" y1="82.13333333333334" x2="267.1875" y2="82.13333333333334" fill="rgb(0, 0, 0)" stroke="rgb(60, 60, 60)" stroke-width="1px" opacity="0.25"></line><line x1="0" y1="70.4" x2="267.1875" y2="70.4" fill="rgb(0, 0, 0)" stroke="rgb(60, 60, 60)" stroke-width="1px" opacity="0.25"></line><line x1="0" y1="58.66666666666667" x2="267.1875" y2="58.66666666666667" fill="rgb(0, 0, 0)" stroke="rgb(60, 60, 60)" stroke-width="1px" opacity="0.25"></line><line x1="0" y1="46.93333333333334" x2="267.1875" y2="46.93333333333334" fill="rgb(0, 0, 0)" stroke="rgb(60, 60, 60)" stroke-width="1px" opacity="0.25"></line><line x1="0" y1="35.19999999999999" x2="267.1875" y2="35.19999999999999" fill="rgb(0, 0, 0)" stroke="rgb(60, 60, 60)" stroke-width="1px" opacity="0.25"></line><line x1="0" y1="23.46666666666667" x2="267.1875" y2="23.46666666666667" fill="rgb(0, 0, 0)" stroke="rgb(60, 60, 60)" stroke-width="1px" opacity="0.25"></line><line x1="0" y1="11.73333333333332" x2="267.1875" y2="11.73333333333332" fill="rgb(0, 0, 0)" stroke="rgb(60, 60, 60)" stroke-width="1px" opacity="0.25"></line><line x1="0" y1="0" x2="267.1875" y2="0" fill="rgb(0, 0, 0)" stroke="rgb(60, 60, 60)" stroke-width="1px" opacity="0.25"></line></g></g></g><g><g><line x1="0" y1="5890.133333333329" x2="267.1875" y2="5890.133333333329" fill="rgb(0, 0, 0)" stroke="rgb(153, 153, 153)" stroke-width="1.5px"></line></g></g><g><g><line x1="22.265625" y1="0" x2="22.265625" y2="176" fill="rgb(0, 0, 0)" stroke="rgb(153, 153, 153)" stroke-width="1.5px"></line></g></g><g><g><g><g><g><path stroke="rgb(0, 119, 187)" stroke-width="2px" d="M22.265625,234.64821192423483L24.4921875,149.07328697840296L26.71875,124.0607999269661L28.9453125,165.28384242431858L31.171875,141.01594702257205L33.3984375,160.82781408489527L35.625,148.23120575976014L37.8515625,135.23791547599325L40.078125,124.7699696239747L42.3046875,121.35878504836242L44.53125,118.39375123764017L46.7578125,113.83069907475317L48.984375,118.5351813993218L51.2109375,136.2177764280481L53.4375,138.46010232625503L55.6640625,138.87636885190162L57.890625,149.33873502180785L60.1171875,140.76117958965492L62.34375,136.54359247464694L64.5703125,142.3679387649613L66.796875,146.7906227506942L69.0234375,142.01797670524522L71.25,128.0150565413707L73.4765625,116.82850586171324L75.703125,116.6145323113638L77.9296875,121.12753679790748L80.15625,125.69186061258998L82.3828125,130.28697720127045L84.609375,123.76142118037652L86.8359375,133.77009324282216L89.0625,120.28157909955192L91.2890625,108.47542316399976L93.515625,104.17658649748344L95.7421875,101.59728462895201L97.96875,98.193179373637L100.1953125,98.00724042662651L102.421875,96.96734504299724L104.6484375,91.7020274896451L106.875,88.54283697014719L109.1015625,89.43217882715666L111.328125,90.8941159522514L113.5546875,85.2733737637957L115.78125,86.5423087638523L118.0078125,86.37533775258531L120.234375,85.34682313484264L122.4609375,92.15595083526902L124.6875,88.81519098443478L126.9140625,88.66739909586632L129.140625,92.29177226193046L131.3671875,95.39458830021763L133.59375,92.61503748532573L135.8203125,97.44507158381977L138.046875,93.84532745549352L140.2734375,95.39852927766015L142.5,96.3304503709583L144.7265625,95.96127101603224L146.953125,95.7397634030761L149.1796875,96.53519084620721L151.40625,99.79716360033537L153.6328125,96.18477480408089L155.859375,90.30429322717468L158.0859375,91.41738459109072L160.3125,94.86995569768787L162.5390625,92.30025792382142L164.765625,91.68663139817251L166.9921875,85.7488830340531L169.21875,87.75580646431243L171.4453125,88.03176838379576L173.671875,89.12553767415804L175.8984375,86.9969430878931L178.125,85.7197863361339L180.3515625,84.95349228507915L182.578125,87.27857201492768L184.8046875,86.81709570326073L187.03125,89.32506607674158L189.2578125,91.75804043950195L191.484375,90.43310876890922L193.7109375,94.27939020437923L195.9375,89.16106246735383L198.1640625,91.65963827386918L200.390625,90.37406746952993L202.6171875,92.38744127517509L204.84375,85.24103694934982L207.0703125,83.7380505143362L209.296875,89.3341631129638L211.5234375,92.69183067214036L213.75,89.13671888668237L215.9765625,87.93198382631306L218.203125,88.13747480099588L220.4296875,91.04548567405504L222.65625,91.8621000592179L224.8828125,93.28026082898775L227.109375,90.41810899169549L229.3359375,93.34219819937924L231.5625,92.31179556350773L233.7890625,90.76536184331295L236.015625,93.55054991034946L238.2421875,95.22166275057175L240.46875,95.29599844380046L242.6953125,88.84269540010186L244.921875,89.61209388394118L247.1484375,86.36068467509111" style="fill: none;" fill="none"></path></g><g><path stroke="rgb(255, 112, 67)" stroke-width="2px" d="M24.4921875,182.71142257054632L26.71875,152.75028624242654L28.9453125,135.1040825058438L31.171875,129.60477227752168L33.3984375,117.08628826055978L35.625,111.24580215582992L37.8515625,96.82948373809414L40.078125,95.70214993315629L42.3046875,94.9282261427179L44.53125,85.58058630176976L46.7578125,79.99375404157078L48.984375,76.44076592689088L51.2109375,74.10351218273908L53.4375,70.09682651458296L55.6640625,66.44377015503996L57.890625,62.68981877243954L60.1171875,68.66779357268567L62.34375,63.399458200843384L64.5703125,59.71789908152002L66.796875,60.52993664486469L69.0234375,63.93380197553485L71.25,57.955195823489035L73.4765625,54.888949014037536L75.703125,53.986636598167706L77.9296875,53.54945578183528L80.15625,48.80801466527228L82.3828125,48.56729593568133L84.609375,47.797915424898434L86.8359375,46.91960782541639L89.0625,42.43423866897564L91.2890625,37.03467129134603L93.515625,32.54503280537284L95.7421875,30.163724428635874L97.96875,28.1098504259096L100.1953125,27.81508963483023L102.421875,27.221553777224898L104.6484375,26.24048312532173L106.875,25.443431108769317L109.1015625,24.9651998999729L111.328125,24.78246598882822L113.5546875,24.568620828545193L115.78125,24.3361089187716L118.0078125,24.19660177295097L120.234375,24.321307112774377L122.4609375,24.396130316660333L124.6875,24.23261461170233L126.9140625,24.134505188731282L129.140625,24.28404916223201L131.3671875,24.16536591904989L133.59375,24.19836078678111L135.8203125,24.113952893780635L138.046875,23.959243216573583L140.2734375,23.866417410251074L142.5,24.123196495141798L144.7265625,23.860584563751218L146.953125,23.91128715996271L149.1796875,23.837643776283613L151.40625,24.730881452130973L153.6328125,24.32940035158458L155.859375,24.088511691256997L158.0859375,24.048043436466827L160.3125,23.815492728546644L162.5390625,23.675962303794392L164.765625,23.696448862582628L166.9921875,23.812805739261165L169.21875,23.77855492386294L171.4453125,23.758004434624155L173.671875,23.849739082486877L175.8984375,23.90477987120397L178.125,23.833739403027977L180.3515625,23.79111512212279L182.578125,23.7655405535794L184.8046875,23.75019581245388L187.03125,23.63678415413898L189.2578125,23.568737159150345L191.484375,25.19462649145413L193.7109375,24.60764737517846L195.9375,24.35952484681917L198.1640625,24.106586388397773L200.390625,23.95482331334452L202.6171875,23.967830409718943L204.84375,23.975634667543346L207.0703125,23.87625228083175L209.296875,23.816622848805167L211.5234375,23.780845189589343L213.75,23.65517378042003L215.9765625,23.683975748558254L218.203125,23.701256929440802L220.4296875,23.607420824330887L222.65625,23.65532397490466L224.8828125,25.454848335951908L227.109375,24.659575668237693L229.3359375,24.18241206760942L231.5625,24.00031872087149L233.7890625,23.891062712828642L236.015625,23.82550910800302L238.2421875,23.786176945107684L240.46875,24.595936412018773L242.6953125,24.24843332751712L244.921875,24.769085427825246L247.1484375,24.352322737001288" style="fill: none;" fill="none"></path></g></g></g></g><g opacity="0.2"><g><g><g><path stroke="rgb(0, 119, 187)" stroke-width="2px" d="M22.265625,234.64821192423483L24.4921875,97.72833201090488L26.71875,100.04881235758457L28.9453125,213.76214040120425L31.171875,109.33178278605136L33.3984375,188.23475850423162L35.625,130.21785430908193L37.8515625,116.29357350667308L40.078125,109.33178278605136L42.3046875,116.29357350667308L44.53125,113.97309315999341L46.7578125,107.01095275878899L48.984375,125.57654393513988L51.2109375,162.70702692667632L53.4375,141.8209554036457L55.6640625,139.50047505696605L57.890625,165.02785695393868L60.1171875,127.89702428181957L62.34375,130.21785430908193L64.5703125,151.1039258321125L66.796875,153.4244061787922L69.0234375,134.859164683024L71.25,107.01095275878899L73.4765625,100.04881235758457L75.703125,116.29357350667308L77.9296875,127.89702428181957L80.15625,132.53833465576162L82.3828125,137.17964502970366L84.609375,113.97309315999341L86.8359375,148.78309580485015L89.0625,100.04881235758457L91.2890625,90.76619160970046L93.515625,97.72833201090488L95.7421875,97.72833201090488L97.96875,93.08702163696283L100.1953125,97.72833201090488L102.421875,95.40750198364252L104.6484375,83.80405120849605L106.875,83.80405120849605L109.1015625,90.76619160970046L111.328125,93.08702163696283L113.5546875,76.84226048787431L115.78125,88.44571126302077L118.0078125,86.1248812357584L120.234375,83.80405120849605L122.4609375,102.36964238484694L124.6875,83.80405120849605L126.9140625,88.44571126302077L129.140625,97.72833201090488L131.3671875,100.04881235758457L133.59375,88.44571126302077L135.8203125,104.69012273152661L138.046875,88.44571126302077L140.2734375,97.72833201090488L142.5,97.72833201090488L144.7265625,95.40750198364252L146.953125,95.40750198364252L149.1796875,97.72833201090488L151.40625,104.69012273152661L153.6328125,90.76619160970046L155.859375,81.48357086181636L158.0859375,93.08702163696283L160.3125,100.04881235758457L162.5390625,88.44571126302077L164.765625,90.76619160970046L166.9921875,76.84226048787431L169.21875,90.76619160970046L171.4453125,88.44571126302077L173.671875,90.76619160970046L175.8984375,83.80405120849605L178.125,83.80405120849605L180.3515625,83.80405120849605L182.578125,90.76619160970046L184.8046875,86.1248812357584L187.03125,93.08702163696283L189.2578125,95.40750198364252L191.484375,88.44571126302077L193.7109375,100.04881235758457L195.9375,81.48357086181636L198.1640625,95.40750198364252L200.390625,88.44571126302077L202.6171875,95.40750198364252L204.84375,74.52143046061194L207.0703125,81.48357086181636L209.296875,97.72833201090488L211.5234375,97.72833201090488L213.75,83.80405120849605L215.9765625,86.1248812357584L218.203125,88.44571126302077L220.4296875,95.40750198364252L222.65625,93.08702163696283L224.8828125,95.40750198364252L227.109375,86.1248812357584L229.3359375,97.72833201090488L231.5625,90.76619160970046L233.7890625,88.44571126302077L236.015625,97.72833201090488L238.2421875,97.72833201090488L240.46875,95.40750198364252L242.6953125,79.16274083455397L244.921875,90.76619160970046L247.1484375,81.48357086181636" style="fill: none;" fill="none"></path></g><g><path stroke="rgb(255, 112, 67)" stroke-width="2px" d="M22.265625,223.72698796590151L24.4921875,158.1020833333332L26.71875,123.98759536743155L28.9453125,114.35214691162102L31.171875,122.4248728434244L33.3984375,99.76871821085605L35.625,102.89381357828769L37.8515625,75.81035308837886L40.078125,94.0395515441894L42.3046875,93.77903951009108L44.53125,71.64390894571936L46.7578125,71.64390894571936L48.984375,71.12288487752275L51.2109375,70.60221048990881L53.4375,64.09150772094723L55.6640625,60.96676203409828L57.890625,57.06048024495439L60.1171875,77.63323796590163L62.34375,55.497757720947234L64.5703125,54.19589691162106L66.796875,61.747948455810516L69.0234375,69.03948796590166L71.25,48.98740463256833L73.4765625,50.28961512247719L75.703125,52.633174387613906L77.9296875,52.89368642171222L80.15625,41.69586512247719L82.3828125,48.20621821085609L84.609375,46.643845367431624L86.8359375,45.60214691162108L89.0625,35.70618642171223L91.2890625,28.935321299235028L93.515625,25.81057561238606L95.7421875,26.59176203409831L97.96875,25.02903951009114L100.1953125,27.37294845581053L102.421875,26.331249999999983L104.6484375,24.768877156575513L106.875,24.247853088378918L109.1015625,24.247853088378918L111.328125,24.508365122477215L113.5546875,24.247853088378918L115.78125,23.98734105428059L118.0078125,23.98734105428059L120.234375,24.508365122477215L122.4609375,24.508365122477215L124.6875,23.98734105428059L126.9140625,23.98734105428059L129.140625,24.508365122477215L131.3671875,23.98734105428059L133.59375,24.247853088378918L135.8203125,23.98734105428059L138.046875,23.727178700764966L140.2734375,23.727178700764966L142.5,24.508365122477215L144.7265625,23.46666666666667L146.953125,23.98734105428059L149.1796875,23.727178700764966L151.40625,26.070737965901685L153.6328125,23.727178700764966L155.859375,23.727178700764966L158.0859375,23.98734105428059L160.3125,23.46666666666667L162.5390625,23.46666666666667L164.765625,23.727178700764966L166.9921875,23.98734105428059L169.21875,23.727178700764966L171.4453125,23.727178700764966L173.671875,23.98734105428059L175.8984375,23.98734105428059L178.125,23.727178700764966L180.3515625,23.727178700764966L182.578125,23.727178700764966L184.8046875,23.727178700764966L187.03125,23.46666666666667L189.2578125,23.46666666666667L191.484375,27.633460489908856L193.7109375,23.727178700764966L195.9375,23.98734105428059L198.1640625,23.727178700764966L200.390625,23.727178700764966L202.6171875,23.98734105428059L204.84375,23.98734105428059L207.0703125,23.727178700764966L209.296875,23.727178700764966L211.5234375,23.727178700764966L213.75,23.46666666666667L215.9765625,23.727178700764966L218.203125,23.727178700764966L220.4296875,23.46666666666667L222.65625,23.727178700764966L224.8828125,28.15413487752278L227.109375,23.46666666666667L229.3359375,23.46666666666667L231.5625,23.727178700764966L233.7890625,23.727178700764966L236.015625,23.727178700764966L238.2421875,23.727178700764966L240.46875,25.81057561238606L242.6953125,23.727178700764966L244.921875,25.550063578287762L247.1484375,23.727178700764966" style="fill: none;" fill="none"></path></g></g></g></g></g></g><g transform="translate(62, 176)" clip-path="url(#clip_1)"><clipPath id="clip_1"><rect width="267" height="24"></rect></clipPath><g><g><line x1="0" y1="0" x2="0" y2="5" style="visibility: inherit;" fill="rgb(0, 0, 0)" stroke="rgb(204, 204, 204)" stroke-width="1px"></line><line x1="22.265625" y1="0" x2="22.265625" y2="5" style="visibility: inherit;" fill="rgb(0, 0, 0)" stroke="rgb(204, 204, 204)" stroke-width="1px"></line><line x1="44.53125" y1="0" x2="44.53125" y2="5" style="visibility: inherit;" fill="rgb(0, 0, 0)" stroke="rgb(204, 204, 204)" stroke-width="1px"></line><line x1="66.796875" y1="0" x2="66.796875" y2="5" style="visibility: inherit;" fill="rgb(0, 0, 0)" stroke="rgb(204, 204, 204)" stroke-width="1px"></line><line x1="89.0625" y1="0" x2="89.0625" y2="5" style="visibility: inherit;" fill="rgb(0, 0, 0)" stroke="rgb(204, 204, 204)" stroke-width="1px"></line><line x1="111.328125" y1="0" x2="111.328125" y2="5" style="visibility: inherit;" fill="rgb(0, 0, 0)" stroke="rgb(204, 204, 204)" stroke-width="1px"></line><line x1="133.59375" y1="0" x2="133.59375" y2="5" style="visibility: inherit;" fill="rgb(0, 0, 0)" stroke="rgb(204, 204, 204)" stroke-width="1px"></line><line x1="155.859375" y1="0" x2="155.859375" y2="5" style="visibility: inherit;" fill="rgb(0, 0, 0)" stroke="rgb(204, 204, 204)" stroke-width="1px"></line><line x1="178.125" y1="0" x2="178.125" y2="5" style="visibility: inherit;" fill="rgb(0, 0, 0)" stroke="rgb(204, 204, 204)" stroke-width="1px"></line><line x1="200.390625" y1="0" x2="200.390625" y2="5" style="visibility: inherit;" fill="rgb(0, 0, 0)" stroke="rgb(204, 204, 204)" stroke-width="1px"></line><line x1="222.65625" y1="0" x2="222.65625" y2="5" style="visibility: inherit;" fill="rgb(0, 0, 0)" stroke="rgb(204, 204, 204)" stroke-width="1px"></line><line x1="244.921875" y1="0" x2="244.921875" y2="5" style="visibility: inherit;" fill="rgb(0, 0, 0)" stroke="rgb(204, 204, 204)" stroke-width="1px"></line><line x1="267.1875" y1="0" x2="267.1875" y2="5" style="visibility: inherit;" fill="rgb(0, 0, 0)" stroke="rgb(204, 204, 204)" stroke-width="1px"></line></g><g transform="translate(0, 8)"><text x="0" y="0" dx="0em" dy="0.95em" style="text-anchor: middle; visibility: hidden; font-family: &quot;Helvetica Neue&quot;, sans-serif; font-size: 12px; font-weight: 200;" fill="rgb(50, 49, 63)" stroke="none" stroke-width="1px">-10</text><text x="22.265625" y="0" dx="0em" dy="0.95em" style="text-anchor: middle; visibility: inherit; font-family: &quot;Helvetica Neue&quot;, sans-serif; font-size: 12px; font-weight: 200;" fill="rgb(50, 49, 63)" stroke="none" stroke-width="1px">0</text><text x="44.53125" y="0" dx="0em" dy="0.95em" style="text-anchor: middle; visibility: inherit; font-family: &quot;Helvetica Neue&quot;, sans-serif; font-size: 12px; font-weight: 200;" fill="rgb(50, 49, 63)" stroke="none" stroke-width="1px">10</text><text x="66.796875" y="0" dx="0em" dy="0.95em" style="text-anchor: middle; visibility: inherit; font-family: &quot;Helvetica Neue&quot;, sans-serif; font-size: 12px; font-weight: 200;" fill="rgb(50, 49, 63)" stroke="none" stroke-width="1px">20</text><text x="89.0625" y="0" dx="0em" dy="0.95em" style="text-anchor: middle; visibility: inherit; font-family: &quot;Helvetica Neue&quot;, sans-serif; font-size: 12px; font-weight: 200;" fill="rgb(50, 49, 63)" stroke="none" stroke-width="1px">30</text><text x="111.328125" y="0" dx="0em" dy="0.95em" style="text-anchor: middle; visibility: inherit; font-family: &quot;Helvetica Neue&quot;, sans-serif; font-size: 12px; font-weight: 200;" fill="rgb(50, 49, 63)" stroke="none" stroke-width="1px">40</text><text x="133.59375" y="0" dx="0em" dy="0.95em" style="text-anchor: middle; visibility: inherit; font-family: &quot;Helvetica Neue&quot;, sans-serif; font-size: 12px; font-weight: 200;" fill="rgb(50, 49, 63)" stroke="none" stroke-width="1px">50</text><text x="155.859375" y="0" dx="0em" dy="0.95em" style="text-anchor: middle; visibility: inherit; font-family: &quot;Helvetica Neue&quot;, sans-serif; font-size: 12px; font-weight: 200;" fill="rgb(50, 49, 63)" stroke="none" stroke-width="1px">60</text><text x="178.125" y="0" dx="0em" dy="0.95em" style="text-anchor: middle; visibility: inherit; font-family: &quot;Helvetica Neue&quot;, sans-serif; font-size: 12px; font-weight: 200;" fill="rgb(50, 49, 63)" stroke="none" stroke-width="1px">70</text><text x="200.390625" y="0" dx="0em" dy="0.95em" style="text-anchor: middle; visibility: inherit; font-family: &quot;Helvetica Neue&quot;, sans-serif; font-size: 12px; font-weight: 200;" fill="rgb(50, 49, 63)" stroke="none" stroke-width="1px">80</text><text x="222.65625" y="0" dx="0em" dy="0.95em" style="text-anchor: middle; visibility: inherit; font-family: &quot;Helvetica Neue&quot;, sans-serif; font-size: 12px; font-weight: 200;" fill="rgb(50, 49, 63)" stroke="none" stroke-width="1px">90</text><text x="244.921875" y="0" dx="0em" dy="0.95em" style="text-anchor: middle; visibility: inherit; font-family: &quot;Helvetica Neue&quot;, sans-serif; font-size: 12px; font-weight: 200;" fill="rgb(50, 49, 63)" stroke="none" stroke-width="1px">100</text><text x="267.1875" y="0" dx="0em" dy="0.95em" style="text-anchor: middle; visibility: hidden; font-family: &quot;Helvetica Neue&quot;, sans-serif; font-size: 12px; font-weight: 200;" fill="rgb(50, 49, 63)" stroke="none" stroke-width="1px">110</text></g><line x1="0" y1="0" x2="267.1875" y2="0" fill="rgb(0, 0, 0)" stroke="rgb(204, 204, 204)" stroke-width="1px"></line></g></g></g></g></svg>