<svg viewBox="0 0 330 200" xmlns="http://www.w3.org/2000/svg"><g><g><g><g><g><line x1="62.8125" y1="176" x2="57.8125" y2="176" style="visibility: inherit;" fill="rgb(0, 0, 0)" stroke="rgb(204, 204, 204)" stroke-width="1px"></line><line x1="62.8125" y1="154" x2="57.8125" y2="154" style="visibility: inherit;" fill="rgb(0, 0, 0)" stroke="rgb(204, 204, 204)" stroke-width="1px"></line><line x1="62.8125" y1="132" x2="57.8125" y2="132" style="visibility: inherit;" fill="rgb(0, 0, 0)" stroke="rgb(204, 204, 204)" stroke-width="1px"></line><line x1="62.8125" y1="110" x2="57.8125" y2="110" style="visibility: inherit;" fill="rgb(0, 0, 0)" stroke="rgb(204, 204, 204)" stroke-width="1px"></line><line x1="62.8125" y1="88" x2="57.8125" y2="88" style="visibility: inherit;" fill="rgb(0, 0, 0)" stroke="rgb(204, 204, 204)" stroke-width="1px"></line><line x1="62.8125" y1="66" x2="57.8125" y2="66" style="visibility: inherit;" fill="rgb(0, 0, 0)" stroke="rgb(204, 204, 204)" stroke-width="1px"></line><line x1="62.8125" y1="44" x2="57.8125" y2="44" style="visibility: inherit;" fill="rgb(0, 0, 0)" stroke="rgb(204, 204, 204)" stroke-width="1px"></line><line x1="62.8125" y1="22.000000000000483" x2="57.8125" y2="22.000000000000483" style="visibility: inherit;" fill="rgb(0, 0, 0)" stroke="rgb(204, 204, 204)" stroke-width="1px"></line><line x1="62.8125" y1="0" x2="57.8125" y2="0" style="visibility: inherit;" fill="rgb(0, 0, 0)" stroke="rgb(204, 204, 204)" stroke-width="1px"></line></g><g transform="translate(52.8125, 0)"><text x="0" y="176" dx="0em" dy="0.3em" style="text-anchor: end; visibility: hidden; font-family: &quot;Helvetica Neue&quot;, sans-serif; font-size: 12px; font-weight: 200;" fill="rgb(50, 49, 63)" stroke="none" stroke-width="1px">0.97</text><text x="0" y="154" dx="0em" dy="0.3em" style="text-anchor: end; visibility: inherit; font-family: &quot;Helvetica Neue&quot;, sans-serif; font-size: 12px; font-weight: 200;" fill="rgb(50, 49, 63)" stroke="none" stroke-width="1px">0.975</text><text x="0" y="132" dx="0em" dy="0.3em" style="text-anchor: end; visibility: hidden; font-family: &quot;Helvetica Neue&quot;, sans-serif; font-size: 12px; font-weight: 200;" fill="rgb(50, 49, 63)" stroke="none" stroke-width="1px">0.98</text><text x="0" y="110" dx="0em" dy="0.3em" style="text-anchor: end; visibility: inherit; font-family: &quot;Helvetica Neue&quot;, sans-serif; font-size: 12px; font-weight: 200;" fill="rgb(50, 49, 63)" stroke="none" stroke-width="1px">0.985</text><text x="0" y="88" dx="0em" dy="0.3em" style="text-anchor: end; visibility: hidden; font-family: &quot;Helvetica Neue&quot;, sans-serif; font-size: 12px; font-weight: 200;" fill="rgb(50, 49, 63)" stroke="none" stroke-width="1px">0.99</text><text x="0" y="66" dx="0em" dy="0.3em" style="text-anchor: end; visibility: inherit; font-family: &quot;Helvetica Neue&quot;, sans-serif; font-size: 12px; font-weight: 200;" fill="rgb(50, 49, 63)" stroke="none" stroke-width="1px">0.995</text><text x="0" y="44" dx="0em" dy="0.3em" style="text-anchor: end; visibility: hidden; font-family: &quot;Helvetica Neue&quot;, sans-serif; font-size: 12px; font-weight: 200;" fill="rgb(50, 49, 63)" stroke="none" stroke-width="1px">1</text><text x="0" y="22.000000000000483" dx="0em" dy="0.3em" style="text-anchor: end; visibility: inherit; font-family: &quot;Helvetica Neue&quot;, sans-serif; font-size: 12px; font-weight: 200;" fill="rgb(50, 49, 63)" stroke="none" stroke-width="1px">1</text><text x="0" y="0" dx="0em" dy="0.3em" style="text-anchor: end; visibility: hidden; font-family: &quot;Helvetica Neue&quot;, sans-serif; font-size: 12px; font-weight: 200;" fill="rgb(50, 49, 63)" stroke="none" stroke-width="1px">1.01</text></g><line x1="62.8125" y1="0" x2="62.8125" y2="176" fill="rgb(0, 0, 0)" stroke="rgb(204, 204, 204)" stroke-width="1px"></line></g></g><g transform="translate(62, 0)" clip-path="url(#clip_0)"><clipPath id="clip_0"><rect width="267" height="176"></rect></clipPath><g><g><g><line x1="0" y1="0" x2="0" y2="176" fill="rgb(0, 0, 0)" stroke="rgb(60, 60, 60)" stroke-width="1px" opacity="0.25"></line><line x1="26.71875" y1="0" x2="26.71875" y2="176" fill="rgb(0, 0, 0)" stroke="rgb(60, 60, 60)" stroke-width="1px" opacity="0.25"></line><line x1="53.4375" y1="0" x2="53.4375" y2="176" fill="rgb(0, 0, 0)" stroke="rgb(60, 60, 60)" stroke-width="1px" opacity="0.25"></line><line x1="80.15625" y1="0" x2="80.15625" y2="176" fill="rgb(0, 0, 0)" stroke="rgb(60, 60, 60)" stroke-width="1px" opacity="0.25"></line><line x1="106.875" y1="0" x2="106.875" y2="176" fill="rgb(0, 0, 0)" stroke="rgb(60, 60, 60)" stroke-width="1px" opacity="0.25"></line><line x1="133.59375" y1="0" x2="133.59375" y2="176" fill="rgb(0, 0, 0)" stroke="rgb(60, 60, 60)" stroke-width="1px" opacity="0.25"></line><line x1="160.3125" y1="0" x2="160.3125" y2="176" fill="rgb(0, 0, 0)" stroke="rgb(60, 60, 60)" stroke-width="1px" opacity="0.25"></line><line x1="187.03125" y1="0" x2="187.03125" y2="176" fill="rgb(0, 0, 0)" stroke="rgb(60, 60, 60)" stroke-width="1px" opacity="0.25"></line><line x1="213.75" y1="0" x2="213.75" y2="176" fill="rgb(0, 0, 0)" stroke="rgb(60, 60, 60)" stroke-width="1px" opacity="0.25"></line><line x1="240.46875" y1="0" x2="240.46875" y2="176" fill="rgb(0, 0, 0)" stroke="rgb(60, 60, 60)" stroke-width="1px" opacity="0.25"></line><line x1="267.1875" y1="0" x2="267.1875" y2="176" fill="rgb(0, 0, 0)" stroke="rgb(60, 60, 60)" stroke-width="1px" opacity="0.25"></line></g><g><line x1="0" y1="176" x2="267.1875" y2="176" fill="rgb(0, 0, 0)" stroke="rgb(60, 60, 60)" stroke-width="1px" opacity="0.25"></line><line x1="0" y1="154" x2="267.1875" y2="154" fill="rgb(0, 0, 0)" stroke="rgb(60, 60, 60)" stroke-width="1px" opacity="0.25"></line><line x1="0" y1="132" x2="267.1875" y2="132" fill="rgb(0, 0, 0)" stroke="rgb(60, 60, 60)" stroke-width="1px" opacity="0.25"></line><line x1="0" y1="110" x2="267.1875" y2="110" fill="rgb(0, 0, 0)" stroke="rgb(60, 60, 60)" stroke-width="1px" opacity="0.25"></line><line x1="0" y1="88" x2="267.1875" y2="88" fill="rgb(0, 0, 0)" stroke="rgb(60, 60, 60)" stroke-width="1px" opacity="0.25"></line><line x1="0" y1="66" x2="267.1875" y2="66" fill="rgb(0, 0, 0)" stroke="rgb(60, 60, 60)" stroke-width="1px" opacity="0.25"></line><line x1="0" y1="44" x2="267.1875" y2="44" fill="rgb(0, 0, 0)" stroke="rgb(60, 60, 60)" stroke-width="1px" opacity="0.25"></line><line x1="0" y1="22.000000000000483" x2="267.1875" y2="22.000000000000483" fill="rgb(0, 0, 0)" stroke="rgb(60, 60, 60)" stroke-width="1px" opacity="0.25"></line><line x1="0" y1="0" x2="267.1875" y2="0" fill="rgb(0, 0, 0)" stroke="rgb(60, 60, 60)" stroke-width="1px" opacity="0.25"></line></g></g></g><g><g><line x1="0" y1="4443.999999999996" x2="267.1875" y2="4443.999999999996" fill="rgb(0, 0, 0)" stroke="rgb(153, 153, 153)" stroke-width="1.5px"></line></g></g><g><g><line x1="26.71875" y1="0" x2="26.71875" y2="176" fill="rgb(0, 0, 0)" stroke="rgb(153, 153, 153)" stroke-width="1.5px"></line></g></g><g><g><g><g><g><path stroke="rgb(187, 187, 187)" stroke-width="2px" d="M26.71875,164.3124999999999L29.390625,144.9765297174448L32.0625,139.05735514115236L34.734375,135.65616017930606L37.40625000000001,133.17582526461746L40.078125,130.37483304668555L42.75,128.07294059051546L45.421875,135.12466427186666L48.09375,148.3076315185756L50.765625,140.9148777561325L53.4375,140.64800039212992L56.109375,134.28743368518803L58.78125,124.97275262953036L61.453125,123.52001315056879L64.125,125.40035003484047L66.796875,151.28501236864037L69.46875,142.05690344894415L72.140625,135.8335310047653L74.81250000000001,136.91268436212002L77.484375,136.18510499665223L80.15625,135.061017358102L82.828125,125.44894193741676L85.5,127.93192673300157L88.171875,128.04661462156622L90.84375,125.36546115034238L93.515625,129.25680430896145L96.1875,132.966586382303L98.859375,137.25497544369168L101.53125,133.64044197274634L104.203125,136.28430772980727L106.875,129.6205417923038L109.546875,122.87232453831443L112.21875,122.2608946937913L114.890625,124.64399492288368L117.5625,121.26137591474537L120.234375,115.79430451162264L122.90625,113.88904073351227L125.57812499999999,112.05844541414515L128.25,113.0226092123058L130.921875,113.60110748982648L133.59375,109.8231644908659L136.265625,112.36887771490962L138.9375,110.45880564755927L141.609375,108.62532534988785L144.28125,113.02515324871999L146.953125,112.2275499875127L149.62500000000003,111.06155097329919L152.296875,111.04938862230956L154.96875,111.04209121171598L157.640625,111.03771276535936L160.3125,109.66010667837408L162.984375,109.5210849878589L165.65625,109.43767197355018L168.328125,104.57514514579542L171,104.40758708747752L173.671875,107.74455225248717L176.34375,106.30923135149247L179.015625,104.07305979173015L181.6875,104.10633587503777L184.35937499999997,105.50128054418816L187.03125,108.40076832651317L189.703125,108.76548197674313L192.375,106.92178918604566L195.046875,105.81557351162786L197.71875,101.714344106977L200.390625,104.75362744502122L203.0625,103.8271345053433L205.734375,99.83373874153622L208.40625,101.56274324492172L211.078125,103.28768790862264L213.75,105.69763372600862L216.42187500000003,105.76862219727506L219.09375,107.8736313566948L221.765625,111.19915783318238L224.4375,109.06953666157943L227.109375,107.10422199694793L229.78125,105.23749123649901L232.453125,106.17997376106442L235.125,103.9955052374737L237.796875,104.74734510415401" style="fill: none;" fill="none"></path></g><g><path stroke="rgb(0, 153, 136)" stroke-width="2px" d="M26.71875,191.0704078674315L29.390625,145.78229212760917L32.0625,121.8872553183106L34.734375,106.51833719365746L37.40625000000001,91.24332212491814L40.078125,85.5162830008343L42.75,80.80925308793124L45.421875,75.03369735882879L48.09375,70.78044225639205L50.765625,66.60551160795357L53.4375,67.41001382209392L56.109375,65.15044563164548L58.78125,62.15511480579109L61.453125,59.81312767832543L64.125,60.91025792442041L66.796875,60.55234192958844L69.46875,58.6966779088509L72.140625,57.48800804680715L74.81250000000001,56.8583533124864L77.484375,58.199397871233074L80.15625,58.379065347812755L82.828125,57.29754902753989L85.5,56.74411189889098L88.171875,56.41205241893748L90.84375,57.54101327125956L93.515625,57.12465493624012L96.1875,53.90604920427489L98.859375,53.38112920021479L101.53125,54.94113041120575L104.203125,55.56472606830026L106.875,53.43880674875986L109.546875,50.600812433618714L112.21875,48.66366005138417L114.890625,47.65757100200531L117.5625,46.350744895022416L120.234375,45.80111007831698L122.90625,45.39317558120831L125.57812499999999,45.22656849507851L128.25,44.892143412586734L130.921875,44.691488363567544L133.59375,44.571095334328675L136.265625,44.577013127113304L138.9375,44.42436148645342L141.609375,44.4108192081537L144.28125,44.24649152487473L146.953125,44.22604852515366L149.62500000000003,44.21378272532081L152.296875,44.20642324542149L154.96875,44.20200755748269L157.640625,44.277406850774184L160.3125,44.16644411046411L162.984375,44.099866466278655L165.65625,44.13807348999612L168.328125,44.160997704227356L171,44.17475223276571L173.671875,44.2610536559433L176.34375,44.23478580379549L179.015625,44.219025092506484L181.6875,44.13141505550388L184.35937499999997,44.07884903330253L187.03125,44.04730941998133L189.703125,44.0283856519888L192.375,44.01703139119317L195.046875,44.01021883471611L197.71875,44.006131300829765L200.390625,44.00367878049755L203.0625,44.08036087852852L205.734375,44.04821652711732L208.40625,44.02892991627047L211.078125,44.0173579497619L213.75,44.01041476985725L216.42187500000003,44.00624886191454L219.09375,44.00374931714853L221.765625,44.00224959028961L224.4375,44.00134975417376L227.109375,44.00080985250426L229.78125,44.000485911502466L232.453125,44.000291546901366L235.125,44.00017492814072L237.796875,44.00010495688434" style="fill: none;" fill="none"></path></g></g></g></g><g opacity="0.2"><g><g><g><path stroke="rgb(187, 187, 187)" stroke-width="2px" d="M26.71875,164.3124999999999L29.390625,133.3749475479125L32.0625,133.3749475479125L34.734375,131.65635490417472L37.40625000000001,129.93749999999991L40.078125,126.50005245208732L42.75,124.78119754791253L45.421875,145.4061450958251L48.09375,167.74994754791248L50.765625,129.93749999999991L53.4375,140.25010490417472L56.109375,124.78119754791253L58.78125,111.03114509582514L61.453125,121.34374999999993L64.125,128.2186450958251L66.796875,190.09374999999986L69.46875,128.2186450958251L72.140625,126.50005245208732L74.81250000000001,138.53124999999991L77.484375,135.09380245208732L80.15625,133.3749475479125L82.828125,111.03114509582514L85.5,131.65635490417472L88.171875,128.2186450958251L90.84375,121.34374999999993L93.515625,135.09380245208732L96.1875,138.53124999999991L98.859375,143.68755245208732L101.53125,128.2186450958251L104.203125,140.25010490417472L106.875,119.62489509582512L109.546875,112.74999999999994L112.21875,121.34374999999993L114.890625,128.2186450958251L117.5625,116.18744754791253L120.234375,107.59369754791254L122.90625,111.03114509582514L125.57812499999999,109.31255245208735L128.25,114.46885490417475L130.921875,114.46885490417475L133.59375,104.15624999999996L136.265625,116.18744754791253L138.9375,107.59369754791254L141.609375,105.87510490417475L144.28125,119.62489509582512L146.953125,111.03114509582514L149.62500000000003,109.31255245208735L152.296875,111.03114509582514L154.96875,111.03114509582514L157.640625,111.03114509582514L160.3125,107.59369754791254L162.984375,109.31255245208735L165.65625,109.31255245208735L168.328125,97.28135490417476L171,104.15624999999996L173.671875,112.74999999999994L176.34375,104.15624999999996L179.015625,100.71880245208736L181.6875,104.15624999999996L184.35937499999997,107.59369754791254L187.03125,112.74999999999994L189.703125,109.31255245208735L192.375,104.15624999999996L195.046875,104.15624999999996L197.71875,95.56249999999996L200.390625,109.31255245208735L203.0625,102.43739509582515L205.734375,93.84364509582515L208.40625,104.15624999999996L211.078125,105.87510490417475L213.75,109.31255245208735L216.42187500000003,105.87510490417475L219.09375,111.03114509582514L221.765625,116.18744754791253L224.4375,105.87510490417475L227.109375,104.15624999999996L229.78125,102.43739509582515L232.453125,107.59369754791254L235.125,100.71880245208736L237.796875,105.87510490417475" style="fill: none;" fill="none"></path></g><g><path stroke="rgb(0, 153, 136)" stroke-width="2px" d="M26.71875,191.0704078674315L29.390625,118.60942268371575L32.0625,98.94801998138423L34.734375,88.4444894790649L37.40625000000001,71.30026245117186L40.078125,77.59372615814205L42.75,74.07812499999999L45.421875,66.61288166046141L48.09375,64.50771713256835L50.765625,60.406226158142076L53.4375,68.60947036743163L56.109375,61.773389816284165L58.78125,57.671898841857896L61.453125,56.304735183715806L64.125,62.554663658142076L66.796875,60.015720367431626L69.46875,55.913967132568345L72.140625,55.67531013488768L74.81250000000001,55.913967132568345L77.484375,60.210842132568345L80.15625,58.64855670928954L82.828125,55.67531013488768L85.5,55.913967132568345L88.171875,55.913967132568345L90.84375,59.234446525573716L93.515625,56.50011920928954L96.1875,49.07814884185791L98.859375,52.59375L101.53125,57.281130790710435L104.203125,56.50011920928954L106.875,50.24992847442627L109.546875,46.34382152557373L112.21875,45.75793170928955L114.890625,46.1484375L117.5625,44.39050579071045L120.234375,44.97665786743164L122.90625,44.78127384185791L125.57812499999999,44.97665786743164L128.25,44.39050579071045L130.921875,44.39050579071045L133.59375,44.39050579071045L136.265625,44.58588981628418L138.9375,44.19538402557373L141.609375,44.39050579071045L144.28125,44L146.953125,44.19538402557373L149.62500000000003,44.19538402557373L152.296875,44.19538402557373L154.96875,44.19538402557373L157.640625,44.39050579071045L160.3125,44L162.984375,44L165.65625,44.19538402557373L168.328125,44.19538402557373L171,44.19538402557373L173.671875,44.39050579071045L176.34375,44.19538402557373L179.015625,44.19538402557373L181.6875,44L184.35937499999997,44L187.03125,44L189.703125,44L192.375,44L195.046875,44L197.71875,44L200.390625,44L203.0625,44.19538402557373L205.734375,44L208.40625,44L211.078125,44L213.75,44L216.42187500000003,44L219.09375,44L221.765625,44L224.4375,44L227.109375,44L229.78125,44L232.453125,44L235.125,44L237.796875,44" style="fill: none;" fill="none"></path></g></g></g></g></g></g><g transform="translate(62, 176)" clip-path="url(#clip_1)"><clipPath id="clip_1"><rect width="267" height="24"></rect></clipPath><g><g><line x1="0" y1="0" x2="0" y2="5" style="visibility: inherit;" fill="rgb(0, 0, 0)" stroke="rgb(204, 204, 204)" stroke-width="1px"></line><line x1="26.71875" y1="0" x2="26.71875" y2="5" style="visibility: inherit;" fill="rgb(0, 0, 0)" stroke="rgb(204, 204, 204)" stroke-width="1px"></line><line x1="53.4375" y1="0" x2="53.4375" y2="5" style="visibility: inherit;" fill="rgb(0, 0, 0)" stroke="rgb(204, 204, 204)" stroke-width="1px"></line><line x1="80.15625" y1="0" x2="80.15625" y2="5" style="visibility: inherit;" fill="rgb(0, 0, 0)" stroke="rgb(204, 204, 204)" stroke-width="1px"></line><line x1="106.875" y1="0" x2="106.875" y2="5" style="visibility: inherit;" fill="rgb(0, 0, 0)" stroke="rgb(204, 204, 204)" stroke-width="1px"></line><line x1="133.59375" y1="0" x2="133.59375" y2="5" style="visibility: inherit;" fill="rgb(0, 0, 0)" stroke="rgb(204, 204, 204)" stroke-width="1px"></line><line x1="160.3125" y1="0" x2="160.3125" y2="5" style="visibility: inherit;" fill="rgb(0, 0, 0)" stroke="rgb(204, 204, 204)" stroke-width="1px"></line><line x1="187.03125" y1="0" x2="187.03125" y2="5" style="visibility: inherit;" fill="rgb(0, 0, 0)" stroke="rgb(204, 204, 204)" stroke-width="1px"></line><line x1="213.75" y1="0" x2="213.75" y2="5" style="visibility: inherit;" fill="rgb(0, 0, 0)" stroke="rgb(204, 204, 204)" stroke-width="1px"></line><line x1="240.46875" y1="0" x2="240.46875" y2="5" style="visibility: inherit;" fill="rgb(0, 0, 0)" stroke="rgb(204, 204, 204)" stroke-width="1px"></line><line x1="267.1875" y1="0" x2="267.1875" y2="5" style="visibility: inherit;" fill="rgb(0, 0, 0)" stroke="rgb(204, 204, 204)" stroke-width="1px"></line></g><g transform="translate(0, 8)"><text x="0" y="0" dx="0em" dy="0.95em" style="text-anchor: middle; visibility: hidden; font-family: &quot;Helvetica Neue&quot;, sans-serif; font-size: 12px; font-weight: 200;" fill="rgb(50, 49, 63)" stroke="none" stroke-width="1px">-10</text><text x="26.71875" y="0" dx="0em" dy="0.95em" style="text-anchor: middle; visibility: inherit; font-family: &quot;Helvetica Neue&quot;, sans-serif; font-size: 12px; font-weight: 200;" fill="rgb(50, 49, 63)" stroke="none" stroke-width="1px">0</text><text x="53.4375" y="0" dx="0em" dy="0.95em" style="text-anchor: middle; visibility: inherit; font-family: &quot;Helvetica Neue&quot;, sans-serif; font-size: 12px; font-weight: 200;" fill="rgb(50, 49, 63)" stroke="none" stroke-width="1px">10</text><text x="80.15625" y="0" dx="0em" dy="0.95em" style="text-anchor: middle; visibility: inherit; font-family: &quot;Helvetica Neue&quot;, sans-serif; font-size: 12px; font-weight: 200;" fill="rgb(50, 49, 63)" stroke="none" stroke-width="1px">20</text><text x="106.875" y="0" dx="0em" dy="0.95em" style="text-anchor: middle; visibility: inherit; font-family: &quot;Helvetica Neue&quot;, sans-serif; font-size: 12px; font-weight: 200;" fill="rgb(50, 49, 63)" stroke="none" stroke-width="1px">30</text><text x="133.59375" y="0" dx="0em" dy="0.95em" style="text-anchor: middle; visibility: inherit; font-family: &quot;Helvetica Neue&quot;, sans-serif; font-size: 12px; font-weight: 200;" fill="rgb(50, 49, 63)" stroke="none" stroke-width="1px">40</text><text x="160.3125" y="0" dx="0em" dy="0.95em" style="text-anchor: middle; visibility: inherit; font-family: &quot;Helvetica Neue&quot;, sans-serif; font-size: 12px; font-weight: 200;" fill="rgb(50, 49, 63)" stroke="none" stroke-width="1px">50</text><text x="187.03125" y="0" dx="0em" dy="0.95em" style="text-anchor: middle; visibility: inherit; font-family: &quot;Helvetica Neue&quot;, sans-serif; font-size: 12px; font-weight: 200;" fill="rgb(50, 49, 63)" stroke="none" stroke-width="1px">60</text><text x="213.75" y="0" dx="0em" dy="0.95em" style="text-anchor: middle; visibility: inherit; font-family: &quot;Helvetica Neue&quot;, sans-serif; font-size: 12px; font-weight: 200;" fill="rgb(50, 49, 63)" stroke="none" stroke-width="1px">70</text><text x="240.46875" y="0" dx="0em" dy="0.95em" style="text-anchor: middle; visibility: inherit; font-family: &quot;Helvetica Neue&quot;, sans-serif; font-size: 12px; font-weight: 200;" fill="rgb(50, 49, 63)" stroke="none" stroke-width="1px">80</text><text x="267.1875" y="0" dx="0em" dy="0.95em" style="text-anchor: middle; visibility: hidden; font-family: &quot;Helvetica Neue&quot;, sans-serif; font-size: 12px; font-weight: 200;" fill="rgb(50, 49, 63)" stroke="none" stroke-width="1px">90</text></g><line x1="0" y1="0" x2="267.1875" y2="0" fill="rgb(0, 0, 0)" stroke="rgb(204, 204, 204)" stroke-width="1px"></line></g></g></g></g></svg>