<svg viewBox="0 0 330 200" xmlns="http://www.w3.org/2000/svg"><g><g><g><g><g><line x1="62.8125" y1="176" x2="57.8125" y2="176" style="visibility: inherit;" fill="rgb(0, 0, 0)" stroke="rgb(204, 204, 204)" stroke-width="1px"></line><line x1="62.8125" y1="160" x2="57.8125" y2="160" style="visibility: inherit;" fill="rgb(0, 0, 0)" stroke="rgb(204, 204, 204)" stroke-width="1px"></line><line x1="62.8125" y1="144" x2="57.8125" y2="144" style="visibility: inherit;" fill="rgb(0, 0, 0)" stroke="rgb(204, 204, 204)" stroke-width="1px"></line><line x1="62.8125" y1="128" x2="57.8125" y2="128" style="visibility: inherit;" fill="rgb(0, 0, 0)" stroke="rgb(204, 204, 204)" stroke-width="1px"></line><line x1="62.8125" y1="112" x2="57.8125" y2="112" style="visibility: inherit;" fill="rgb(0, 0, 0)" stroke="rgb(204, 204, 204)" stroke-width="1px"></line><line x1="62.8125" y1="96" x2="57.8125" y2="96" style="visibility: inherit;" fill="rgb(0, 0, 0)" stroke="rgb(204, 204, 204)" stroke-width="1px"></line><line x1="62.8125" y1="80" x2="57.8125" y2="80" style="visibility: inherit;" fill="rgb(0, 0, 0)" stroke="rgb(204, 204, 204)" stroke-width="1px"></line><line x1="62.8125" y1="64.00000000000003" x2="57.8125" y2="64.00000000000003" style="visibility: inherit;" fill="rgb(0, 0, 0)" stroke="rgb(204, 204, 204)" stroke-width="1px"></line><line x1="62.8125" y1="48.000000000000014" x2="57.8125" y2="48.000000000000014" style="visibility: inherit;" fill="rgb(0, 0, 0)" stroke="rgb(204, 204, 204)" stroke-width="1px"></line><line x1="62.8125" y1="32" x2="57.8125" y2="32" style="visibility: inherit;" fill="rgb(0, 0, 0)" stroke="rgb(204, 204, 204)" stroke-width="1px"></line><line x1="62.8125" y1="16" x2="57.8125" y2="16" style="visibility: inherit;" fill="rgb(0, 0, 0)" stroke="rgb(204, 204, 204)" stroke-width="1px"></line><line x1="62.8125" y1="0" x2="57.8125" y2="0" style="visibility: inherit;" fill="rgb(0, 0, 0)" stroke="rgb(204, 204, 204)" stroke-width="1px"></line></g><g transform="translate(52.8125, 0)"><text x="0" y="176" dx="0em" dy="0.3em" style="text-anchor: end; visibility: hidden; font-family: &quot;Helvetica Neue&quot;, sans-serif; font-size: 12px; font-weight: 200;" fill="rgb(50, 49, 63)" stroke="none" stroke-width="1px">-0.05</text><text x="0" y="160" dx="0em" dy="0.3em" style="text-anchor: end; visibility: inherit; font-family: &quot;Helvetica Neue&quot;, sans-serif; font-size: 12px; font-weight: 200;" fill="rgb(50, 49, 63)" stroke="none" stroke-width="1px">0</text><text x="0" y="144" dx="0em" dy="0.3em" style="text-anchor: end; visibility: hidden; font-family: &quot;Helvetica Neue&quot;, sans-serif; font-size: 12px; font-weight: 200;" fill="rgb(50, 49, 63)" stroke="none" stroke-width="1px">0.05</text><text x="0" y="128" dx="0em" dy="0.3em" style="text-anchor: end; visibility: inherit; font-family: &quot;Helvetica Neue&quot;, sans-serif; font-size: 12px; font-weight: 200;" fill="rgb(50, 49, 63)" stroke="none" stroke-width="1px">0.1</text><text x="0" y="112" dx="0em" dy="0.3em" style="text-anchor: end; visibility: hidden; font-family: &quot;Helvetica Neue&quot;, sans-serif; font-size: 12px; font-weight: 200;" fill="rgb(50, 49, 63)" stroke="none" stroke-width="1px">0.15</text><text x="0" y="96" dx="0em" dy="0.3em" style="text-anchor: end; visibility: inherit; font-family: &quot;Helvetica Neue&quot;, sans-serif; font-size: 12px; font-weight: 200;" fill="rgb(50, 49, 63)" stroke="none" stroke-width="1px">0.2</text><text x="0" y="80" dx="0em" dy="0.3em" style="text-anchor: end; visibility: hidden; font-family: &quot;Helvetica Neue&quot;, sans-serif; font-size: 12px; font-weight: 200;" fill="rgb(50, 49, 63)" stroke="none" stroke-width="1px">0.25</text><text x="0" y="64.00000000000003" dx="0em" dy="0.3em" style="text-anchor: end; visibility: inherit; font-family: &quot;Helvetica Neue&quot;, sans-serif; font-size: 12px; font-weight: 200;" fill="rgb(50, 49, 63)" stroke="none" stroke-width="1px">0.3</text><text x="0" y="48.000000000000014" dx="0em" dy="0.3em" style="text-anchor: end; visibility: hidden; font-family: &quot;Helvetica Neue&quot;, sans-serif; font-size: 12px; font-weight: 200;" fill="rgb(50, 49, 63)" stroke="none" stroke-width="1px">0.35</text><text x="0" y="32" dx="0em" dy="0.3em" style="text-anchor: end; visibility: inherit; font-family: &quot;Helvetica Neue&quot;, sans-serif; font-size: 12px; font-weight: 200;" fill="rgb(50, 49, 63)" stroke="none" stroke-width="1px">0.4</text><text x="0" y="16" dx="0em" dy="0.3em" style="text-anchor: end; visibility: hidden; font-family: &quot;Helvetica Neue&quot;, sans-serif; font-size: 12px; font-weight: 200;" fill="rgb(50, 49, 63)" stroke="none" stroke-width="1px">0.45</text><text x="0" y="0" dx="0em" dy="0.3em" style="text-anchor: end; visibility: hidden; font-family: &quot;Helvetica Neue&quot;, sans-serif; font-size: 12px; font-weight: 200;" fill="rgb(50, 49, 63)" stroke="none" stroke-width="1px">0.5</text></g><line x1="62.8125" y1="0" x2="62.8125" y2="176" fill="rgb(0, 0, 0)" stroke="rgb(204, 204, 204)" stroke-width="1px"></line></g></g><g transform="translate(62, 0)" clip-path="url(#clip_0)"><clipPath id="clip_0"><rect width="267" height="176"></rect></clipPath><g><g><g><line x1="0" y1="0" x2="0" y2="176" fill="rgb(0, 0, 0)" stroke="rgb(60, 60, 60)" stroke-width="1px" opacity="0.25"></line><line x1="22.265625" y1="0" x2="22.265625" y2="176" fill="rgb(0, 0, 0)" stroke="rgb(60, 60, 60)" stroke-width="1px" opacity="0.25"></line><line x1="44.53125" y1="0" x2="44.53125" y2="176" fill="rgb(0, 0, 0)" stroke="rgb(60, 60, 60)" stroke-width="1px" opacity="0.25"></line><line x1="66.796875" y1="0" x2="66.796875" y2="176" fill="rgb(0, 0, 0)" stroke="rgb(60, 60, 60)" stroke-width="1px" opacity="0.25"></line><line x1="89.0625" y1="0" x2="89.0625" y2="176" fill="rgb(0, 0, 0)" stroke="rgb(60, 60, 60)" stroke-width="1px" opacity="0.25"></line><line x1="111.328125" y1="0" x2="111.328125" y2="176" fill="rgb(0, 0, 0)" stroke="rgb(60, 60, 60)" stroke-width="1px" opacity="0.25"></line><line x1="133.59375" y1="0" x2="133.59375" y2="176" fill="rgb(0, 0, 0)" stroke="rgb(60, 60, 60)" stroke-width="1px" opacity="0.25"></line><line x1="155.859375" y1="0" x2="155.859375" y2="176" fill="rgb(0, 0, 0)" stroke="rgb(60, 60, 60)" stroke-width="1px" opacity="0.25"></line><line x1="178.125" y1="0" x2="178.125" y2="176" fill="rgb(0, 0, 0)" stroke="rgb(60, 60, 60)" stroke-width="1px" opacity="0.25"></line><line x1="200.390625" y1="0" x2="200.390625" y2="176" fill="rgb(0, 0, 0)" stroke="rgb(60, 60, 60)" stroke-width="1px" opacity="0.25"></line><line x1="222.65625" y1="0" x2="222.65625" y2="176" fill="rgb(0, 0, 0)" stroke="rgb(60, 60, 60)" stroke-width="1px" opacity="0.25"></line><line x1="244.921875" y1="0" x2="244.921875" y2="176" fill="rgb(0, 0, 0)" stroke="rgb(60, 60, 60)" stroke-width="1px" opacity="0.25"></line><line x1="267.1875" y1="0" x2="267.1875" y2="176" fill="rgb(0, 0, 0)" stroke="rgb(60, 60, 60)" stroke-width="1px" opacity="0.25"></line></g><g><line x1="0" y1="176" x2="267.1875" y2="176" fill="rgb(0, 0, 0)" stroke="rgb(60, 60, 60)" stroke-width="1px" opacity="0.25"></line><line x1="0" y1="160" x2="267.1875" y2="160" fill="rgb(0, 0, 0)" stroke="rgb(60, 60, 60)" stroke-width="1px" opacity="0.25"></line><line x1="0" y1="144" x2="267.1875" y2="144" fill="rgb(0, 0, 0)" stroke="rgb(60, 60, 60)" stroke-width="1px" opacity="0.25"></line><line x1="0" y1="128" x2="267.1875" y2="128" fill="rgb(0, 0, 0)" stroke="rgb(60, 60, 60)" stroke-width="1px" opacity="0.25"></line><line x1="0" y1="112" x2="267.1875" y2="112" fill="rgb(0, 0, 0)" stroke="rgb(60, 60, 60)" stroke-width="1px" opacity="0.25"></line><line x1="0" y1="96" x2="267.1875" y2="96" fill="rgb(0, 0, 0)" stroke="rgb(60, 60, 60)" stroke-width="1px" opacity="0.25"></line><line x1="0" y1="80" x2="267.1875" y2="80" fill="rgb(0, 0, 0)" stroke="rgb(60, 60, 60)" stroke-width="1px" opacity="0.25"></line><line x1="0" y1="64.00000000000003" x2="267.1875" y2="64.00000000000003" fill="rgb(0, 0, 0)" stroke="rgb(60, 60, 60)" stroke-width="1px" opacity="0.25"></line><line x1="0" y1="48.000000000000014" x2="267.1875" y2="48.000000000000014" fill="rgb(0, 0, 0)" stroke="rgb(60, 60, 60)" stroke-width="1px" opacity="0.25"></line><line x1="0" y1="32" x2="267.1875" y2="32" fill="rgb(0, 0, 0)" stroke="rgb(60, 60, 60)" stroke-width="1px" opacity="0.25"></line><line x1="0" y1="16" x2="267.1875" y2="16" fill="rgb(0, 0, 0)" stroke="rgb(60, 60, 60)" stroke-width="1px" opacity="0.25"></line><line x1="0" y1="0" x2="267.1875" y2="0" fill="rgb(0, 0, 0)" stroke="rgb(60, 60, 60)" stroke-width="1px" opacity="0.25"></line></g></g></g><g><g><line x1="0" y1="160" x2="267.1875" y2="160" fill="rgb(0, 0, 0)" stroke="rgb(153, 153, 153)" stroke-width="1.5px"></line></g></g><g><g><line x1="22.265625" y1="0" x2="22.265625" y2="176" fill="rgb(0, 0, 0)" stroke="rgb(153, 153, 153)" stroke-width="1.5px"></line></g></g><g><g><g><g><g><path stroke="rgb(51, 187, 238)" stroke-width="2px" d="M22.265625,37.293739318847656L24.4921875,68.37364554405214L26.71875,91.57556670052665L28.9453125,107.33930728014779L31.171875,117.67057333945567L33.3984375,125.59909483287825L35.625,131.58991569687052L37.8515625,134.65668056689117L40.078125,137.63612418723358L42.3046875,139.89664305433524L44.53125,140.53326010973657L46.7578125,141.2048771210753L48.984375,141.34408214794462L51.2109375,142.54236365003158L53.4375,140.87548455378243L55.6640625,141.92931603798382L57.890625,148.10028693682955L60.1171875,151.6406172815538L62.34375,153.9539200828257L64.5703125,155.4795142750561L66.796875,156.12982476243468L69.0234375,156.29975378354865L71.25,156.45431902784887L73.4765625,156.49564397114997L75.703125,156.89744313615017L77.9296875,156.74502597115867L80.15625,156.60932959652888L82.3828125,156.50239533495744L84.609375,155.2360481502436L86.8359375,154.97318753641076L89.0625,155.36667584060388L91.2890625,155.551598436522L93.515625,155.218355381602L95.7421875,155.4262500608606L97.96875,154.88996419012378L100.1953125,154.7956459077395L102.421875,155.6894622114301L104.6484375,155.8530883715864L106.875,155.9689902502685L109.1015625,156.24984784392643L111.328125,156.00304963251898L113.5546875,155.9732241753253L115.78125,155.527509410462L118.0078125,154.83226630632825L120.234375,155.1607648941903L122.4609375,155.29586842138588L124.6875,155.8033768563402L126.9140625,156.23632563526007L129.140625,155.2136960826651L131.3671875,155.3472318173858L133.59375,155.62549030312508L135.8203125,155.72601840215123L138.046875,155.30927494357272L140.2734375,155.2508094024076L142.5,155.5970176524769L144.7265625,155.73054900567837L146.953125,156.0090262341566L149.1796875,155.62102297830978L151.40625,155.90524947576762L153.6328125,155.235563969213L155.859375,155.60634878611458L158.0859375,155.44382230839665L160.3125,155.5424428963753L162.5390625,155.28005725050522L164.765625,155.44515386762947L166.9921875,155.94602951730926L169.21875,155.77922063663982L171.4453125,155.9194971179687L173.671875,155.89615232084532L175.8984375,155.58247665366136L178.125,156.09992837787033L180.3515625,156.3974270575068L182.578125,156.27867408709656L184.8046875,156.33194010327418L187.03125,156.1650017551789L189.2578125,156.38511965586002L191.484375,155.6315090055064L193.7109375,156.02929280965301L195.9375,155.9082961485909L198.1640625,155.5862331632451L200.390625,155.68793453238462L202.6171875,155.96268914617332L204.84375,155.83460940407056L207.0703125,155.6576732008835L209.296875,156.1683723455179L211.5234375,156.22005612406184L213.75,156.16974980087906L215.9765625,156.57028013737101L218.203125,156.23096283835827L220.4296875,155.69101629592572L222.65625,155.5202796336269L224.8828125,155.88539959646795L227.109375,155.9945157865139L229.3359375,155.69505761262488L231.5625,156.00926858303973L233.7890625,156.117590797651L236.015625,155.45445044798146L238.2421875,155.8383988139778L240.46875,155.9438087223619L242.6953125,156.09766040317115L244.921875,156.31812187476098L247.1484375,156.35267253186188" style="fill: none;" fill="none"></path></g><g><path stroke="rgb(204, 51, 17)" stroke-width="2px" d="M22.265625,-28.36383819580078L24.4921875,24.928823709487972L26.71875,63.7547096914175L28.9453125,90.44758114744637L31.171875,108.65799021340345L33.3984375,121.50032300922209L35.625,130.90113602199725L37.8515625,137.64495103090002L40.078125,142.47216422670556L42.3046875,146.0911508507466L44.53125,148.73169007640092L46.7578125,150.92391676631422L48.984375,152.3598274389909L51.2109375,153.56192536188203L53.4375,154.60266044335157L55.6640625,155.32075129808567L57.890625,155.3307420407588L60.1171875,155.69439423199879L62.34375,156.17760939716678L64.5703125,156.89026638727637L66.796875,157.193231880059L69.0234375,157.4863259027162L71.25,157.94534479661883L73.4765625,158.12175795630813L75.703125,158.24565663512664L77.9296875,158.55336643838388L80.15625,158.55800514447705L82.3828125,158.80014574512992L84.609375,158.80941832994435L86.8359375,158.90295757892363L89.0625,158.99402076643202L91.2890625,159.11907399482283L93.515625,159.28679879683537L95.7421875,159.41472354110005L97.96875,159.41329942686446L100.1953125,159.46621208867222L102.421875,159.51332704442567L104.6484375,159.57018154116417L106.875,159.53788882338927L109.1015625,159.54393904414943L111.328125,159.53357203904255L113.5546875,159.52815986635105L115.78125,159.52689078129384L118.0078125,159.6034630935149L120.234375,159.6417025879516L122.4609375,159.68017294439878L124.6875,159.68050393124346L126.9140625,159.69026223665452L129.140625,159.6962565830111L131.3671875,159.66679086689683L133.59375,159.65303746106935L135.8203125,159.66539759780596L138.046875,159.63185569253935L140.2734375,159.6720100081407L142.5,159.70596513965387L144.7265625,159.72267388146318L146.953125,159.71941646242854L149.1796875,159.70309159937332L151.40625,159.6950271682908L153.6328125,159.6912761155945L155.859375,159.69750068331848L158.0859375,159.7268285557335L160.3125,159.75719523904954L162.5390625,159.73143906878371L164.765625,159.72573731980884L166.9921875,159.75741086686946L169.21875,159.7349879490453L171.4453125,159.7363108379911L173.671875,159.74895784159128L175.8984375,159.72020614981426L178.125,159.71844998055562L180.3515625,159.71891088517825L182.578125,159.727933940186L184.8046875,159.7382424917185L187.03125,159.76475884892722L189.2578125,159.78129031734574L191.484375,159.78417727337424L193.7109375,159.78980714372483L195.9375,159.75140416199974L198.1640625,159.7289086346329L200.390625,159.75547807452088L202.6171875,159.78011265121106L204.84375,159.75637671185854L207.0703125,159.75400823702407L209.296875,159.7530029392242L211.5234375,159.76199019259212L213.75,159.75601488832234L215.9765625,159.74934482266664L218.203125,159.75769408756588L220.4296875,159.75675584801493L222.65625,159.77474977480446L224.8828125,159.78739627395316L227.109375,159.77941704955248L229.3359375,159.7832871938738L231.5625,159.7924053126569L233.7890625,159.7880766885874L236.015625,159.79771759196504L238.2421875,159.79622933169833L240.46875,159.77021555841344L242.6953125,159.782736201527L244.921875,159.76304294135707L247.1484375,159.76873694489322" style="fill: none;" fill="none"></path></g></g></g></g><g opacity="0.2"><g><g><g><path stroke="rgb(51, 187, 238)" stroke-width="2px" d="M22.265625,37.293739318847656L24.4921875,87.02158927917482L26.71875,113.84941101074219L28.9453125,125.87746620178224L31.171875,131.15907430648804L33.3984375,136.5670943260193L35.625,140.1568853855133L37.8515625,139.12805318832397L40.078125,142.03022480010986L42.3046875,143.2532501220703L44.53125,141.4824116230011L46.7578125,142.2086477279663L48.984375,141.55243515968323L51.2109375,144.33743834495544L53.4375,138.3771252632141L55.6640625,143.50932002067566L57.890625,157.35413193702698L60.1171875,156.95021390914917L62.34375,157.42352187633514L64.5703125,157.76776611804962L66.796875,157.1052548289299L69.0234375,156.5546417236328L71.25,156.68616384267807L73.4765625,156.5576308965683L75.703125,157.50013902783394L77.9296875,156.51640087366104L80.15625,156.40578538179398L82.3828125,156.34199410676956L84.609375,153.3365285396576L86.8359375,154.57889676094055L89.0625,155.95690816640854L91.2890625,155.8289822936058L93.515625,154.71849083900452L95.7421875,155.73809206485748L97.96875,154.08553540706635L100.1953125,154.65416848659515L102.421875,157.0301866531372L104.6484375,156.09852761030197L106.875,156.14284306764603L109.1015625,156.67113423347473L111.328125,155.6328523159027L113.5546875,155.92848598957062L115.78125,154.85893726348877L118.0078125,153.78940165042877L120.234375,155.65351277589798L122.4609375,155.4985237121582L124.6875,156.5646395087242L126.9140625,156.88574880361557L129.140625,153.67975175380707L131.3671875,155.5475354194641L133.59375,156.04287803173065L135.8203125,155.8768105506897L138.046875,154.6841597557068L140.2734375,155.1631110906601L142.5,156.11633002758026L144.7265625,155.9308460354805L146.953125,156.42674207687378L149.1796875,155.03901809453964L151.40625,156.33158922195435L153.6328125,154.2310357093811L155.859375,156.16252601146698L158.0859375,155.20003259181976L160.3125,155.6903737783432L162.5390625,154.88647878170013L164.765625,155.6927987933159L166.9921875,156.69734299182892L169.21875,155.52900731563568L171.4453125,156.129911839962L173.671875,155.86113512516022L175.8984375,155.11196315288544L178.125,156.8761059641838L180.3515625,156.84367507696152L182.578125,156.10054463148117L184.8046875,156.4118391275406L187.03125,155.91459423303604L189.2578125,156.7152965068817L191.484375,154.5010930299759L193.7109375,156.62596851587296L195.9375,155.72680115699768L198.1640625,155.10313868522644L200.390625,155.8404865860939L202.6171875,156.37482106685638L204.84375,155.64248979091644L207.0703125,155.3922688961029L209.296875,156.93442106246948L211.5234375,156.29758179187775L213.75,156.0942903161049L215.9765625,157.17107564210892L218.203125,155.72198688983917L220.4296875,154.88109648227692L222.65625,155.26417464017868L224.8828125,156.43307954072952L227.109375,156.1581900715828L229.3359375,155.24587035179138L231.5625,156.48058503866196L233.7890625,156.28007411956787L236.015625,154.45973992347717L238.2421875,156.41432136297226L240.46875,156.10192358493805L242.6953125,156.32843792438507L244.921875,156.6488140821457L247.1484375,156.40449851751328" style="fill: none;" fill="none"></path></g><g><path stroke="rgb(204, 51, 17)" stroke-width="2px" d="M22.265625,-28.36383819580078L24.4921875,56.90442085266115L26.71875,101.02756023406982L28.9453125,121.83839797973633L31.171875,132.433500289917L33.3984375,139.26589250564575L35.625,144.34444904327393L37.8515625,147.4774980545044L40.078125,149.59136605262756L42.3046875,151.46492421627045L44.53125,152.6685494184494L46.7578125,154.20032680034637L48.984375,154.50900495052338L51.2109375,155.3627172112465L53.4375,156.16253972053528L55.6640625,156.39738112688065L57.890625,155.34572392702103L60.1171875,156.2397801876068L62.34375,156.9023585319519L64.5703125,157.959186732769L66.796875,157.64766350388527L69.0234375,157.92595729231834L71.25,158.63386407494545L73.4765625,158.38637560606003L75.703125,158.4315037727356L77.9296875,159.01492983102798L80.15625,158.56496319174767L82.3828125,159.16335627436638L84.609375,158.8233271986246L86.8359375,159.04326640069485L89.0625,159.13061551749706L91.2890625,159.30665381252766L93.515625,159.53838597983122L95.7421875,159.60661064833403L97.96875,159.41116325557232L100.1953125,159.54558108001947L102.421875,159.58399947732687L104.6484375,159.6554632857442L106.875,159.48944974690676L109.1015625,159.5530143752694L111.328125,159.51802153140306L113.5546875,159.5200416073203L115.78125,159.52498715370893L118.0078125,159.71832156181335L120.234375,159.69906182959676L122.4609375,159.7378784790635L124.6875,159.68100041151047L126.9140625,159.70489969477057L129.140625,159.70524810254574L131.3671875,159.62259229272604L133.59375,159.6324073523283L135.8203125,159.6839378029108L138.046875,159.58154283463955L140.2734375,159.7322414815426L142.5,159.7568978369236L144.7265625,159.7477369941771L146.953125,159.7145303338766L149.1796875,159.6786043047905L151.40625,159.682930521667L153.6328125,159.68564953655005L155.859375,159.70683753490448L158.0859375,159.77082036435604L160.3125,159.80274526402354L162.5390625,159.692804813385L164.765625,159.71718469634652L166.9921875,159.80492118746042L169.21875,159.70135357230902L171.4453125,159.73829517140985L173.671875,159.76792834699154L175.8984375,159.67707861214876L178.125,159.71581572666764L180.3515625,159.71960224211216L182.578125,159.7414685226977L184.8046875,159.75370531901717L187.03125,159.80453338474035L189.2578125,159.80608751997352L191.484375,159.788507707417L193.7109375,159.7982519492507L195.9375,159.69379968941212L198.1640625,159.69516534358263L200.390625,159.79533223435283L202.6171875,159.81706451624632L204.84375,159.72077280282974L207.0703125,159.7504555247724L209.296875,159.75149499252439L211.5234375,159.775471072644L213.75,159.74705193191767L215.9765625,159.73933972418308L218.203125,159.77021798491478L220.4296875,159.75534848868847L222.65625,159.80174066498876L224.8828125,159.80636602267623L227.109375,159.76744821295142L229.3359375,159.7890924103558L231.5625,159.8060824908316L233.7890625,159.78158375248313L236.015625,159.8121789470315L238.2421875,159.79399694129825L240.46875,159.73119489848614L242.6953125,159.8015171661973L244.921875,159.73350305110216L247.1484375,159.77727795019746" style="fill: none;" fill="none"></path></g></g></g></g></g></g><g transform="translate(62, 176)" clip-path="url(#clip_1)"><clipPath id="clip_1"><rect width="267" height="24"></rect></clipPath><g><g><line x1="0" y1="0" x2="0" y2="5" style="visibility: inherit;" fill="rgb(0, 0, 0)" stroke="rgb(204, 204, 204)" stroke-width="1px"></line><line x1="22.265625" y1="0" x2="22.265625" y2="5" style="visibility: inherit;" fill="rgb(0, 0, 0)" stroke="rgb(204, 204, 204)" stroke-width="1px"></line><line x1="44.53125" y1="0" x2="44.53125" y2="5" style="visibility: inherit;" fill="rgb(0, 0, 0)" stroke="rgb(204, 204, 204)" stroke-width="1px"></line><line x1="66.796875" y1="0" x2="66.796875" y2="5" style="visibility: inherit;" fill="rgb(0, 0, 0)" stroke="rgb(204, 204, 204)" stroke-width="1px"></line><line x1="89.0625" y1="0" x2="89.0625" y2="5" style="visibility: inherit;" fill="rgb(0, 0, 0)" stroke="rgb(204, 204, 204)" stroke-width="1px"></line><line x1="111.328125" y1="0" x2="111.328125" y2="5" style="visibility: inherit;" fill="rgb(0, 0, 0)" stroke="rgb(204, 204, 204)" stroke-width="1px"></line><line x1="133.59375" y1="0" x2="133.59375" y2="5" style="visibility: inherit;" fill="rgb(0, 0, 0)" stroke="rgb(204, 204, 204)" stroke-width="1px"></line><line x1="155.859375" y1="0" x2="155.859375" y2="5" style="visibility: inherit;" fill="rgb(0, 0, 0)" stroke="rgb(204, 204, 204)" stroke-width="1px"></line><line x1="178.125" y1="0" x2="178.125" y2="5" style="visibility: inherit;" fill="rgb(0, 0, 0)" stroke="rgb(204, 204, 204)" stroke-width="1px"></line><line x1="200.390625" y1="0" x2="200.390625" y2="5" style="visibility: inherit;" fill="rgb(0, 0, 0)" stroke="rgb(204, 204, 204)" stroke-width="1px"></line><line x1="222.65625" y1="0" x2="222.65625" y2="5" style="visibility: inherit;" fill="rgb(0, 0, 0)" stroke="rgb(204, 204, 204)" stroke-width="1px"></line><line x1="244.921875" y1="0" x2="244.921875" y2="5" style="visibility: inherit;" fill="rgb(0, 0, 0)" stroke="rgb(204, 204, 204)" stroke-width="1px"></line><line x1="267.1875" y1="0" x2="267.1875" y2="5" style="visibility: inherit;" fill="rgb(0, 0, 0)" stroke="rgb(204, 204, 204)" stroke-width="1px"></line></g><g transform="translate(0, 8)"><text x="0" y="0" dx="0em" dy="0.95em" style="text-anchor: middle; visibility: hidden; font-family: &quot;Helvetica Neue&quot;, sans-serif; font-size: 12px; font-weight: 200;" fill="rgb(50, 49, 63)" stroke="none" stroke-width="1px">-10</text><text x="22.265625" y="0" dx="0em" dy="0.95em" style="text-anchor: middle; visibility: inherit; font-family: &quot;Helvetica Neue&quot;, sans-serif; font-size: 12px; font-weight: 200;" fill="rgb(50, 49, 63)" stroke="none" stroke-width="1px">0</text><text x="44.53125" y="0" dx="0em" dy="0.95em" style="text-anchor: middle; visibility: inherit; font-family: &quot;Helvetica Neue&quot;, sans-serif; font-size: 12px; font-weight: 200;" fill="rgb(50, 49, 63)" stroke="none" stroke-width="1px">10</text><text x="66.796875" y="0" dx="0em" dy="0.95em" style="text-anchor: middle; visibility: inherit; font-family: &quot;Helvetica Neue&quot;, sans-serif; font-size: 12px; font-weight: 200;" fill="rgb(50, 49, 63)" stroke="none" stroke-width="1px">20</text><text x="89.0625" y="0" dx="0em" dy="0.95em" style="text-anchor: middle; visibility: inherit; font-family: &quot;Helvetica Neue&quot;, sans-serif; font-size: 12px; font-weight: 200;" fill="rgb(50, 49, 63)" stroke="none" stroke-width="1px">30</text><text x="111.328125" y="0" dx="0em" dy="0.95em" style="text-anchor: middle; visibility: inherit; font-family: &quot;Helvetica Neue&quot;, sans-serif; font-size: 12px; font-weight: 200;" fill="rgb(50, 49, 63)" stroke="none" stroke-width="1px">40</text><text x="133.59375" y="0" dx="0em" dy="0.95em" style="text-anchor: middle; visibility: inherit; font-family: &quot;Helvetica Neue&quot;, sans-serif; font-size: 12px; font-weight: 200;" fill="rgb(50, 49, 63)" stroke="none" stroke-width="1px">50</text><text x="155.859375" y="0" dx="0em" dy="0.95em" style="text-anchor: middle; visibility: inherit; font-family: &quot;Helvetica Neue&quot;, sans-serif; font-size: 12px; font-weight: 200;" fill="rgb(50, 49, 63)" stroke="none" stroke-width="1px">60</text><text x="178.125" y="0" dx="0em" dy="0.95em" style="text-anchor: middle; visibility: inherit; font-family: &quot;Helvetica Neue&quot;, sans-serif; font-size: 12px; font-weight: 200;" fill="rgb(50, 49, 63)" stroke="none" stroke-width="1px">70</text><text x="200.390625" y="0" dx="0em" dy="0.95em" style="text-anchor: middle; visibility: inherit; font-family: &quot;Helvetica Neue&quot;, sans-serif; font-size: 12px; font-weight: 200;" fill="rgb(50, 49, 63)" stroke="none" stroke-width="1px">80</text><text x="222.65625" y="0" dx="0em" dy="0.95em" style="text-anchor: middle; visibility: inherit; font-family: &quot;Helvetica Neue&quot;, sans-serif; font-size: 12px; font-weight: 200;" fill="rgb(50, 49, 63)" stroke="none" stroke-width="1px">90</text><text x="244.921875" y="0" dx="0em" dy="0.95em" style="text-anchor: middle; visibility: inherit; font-family: &quot;Helvetica Neue&quot;, sans-serif; font-size: 12px; font-weight: 200;" fill="rgb(50, 49, 63)" stroke="none" stroke-width="1px">100</text><text x="267.1875" y="0" dx="0em" dy="0.95em" style="text-anchor: middle; visibility: hidden; font-family: &quot;Helvetica Neue&quot;, sans-serif; font-size: 12px; font-weight: 200;" fill="rgb(50, 49, 63)" stroke="none" stroke-width="1px">110</text></g><line x1="0" y1="0" x2="267.1875" y2="0" fill="rgb(0, 0, 0)" stroke="rgb(204, 204, 204)" stroke-width="1px"></line></g></g></g></g></svg>