<svg viewBox="0 0 330 200" xmlns="http://www.w3.org/2000/svg"><g><g><g><g><g><line x1="62.8125" y1="176" x2="57.8125" y2="176" style="visibility: inherit;" fill="rgb(0, 0, 0)" stroke="rgb(204, 204, 204)" stroke-width="1px"></line><line x1="62.8125" y1="161.33333333333334" x2="57.8125" y2="161.33333333333334" style="visibility: inherit;" fill="rgb(0, 0, 0)" stroke="rgb(204, 204, 204)" stroke-width="1px"></line><line x1="62.8125" y1="146.66666666666666" x2="57.8125" y2="146.66666666666666" style="visibility: inherit;" fill="rgb(0, 0, 0)" stroke="rgb(204, 204, 204)" stroke-width="1px"></line><line x1="62.8125" y1="132" x2="57.8125" y2="132" style="visibility: inherit;" fill="rgb(0, 0, 0)" stroke="rgb(204, 204, 204)" stroke-width="1px"></line><line x1="62.8125" y1="117.33333333333334" x2="57.8125" y2="117.33333333333334" style="visibility: inherit;" fill="rgb(0, 0, 0)" stroke="rgb(204, 204, 204)" stroke-width="1px"></line><line x1="62.8125" y1="102.66666666666666" x2="57.8125" y2="102.66666666666666" style="visibility: inherit;" fill="rgb(0, 0, 0)" stroke="rgb(204, 204, 204)" stroke-width="1px"></line><line x1="62.8125" y1="88" x2="57.8125" y2="88" style="visibility: inherit;" fill="rgb(0, 0, 0)" stroke="rgb(204, 204, 204)" stroke-width="1px"></line><line x1="62.8125" y1="73.33333333333333" x2="57.8125" y2="73.33333333333333" style="visibility: inherit;" fill="rgb(0, 0, 0)" stroke="rgb(204, 204, 204)" stroke-width="1px"></line><line x1="62.8125" y1="58.66666666666667" x2="57.8125" y2="58.66666666666667" style="visibility: inherit;" fill="rgb(0, 0, 0)" stroke="rgb(204, 204, 204)" stroke-width="1px"></line><line x1="62.8125" y1="44" x2="57.8125" y2="44" style="visibility: inherit;" fill="rgb(0, 0, 0)" stroke="rgb(204, 204, 204)" stroke-width="1px"></line><line x1="62.8125" y1="29.333333333333314" x2="57.8125" y2="29.333333333333314" style="visibility: inherit;" fill="rgb(0, 0, 0)" stroke="rgb(204, 204, 204)" stroke-width="1px"></line><line x1="62.8125" y1="14.666666666666686" x2="57.8125" y2="14.666666666666686" style="visibility: inherit;" fill="rgb(0, 0, 0)" stroke="rgb(204, 204, 204)" stroke-width="1px"></line><line x1="62.8125" y1="0" x2="57.8125" y2="0" style="visibility: inherit;" fill="rgb(0, 0, 0)" stroke="rgb(204, 204, 204)" stroke-width="1px"></line></g><g transform="translate(52.8125, 0)"><text x="0" y="176" dx="0em" dy="0.3em" style="text-anchor: end; visibility: hidden; font-family: &quot;Helvetica Neue&quot;, sans-serif; font-size: 12px; font-weight: 200;" fill="rgb(50, 49, 63)" stroke="none" stroke-width="1px">0.98</text><text x="0" y="161.33333333333334" dx="0em" dy="0.3em" style="text-anchor: end; visibility: inherit; font-family: &quot;Helvetica Neue&quot;, sans-serif; font-size: 12px; font-weight: 200;" fill="rgb(50, 49, 63)" stroke="none" stroke-width="1px">0.982</text><text x="0" y="146.66666666666666" dx="0em" dy="0.3em" style="text-anchor: end; visibility: hidden; font-family: &quot;Helvetica Neue&quot;, sans-serif; font-size: 12px; font-weight: 200;" fill="rgb(50, 49, 63)" stroke="none" stroke-width="1px">0.984</text><text x="0" y="132" dx="0em" dy="0.3em" style="text-anchor: end; visibility: inherit; font-family: &quot;Helvetica Neue&quot;, sans-serif; font-size: 12px; font-weight: 200;" fill="rgb(50, 49, 63)" stroke="none" stroke-width="1px">0.986</text><text x="0" y="117.33333333333334" dx="0em" dy="0.3em" style="text-anchor: end; visibility: hidden; font-family: &quot;Helvetica Neue&quot;, sans-serif; font-size: 12px; font-weight: 200;" fill="rgb(50, 49, 63)" stroke="none" stroke-width="1px">0.988</text><text x="0" y="102.66666666666666" dx="0em" dy="0.3em" style="text-anchor: end; visibility: inherit; font-family: &quot;Helvetica Neue&quot;, sans-serif; font-size: 12px; font-weight: 200;" fill="rgb(50, 49, 63)" stroke="none" stroke-width="1px">0.99</text><text x="0" y="88" dx="0em" dy="0.3em" style="text-anchor: end; visibility: hidden; font-family: &quot;Helvetica Neue&quot;, sans-serif; font-size: 12px; font-weight: 200;" fill="rgb(50, 49, 63)" stroke="none" stroke-width="1px">0.992</text><text x="0" y="73.33333333333333" dx="0em" dy="0.3em" style="text-anchor: end; visibility: inherit; font-family: &quot;Helvetica Neue&quot;, sans-serif; font-size: 12px; font-weight: 200;" fill="rgb(50, 49, 63)" stroke="none" stroke-width="1px">0.994</text><text x="0" y="58.66666666666667" dx="0em" dy="0.3em" style="text-anchor: end; visibility: hidden; font-family: &quot;Helvetica Neue&quot;, sans-serif; font-size: 12px; font-weight: 200;" fill="rgb(50, 49, 63)" stroke="none" stroke-width="1px">0.996</text><text x="0" y="44" dx="0em" dy="0.3em" style="text-anchor: end; visibility: inherit; font-family: &quot;Helvetica Neue&quot;, sans-serif; font-size: 12px; font-weight: 200;" fill="rgb(50, 49, 63)" stroke="none" stroke-width="1px">0.998</text><text x="0" y="29.333333333333314" dx="0em" dy="0.3em" style="text-anchor: end; visibility: hidden; font-family: &quot;Helvetica Neue&quot;, sans-serif; font-size: 12px; font-weight: 200;" fill="rgb(50, 49, 63)" stroke="none" stroke-width="1px">1</text><text x="0" y="14.666666666666686" dx="0em" dy="0.3em" style="text-anchor: end; visibility: inherit; font-family: &quot;Helvetica Neue&quot;, sans-serif; font-size: 12px; font-weight: 200;" fill="rgb(50, 49, 63)" stroke="none" stroke-width="1px">1</text><text x="0" y="0" dx="0em" dy="0.3em" style="text-anchor: end; visibility: hidden; font-family: &quot;Helvetica Neue&quot;, sans-serif; font-size: 12px; font-weight: 200;" fill="rgb(50, 49, 63)" stroke="none" stroke-width="1px">1</text></g><line x1="62.8125" y1="0" x2="62.8125" y2="176" fill="rgb(0, 0, 0)" stroke="rgb(204, 204, 204)" stroke-width="1px"></line></g></g><g transform="translate(62, 0)" clip-path="url(#clip_0)"><clipPath id="clip_0"><rect width="267" height="176"></rect></clipPath><g><g><g><line x1="0" y1="0" x2="0" y2="176" fill="rgb(0, 0, 0)" stroke="rgb(60, 60, 60)" stroke-width="1px" opacity="0.25"></line><line x1="19.084821428571427" y1="0" x2="19.084821428571427" y2="176" fill="rgb(0, 0, 0)" stroke="rgb(60, 60, 60)" stroke-width="1px" opacity="0.25"></line><line x1="38.169642857142854" y1="0" x2="38.169642857142854" y2="176" fill="rgb(0, 0, 0)" stroke="rgb(60, 60, 60)" stroke-width="1px" opacity="0.25"></line><line x1="57.254464285714285" y1="0" x2="57.254464285714285" y2="176" fill="rgb(0, 0, 0)" stroke="rgb(60, 60, 60)" stroke-width="1px" opacity="0.25"></line><line x1="76.33928571428571" y1="0" x2="76.33928571428571" y2="176" fill="rgb(0, 0, 0)" stroke="rgb(60, 60, 60)" stroke-width="1px" opacity="0.25"></line><line x1="95.42410714285714" y1="0" x2="95.42410714285714" y2="176" fill="rgb(0, 0, 0)" stroke="rgb(60, 60, 60)" stroke-width="1px" opacity="0.25"></line><line x1="114.50892857142857" y1="0" x2="114.50892857142857" y2="176" fill="rgb(0, 0, 0)" stroke="rgb(60, 60, 60)" stroke-width="1px" opacity="0.25"></line><line x1="133.59375" y1="0" x2="133.59375" y2="176" fill="rgb(0, 0, 0)" stroke="rgb(60, 60, 60)" stroke-width="1px" opacity="0.25"></line><line x1="152.67857142857142" y1="0" x2="152.67857142857142" y2="176" fill="rgb(0, 0, 0)" stroke="rgb(60, 60, 60)" stroke-width="1px" opacity="0.25"></line><line x1="171.76339285714286" y1="0" x2="171.76339285714286" y2="176" fill="rgb(0, 0, 0)" stroke="rgb(60, 60, 60)" stroke-width="1px" opacity="0.25"></line><line x1="190.84821428571428" y1="0" x2="190.84821428571428" y2="176" fill="rgb(0, 0, 0)" stroke="rgb(60, 60, 60)" stroke-width="1px" opacity="0.25"></line><line x1="209.93303571428572" y1="0" x2="209.93303571428572" y2="176" fill="rgb(0, 0, 0)" stroke="rgb(60, 60, 60)" stroke-width="1px" opacity="0.25"></line><line x1="229.01785714285714" y1="0" x2="229.01785714285714" y2="176" fill="rgb(0, 0, 0)" stroke="rgb(60, 60, 60)" stroke-width="1px" opacity="0.25"></line><line x1="248.10267857142858" y1="0" x2="248.10267857142858" y2="176" fill="rgb(0, 0, 0)" stroke="rgb(60, 60, 60)" stroke-width="1px" opacity="0.25"></line><line x1="267.1875" y1="0" x2="267.1875" y2="176" fill="rgb(0, 0, 0)" stroke="rgb(60, 60, 60)" stroke-width="1px" opacity="0.25"></line></g><g><line x1="0" y1="176" x2="267.1875" y2="176" fill="rgb(0, 0, 0)" stroke="rgb(60, 60, 60)" stroke-width="1px" opacity="0.25"></line><line x1="0" y1="161.33333333333334" x2="267.1875" y2="161.33333333333334" fill="rgb(0, 0, 0)" stroke="rgb(60, 60, 60)" stroke-width="1px" opacity="0.25"></line><line x1="0" y1="146.66666666666666" x2="267.1875" y2="146.66666666666666" fill="rgb(0, 0, 0)" stroke="rgb(60, 60, 60)" stroke-width="1px" opacity="0.25"></line><line x1="0" y1="132" x2="267.1875" y2="132" fill="rgb(0, 0, 0)" stroke="rgb(60, 60, 60)" stroke-width="1px" opacity="0.25"></line><line x1="0" y1="117.33333333333334" x2="267.1875" y2="117.33333333333334" fill="rgb(0, 0, 0)" stroke="rgb(60, 60, 60)" stroke-width="1px" opacity="0.25"></line><line x1="0" y1="102.66666666666666" x2="267.1875" y2="102.66666666666666" fill="rgb(0, 0, 0)" stroke="rgb(60, 60, 60)" stroke-width="1px" opacity="0.25"></line><line x1="0" y1="88" x2="267.1875" y2="88" fill="rgb(0, 0, 0)" stroke="rgb(60, 60, 60)" stroke-width="1px" opacity="0.25"></line><line x1="0" y1="73.33333333333333" x2="267.1875" y2="73.33333333333333" fill="rgb(0, 0, 0)" stroke="rgb(60, 60, 60)" stroke-width="1px" opacity="0.25"></line><line x1="0" y1="58.66666666666667" x2="267.1875" y2="58.66666666666667" fill="rgb(0, 0, 0)" stroke="rgb(60, 60, 60)" stroke-width="1px" opacity="0.25"></line><line x1="0" y1="44" x2="267.1875" y2="44" fill="rgb(0, 0, 0)" stroke="rgb(60, 60, 60)" stroke-width="1px" opacity="0.25"></line><line x1="0" y1="29.333333333333314" x2="267.1875" y2="29.333333333333314" fill="rgb(0, 0, 0)" stroke="rgb(60, 60, 60)" stroke-width="1px" opacity="0.25"></line><line x1="0" y1="14.666666666666686" x2="267.1875" y2="14.666666666666686" fill="rgb(0, 0, 0)" stroke="rgb(60, 60, 60)" stroke-width="1px" opacity="0.25"></line><line x1="0" y1="0" x2="267.1875" y2="0" fill="rgb(0, 0, 0)" stroke="rgb(60, 60, 60)" stroke-width="1px" opacity="0.25"></line></g></g></g><g><g><line x1="0" y1="7362.66666666666" x2="267.1875" y2="7362.66666666666" fill="rgb(0, 0, 0)" stroke="rgb(153, 153, 153)" stroke-width="1.5px"></line></g></g><g><g><line x1="19.084821428571427" y1="0" x2="19.084821428571427" y2="176" fill="rgb(0, 0, 0)" stroke="rgb(153, 153, 153)" stroke-width="1.5px"></line></g></g><g><g><g><g><g><path stroke="rgb(204, 51, 17)" stroke-width="2px" d="M19.084821428571427,146.78142484029124L20.0390625,170.05594587325956L20.99330357142857,150.87357969997726L21.947544642857142,150.30931784943118L22.901785714285715,142.56694724056308L23.856026785714285,144.33523973507866L24.810267857142858,144.16298857771457L25.76450892857143,145.2282554760128L26.71875,156.27326149862176L27.672991071428573,140.9253907968489L28.627232142857142,134.0762543139803L29.58147321428571,159.83926311475125L30.535714285714285,144.28320561007536L31.489955357142858,142.98967309732097L32.44419642857143,159.40978774696276L33.3984375,149.77228550147885L34.35267857142857,141.69950484879843L35.306919642857146,134.56484661508975L36.26116071428571,166.9533815959797L37.215401785714285,162.32178968313156L38.169642857142854,161.83479972958852L39.12388392857143,150.084128442865L40.078125,145.32547445324914L41.03236607142858,137.88684615544094L41.98660714285714,149.46550891312754L42.940848214285715,165.57940277135117L43.895089285714285,159.2059335049015L44.849330357142854,154.2361269871282L45.80357142857143,145.52507625208315L46.7578125,138.0066408196698L47.71205357142857,132.3498520428525L48.66629464285714,128.95577925698052L49.620535714285715,122.33589730195908L50.574776785714285,124.09313516207195L51.52901785714286,130.87664461107386L52.48325892857143,126.92595175783697L53.4375,119.97227264639318L54.39174107142857,120.38332862130366L55.345982142857146,121.77586547727623L56.300223214285715,124.90301929054577L57.254464285714285,127.92521484620121L58.20870535714286,127.44672563803994L59.16294642857142,123.72227198453098L60.1171875,120.34169652346682L61.07142857142857,124.04251791446549L62.025669642857146,118.24221238304271L62.979910714285715,118.19956403260667L63.93415178571429,121.61133515019097L64.88839285714286,115.6375994553095L65.84263392857143,120.07415640377161L66.796875,122.73609057282562L67.75111607142857,118.60408440756692L68.70535714285714,119.56241567648233L69.65959821428572,120.1374144378324L70.61383928571429,122.77404539325165L71.56808035714286,124.35602396650206L72.52232142857142,121.8678509826849L73.4765625,122.66657889100267L74.43080357142857,117.41664896932569L75.38504464285714,117.7042259843781L76.33928571428571,119.02250062256888L77.29352678571429,119.81346540548384L78.24776785714286,119.14231584607282L79.20200892857143,119.88535453958605L80.15625,113.45628265986748L81.11049107142857,116.47373462786138L82.06473214285715,118.28420580865918L83.01897321428572,122.80802348519563L83.97321428571428,124.3764108216678L84.92745535714285,121.88008309578369L85.88169642857143,124.96554985747017L86.8359375,121.08766324781607L87.79017857142857,121.05256298063068L88.74441964285714,121.03150282032027L89.69866071428571,116.4356033269169L90.65290178571429,125.13639696420887L91.60714285714286,125.77343490907575L92.56138392857143,122.71829754822895L93.515625,117.44768016366211L94.46986607142858,118.86857313013928L95.42410714285714,122.01274060863351L96.37834821428571,114.73271430129628L97.33258928571428,111.51042694605249L98.28683035714286,116.45212446902306L99.24107142857143,121.7087746814138L100.1953125,119.13359814218191L101.14955357142857,118.73439548809199L102.10379464285714,118.49487389563836L103.05803571428572,113.76772270265838L104.01227678571429,116.6605986535364L104.96651785714286,119.54222749351293L105.92075892857142,120.12530152804914L106.875,123.91268091682929L107.82924107142857,117.01840691537195L108.78348214285714,116.3193774825568L109.73772321428571,117.04586309231757L110.69196428571429,114.04421949011595L111.64620535714286,113.388961757953L112.60044642857143,115.28761365755481L113.5546875,119.86416492508332L114.50892857142857,120.31846398699167L115.46316964285715,119.44531499497883L116.41741071428572,116.62961906087041L117.37165178571428,113.79447307124698L118.32589285714285,121.26008711219785L119.28013392857143,120.01028887010123L120.234375,118.11450665539469L121.18861607142857,122.70620399323661L122.14285714285714,122.02368742788383L123.09709821428571,118.17664252061341L124.05133928571429,120.45185381375944L125.00558035714286,122.96270901880527L125.95982142857143,121.0318620140657L126.9140625,117.58154727232284L127.86830357142858,120.09479666478543L128.82254464285714,117.01930806275436L129.77678571428572,115.17401490153557L130.73102678571428,111.77520730619703L131.68526785714286,118.90262438371802L132.63950892857144,116.30400469411393L133.59375,113.59910445119374L134.54799107142856,119.99696267071621L135.50223214285714,119.2524142052129L136.4564732142857,118.80568512591091L137.41071428571428,115.10011271027129L138.36495535714286,118.60593592755401L139.31919642857144,113.83435992180728L140.2734375,117.84648425447594L141.22767857142858,120.25375885407698L142.18191964285714,119.40649191522887L143.13616071428572,123.48139514913777L144.09040178571428,120.19717042281644L145.04464285714283,120.51826728563157L145.99888392857142,120.71092540332049L146.953125,120.82652027393415L147.90736607142858,118.60424549769445L148.86160714285714,116.1249773624996L149.81584821428572,118.07495144944113L150.77008928571428,115.80740093354797L151.72433035714286,111.00951049624479L152.67857142857142,110.42240793247194L153.6328125,111.2158748233666L154.58705357142858,115.12948992596166L155.54129464285717,115.18602728891031L156.49553571428572,118.65748467473759L157.44977678571428,119.59445583678442L158.40401785714286,114.42747186734633L159.35825892857142,118.20235142179888L160.3125,119.32137588502087L161.26674107142856,122.28442226156197L162.22098214285714,122.91652165832875L163.17522321428572,119.8582463283312L164.1294642857143,121.4608160983903L165.08370535714286,127.00562135764318L166.03794642857144,125.74924111597747L166.9921875,122.70378127236967L167.94642857142856,125.45976876342175L168.90066964285714,117.94665962332745L169.8549107142857,113.43879413927151L170.80915178571428,115.31751308634543L171.76339285714286,115.29884118514023L172.71763392857144,112.9960063458092L173.671875,112.76003387136848L174.62611607142858,117.20188862421281L175.58035714285714,118.72109820646922L176.53459821428572,116.1950889877648L177.48883928571428,119.26292169405028L178.44308035714283,121.10362131782142L179.39732142857142,125.64557606014252L180.3515625,124.93321393747692L181.30580357142858,119.92235842636975L182.26004464285714,119.20765165860519L183.21428571428572,121.07045929655484L184.16852678571428,119.89651218071559L185.12276785714286,114.60870567370503L186.07700892857142,113.72765346810661L187.03125,110.90739044613852L187.98549107142858,116.09030256907468L188.93973214285717,115.7625148747781L189.89397321428572,116.71174552765004L190.84821428571428,116.13538064992365L191.80245535714286,113.49793002467942L192.75669642857142,115.35299461759082L193.7109375,122.19520004000465L194.66517857142856,126.30052329345247L195.61941964285714,125.3261822774632L196.57366071428572,119.01241100120316L197.5279017857143,122.09904333127264L198.48214285714286,114.7844959348801L199.43638392857144,112.68739919565346L200.390625,113.72077285072521L201.34486607142856,118.92406044098556L202.29910714285714,119.7544012965327L203.2533482142857,119.10687738070214L204.20758928571428,121.00999472981286L205.16183035714286,115.27679520316308L206.11607142857144,115.2744104552318L207.0703125,118.71051457453015L208.02455357142858,117.33464207805156L208.97879464285714,118.8007502787728L209.93303571428572,120.82631846865492L210.88727678571428,122.04165938258419L211.84151785714283,114.7500655656667L212.79575892857142,112.66674097412493L213.75,114.85428118725731L214.70424107142858,118.45843701374564L215.65848214285714,119.4750272401894L216.61272321428572,116.64744640799708L217.56696428571428,114.9508979086812L218.52120535714286,112.78724037993345L219.47544642857142,114.92658083074261L220.4296875,117.35591353038726L221.38392857142858,110.79271478489932L222.33816964285717,114.87559390288112L223.29241071428572,113.88778640561179L224.24665178571428,113.29510190725003L225.20089285714286,119.81456114435031L226.15513392857142,114.55953505188522L227.109375,118.28158933252254L228.06361607142856,117.07728693284666L229.01785714285714,118.64633719164985L229.97209821428572,119.58776734693177L230.9263392857143,120.1526254401006L231.88058035714286,120.49154029600174L232.83482142857144,118.40325751093451L233.7890625,118.29619110934419L234.74330357142856,113.6485130308809L235.69754464285714,120.026607818529L236.6517857142857,119.27020129390107L237.60602678571428,119.9620858082825L238.56026785714286,118.08558481830264L239.51450892857144,121.54294762153103L240.46875,124.76326857291842L241.42299107142858,127.84136441320055L242.37723214285714,126.25068694931174L243.33147321428572,121.85874550292034L244.28571428571428,123.80684403230165" style="fill: none;" fill="none"></path></g><g><path stroke="rgb(0, 119, 187)" stroke-width="2px" d="M20.0390625,191.98528941472358L20.99330357142857,155.33651194280512L21.947544642857142,129.26125454668968L22.901785714285715,106.53313214057037L23.856026785714285,94.70497615820564L24.810267857142858,82.00280702517645L25.76450892857143,73.55347011678371L26.71875,67.78647999132313L27.672991071428573,64.36370769415272L28.627232142857142,61.14711633946578L29.58147321428571,60.10916562329707L30.535714285714285,58.99537415788373L31.489955357142858,55.85210064509954L32.44419642857143,51.36224253405018L33.3984375,49.06038256214505L34.35267857142857,48.33089772654023L35.306919642857146,46.46084871382763L36.26116071428571,46.12017489071752L37.215401785714285,48.780471954151324L38.169642857142854,52.300922401984906L39.12388392857143,47.931553492051506L40.078125,45.30996895302411L41.03236607142858,44.64847823741914L41.98660714285714,45.78511436929307L42.940848214285715,44.67322953109672L43.895089285714285,42.05295694845515L44.849330357142854,42.95461191658063L45.80357142857143,46.36018893189626L46.7578125,41.50258651315349L47.71205357142857,38.457769714870665L48.66629464285714,35.84969341049805L49.620535714285715,34.15459173744844L50.574776785714285,32.486425521814226L51.52901785714286,31.847270392026843L52.48325892857143,31.362544791455605L53.4375,31.071709434311202L54.39174107142857,30.37635899133784L55.345982142857146,29.959148727207406L56.300223214285715,29.96915976347745L57.254464285714285,29.71482919121641L58.20870535714286,29.69248686510079L59.16294642857142,29.809162646234796L60.1171875,29.87916811489322L61.07142857142857,29.791090219309297L62.025669642857146,29.738243481964957L62.979910714285715,29.966872633376596L63.93415178571429,29.71345691335293L64.88839285714286,29.691663498394405L65.84263392857143,29.54833143236803L66.796875,29.592588209804603L67.75111607142857,29.61914227626525L68.70535714285714,29.504818699091487L69.65959821428572,29.566480569837893L70.61383928571429,29.603477692285367L71.56808035714286,29.495419948703898L72.52232142857142,29.430585302556153L73.4765625,29.521940531915874L74.43080357142857,29.706834846289496L75.38504464285714,29.817771434913823L76.33928571428571,29.88433338808875L77.29352678571429,29.895421911922284L78.24776785714286,29.930923674293325L79.20200892857143,29.69188753790951L80.15625,29.678721873128666L81.11049107142857,29.540566457210048L82.06473214285715,29.45767320766018L83.01897321428572,29.40793725792929L83.97321428571428,29.378095688090724L84.92745535714285,29.360190746187612L85.88169642857143,29.34944778104608L86.8359375,29.34300200196114L87.79017857142857,29.339134534509355L88.74441964285714,29.336814054039422L89.69866071428571,29.465677782806154L90.65290178571429,29.412740003017348L91.60714285714286,29.380977335143427L92.56138392857143,29.361919734419388L93.515625,29.350485173984794L94.46986607142858,29.343624437724202L95.42410714285714,29.339507995967864L96.37834821428571,29.4672941479632L97.33258928571428,29.543965839160563L98.28683035714286,29.45971283682951L99.24107142857143,29.409161035431225L100.1953125,29.37882995459188L101.14955357142857,29.360631306088464L102.10379464285714,29.349712116986097L103.05803571428572,29.34316060352532L104.01227678571429,29.599566889255016L104.96651785714286,29.49307346688616L105.92075892857142,29.429177413464714L106.875,29.390839781412495L107.82924107142857,29.367837202180652L108.78348214285714,29.354035654642047L109.73772321428571,29.34575472611857L110.69196428571429,29.340786169004303L111.64620535714286,29.337805034735766L112.60044642857143,29.33601635417446L113.5546875,29.334943145838338L114.50892857142857,29.3342992208365L115.46316964285715,29.3339128658354L116.41741071428572,29.33368105283489L117.37165178571428,29.333541965034442L118.32589285714285,29.333458512353673L119.28013392857143,29.3334084407457L120.234375,29.333378397780933L121.18861607142857,29.463616389051197L122.14285714285714,29.41150316676439L123.09709821428571,29.380235233391943L124.05133928571429,29.361474473368844L125.00558035714286,29.480474034403954L125.95982142857143,29.42161775397588L126.9140625,29.516560002768017L127.86830357142858,29.443269334994454L128.82254464285714,29.399294934329845L129.77678571428572,29.372910293931568L130.73102678571428,29.357079509692454L131.68526785714286,29.347581039148622L132.63950892857144,29.341881956822363L133.59375,29.338462507426414L134.54799107142856,29.336410837789344L135.50223214285714,29.33517983600663L136.4564732142857,29.334441234936975L137.41071428571428,29.333998074295693L138.36495535714286,29.33373217791106L139.31919642857144,29.33357264007998L140.2734375,29.33347691738132L141.22767857142858,29.33341948376213L142.18191964285714,29.333385023590438L143.13616071428572,29.33336434748776L144.09040178571428,29.463607958875315L145.04464285714283,29.41149810865852L145.99888392857142,29.38023219852812L146.953125,29.49172866949968L147.90736607142858,29.42837053503331L148.86160714285714,29.390355654353158L149.81584821428572,29.367546725945232L150.77008928571428,29.35386136890014L151.72433035714286,29.345650154673592L152.67857142857142,29.340723426137487L153.6328125,29.337767389015653L154.58705357142858,29.33599376674306L155.54129464285717,29.334929593379343L156.49553571428572,29.33429108936093L157.44977678571428,29.46416400399889L158.40401785714286,29.411831735732335L159.35825892857142,29.380432374772738L160.3125,29.491848775246297L161.26674107142856,29.428442598481098L162.22098214285714,29.390398892421842L163.17522321428572,29.367572668786437L164.1294642857143,29.35387693460487L165.08370535714286,29.34565949409594L166.03794642857144,29.340729029790737L166.9921875,29.337770751207444L167.94642857142856,29.335995784057957L168.90066964285714,29.334930803767804L169.8549107142857,29.334291815593986L170.80915178571428,29.333908422690058L171.76339285714286,29.333678386947554L172.71763392857144,29.333540365501847L173.671875,29.33345755263477L174.62611607142858,29.463663881963015L175.58035714285714,29.411531662511464L176.53459821428572,29.380252330840392L177.48883928571428,29.36148473183772L178.44308035714283,29.48048018948529L179.39732142857142,29.421621447024194L180.3515625,29.386306201547995L181.30580357142858,29.365117054261987L182.26004464285714,29.35240356589034L183.21428571428572,29.344775472867724L184.16852678571428,29.340198617053943L185.12276785714286,29.337452503565885L186.07700892857142,29.335804835473027L187.03125,29.334816234617477L187.98549107142858,29.46447909115281L188.93973214285717,29.41202078802533L189.89397321428572,29.380545806148234L190.84821428571428,29.361660817021942L191.80245535714286,29.350329823546673L192.75669642857142,29.343531227461L193.7109375,29.339452069809937L194.66517857142856,29.337004575219453L195.61941964285714,29.33553607846534L196.57366071428572,29.33465498041238L197.5279017857143,29.334126321580925L198.48214285714286,29.33380912628155L199.43638392857144,29.463874826151596L200.390625,29.411658229024454L201.34486607142856,29.38032827074801L202.29910714285714,29.36153029578196L203.2533482142857,29.350251510802508L204.20758928571428,29.343484239815012L205.16183035714286,29.339423877222316L206.11607142857144,29.336987659666562L207.0703125,29.33552592913344L208.02455357142858,29.334648890813384L208.97879464285714,29.334122667821703L209.93303571428572,29.333806934026512L210.88727678571428,29.333617493749557L211.84151785714283,29.333503829582753L212.79575892857142,29.33343563108332L213.75,29.333394711983658L214.70424107142858,29.333370160523515L215.65848214285714,29.33335542964744L216.61272321428572,29.333346591122137L217.56696428571428,29.33334128800678L218.52120535714286,29.333338106137575L219.47544642857142,29.333336197016024L220.4296875,29.333335051543287L221.38392857142858,29.333334364258974L222.33816964285717,29.463589968937555L223.29241071428572,29.541743331744698L224.24665178571428,29.45837933237999L225.20089285714286,29.408360932761155L226.15513392857142,29.37834989298986L227.109375,29.36034326912693L228.06361607142856,29.3495392948098L229.01785714285714,29.343056910219218L229.97209821428572,29.339167479464862L230.9263392857143,29.33683382101208L231.88058035714286,29.46568964298956L232.83482142857144,29.41274711912675L233.7890625,29.38098160480922L234.74330357142856,29.361922296219205L235.69754464285714,29.35048671106452L236.6517857142857,29.343625359972037L237.60602678571428,29.339508549316548L238.56026785714286,29.33703846292343L239.51450892857144,29.335556411087083L240.46875,29.33466717998556L241.42299107142858,29.46438965837399L242.37723214285714,29.4119671283579L243.33147321428572,29.380513610347748L244.28571428571428,29.491897516590797" style="fill: none;" fill="none"></path></g></g></g></g><g opacity="0.2"><g><g><g><path stroke="rgb(204, 51, 17)" stroke-width="2px" d="M19.084821428571427,146.78142484029124L20.0390625,184.02065849304185L20.99330357142857,132.45850817362458L21.947544642857142,149.64574591318757L22.901785714285715,132.45850817362458L23.856026785714285,146.78142484029124L24.810267857142858,143.91666666666657L25.76450892857143,146.78142484029124L26.71875,172.5624999999999L27.672991071428573,118.13559150695792L28.627232142857142,123.86467075347892L29.58147321428571,198.3435751597085L30.535714285714285,120.99991257985425L31.489955357142858,141.05190849304188L32.44419642857143,184.02065849304185L33.3984375,135.3228292465209L34.35267857142857,129.59374999999991L35.306919642857146,123.86467075347892L36.26116071428571,215.53124999999983L37.215401785714285,155.37482515970856L38.169642857142854,161.1043415069579L39.12388392857143,132.45850817362458L40.078125,138.18758742014558L41.03236607142858,126.72899182637525L41.98660714285714,166.8334207534789L42.940848214285715,189.7501748402912L43.895089285714285,149.64574591318757L44.849330357142854,146.78142484029124L45.80357142857143,132.45850817362458L46.7578125,126.72899182637525L47.71205357142857,123.86467075347892L48.66629464285714,123.86467075347892L49.620535714285715,112.40607515970859L50.574776785714285,126.72899182637525L51.52901785714286,141.05190849304188L52.48325892857143,120.99991257985425L53.4375,109.54175408681226L54.39174107142857,120.99991257985425L55.345982142857146,123.86467075347892L56.300223214285715,129.59374999999991L57.254464285714285,132.45850817362458L58.20870535714286,126.72899182637525L59.16294642857142,118.13559150695792L60.1171875,115.27083333333326L61.07142857142857,129.59374999999991L62.025669642857146,109.54175408681226L62.979910714285715,118.13559150695792L63.93415178571429,126.72899182637525L64.88839285714286,106.6769959131876L65.84263392857143,126.72899182637525L66.796875,126.72899182637525L67.75111607142857,112.40607515970859L68.70535714285714,120.99991257985425L69.65959821428572,120.99991257985425L70.61383928571429,126.72899182637525L71.56808035714286,126.72899182637525L72.52232142857142,118.13559150695792L73.4765625,123.86467075347892L74.43080357142857,109.54175408681226L75.38504464285714,118.13559150695792L76.33928571428571,120.99991257985425L77.29352678571429,120.99991257985425L78.24776785714286,118.13559150695792L79.20200892857143,120.99991257985425L80.15625,103.81267484029128L81.11049107142857,120.99991257985425L82.06473214285715,120.99991257985425L83.01897321428572,129.59374999999991L83.97321428571428,126.72899182637525L84.92745535714285,118.13559150695792L85.88169642857143,129.59374999999991L86.8359375,115.27083333333326L87.79017857142857,120.99991257985425L88.74441964285714,120.99991257985425L89.69866071428571,109.54175408681226L90.65290178571429,138.18758742014558L91.60714285714286,126.72899182637525L92.56138392857143,118.13559150695792L93.515625,109.54175408681226L94.46986607142858,120.99991257985425L95.42410714285714,126.72899182637525L96.37834821428571,103.81267484029128L97.33258928571428,106.6769959131876L98.28683035714286,123.86467075347892L99.24107142857143,129.59374999999991L100.1953125,115.27083333333326L101.14955357142857,118.13559150695792L102.10379464285714,118.13559150695792L103.05803571428572,106.6769959131876L104.01227678571429,120.99991257985425L104.96651785714286,123.86467075347892L105.92075892857142,120.99991257985425L106.875,129.59374999999991L107.82924107142857,106.6769959131876L108.78348214285714,115.27083333333326L109.73772321428571,118.13559150695792L110.69196428571429,109.54175408681226L111.64620535714286,112.40607515970859L112.60044642857143,118.13559150695792L113.5546875,126.72899182637525L114.50892857142857,120.99991257985425L115.46316964285715,118.13559150695792L116.41741071428572,112.40607515970859L117.37165178571428,109.54175408681226L118.32589285714285,132.45850817362458L119.28013392857143,118.13559150695792L120.234375,115.27083333333326L121.18861607142857,129.59374999999991L122.14285714285714,120.99991257985425L123.09709821428571,112.40607515970859L124.05133928571429,123.86467075347892L125.00558035714286,126.72899182637525L125.95982142857143,118.13559150695792L126.9140625,112.40607515970859L127.86830357142858,123.86467075347892L128.82254464285714,112.40607515970859L129.77678571428572,112.40607515970859L130.73102678571428,106.6769959131876L131.68526785714286,129.59374999999991L132.63950892857144,112.40607515970859L133.59375,109.54175408681226L134.54799107142856,129.59374999999991L135.50223214285714,118.13559150695792L136.4564732142857,118.13559150695792L137.41071428571428,109.54175408681226L138.36495535714286,123.86467075347892L139.31919642857144,106.6769959131876L140.2734375,123.86467075347892L141.22767857142858,123.86467075347892L142.18191964285714,118.13559150695792L143.13616071428572,129.59374999999991L144.09040178571428,115.27083333333326L145.04464285714283,120.99991257985425L145.99888392857142,120.99991257985425L146.953125,120.99991257985425L147.90736607142858,115.27083333333326L148.86160714285714,112.40607515970859L149.81584821428572,120.99991257985425L150.77008928571428,112.40607515970859L151.72433035714286,103.81267484029128L152.67857142857142,109.54175408681226L153.6328125,112.40607515970859L154.58705357142858,120.99991257985425L155.54129464285717,115.27083333333326L156.49553571428572,123.86467075347892L157.44977678571428,120.99991257985425L158.40401785714286,106.6769959131876L159.35825892857142,123.86467075347892L160.3125,120.99991257985425L161.26674107142856,126.72899182637525L162.22098214285714,123.86467075347892L163.17522321428572,115.27083333333326L164.1294642857143,123.86467075347892L165.08370535714286,135.3228292465209L166.03794642857144,123.86467075347892L166.9921875,118.13559150695792L167.94642857142856,129.59374999999991L168.90066964285714,106.6769959131876L169.8549107142857,106.6769959131876L170.80915178571428,118.13559150695792L171.76339285714286,115.27083333333326L172.71763392857144,109.54175408681226L173.671875,112.40607515970859L174.62611607142858,123.86467075347892L175.58035714285714,120.99991257985425L176.53459821428572,112.40607515970859L177.48883928571428,123.86467075347892L178.44308035714283,123.86467075347892L179.39732142857142,132.45850817362458L180.3515625,123.86467075347892L181.30580357142858,112.40607515970859L182.26004464285714,118.13559150695792L183.21428571428572,123.86467075347892L184.16852678571428,118.13559150695792L185.12276785714286,106.6769959131876L186.07700892857142,112.40607515970859L187.03125,106.6769959131876L187.98549107142858,123.86467075347892L188.93973214285717,115.27083333333326L189.89397321428572,118.13559150695792L190.84821428571428,115.27083333333326L191.80245535714286,109.54175408681226L192.75669642857142,118.13559150695792L193.7109375,132.45850817362458L194.66517857142856,132.45850817362458L195.61941964285714,123.86467075347892L196.57366071428572,109.54175408681226L197.5279017857143,126.72899182637525L198.48214285714286,103.81267484029128L199.43638392857144,109.54175408681226L200.390625,115.27083333333326L201.34486607142856,126.72899182637525L202.29910714285714,120.99991257985425L203.2533482142857,118.13559150695792L204.20758928571428,123.86467075347892L205.16183035714286,106.6769959131876L206.11607142857144,115.27083333333326L207.0703125,123.86467075347892L208.02455357142858,115.27083333333326L208.97879464285714,120.99991257985425L209.93303571428572,123.86467075347892L210.88727678571428,123.86467075347892L211.84151785714283,103.81267484029128L212.79575892857142,109.54175408681226L213.75,118.13559150695792L214.70424107142858,123.86467075347892L215.65848214285714,120.99991257985425L216.61272321428572,112.40607515970859L217.56696428571428,112.40607515970859L218.52120535714286,109.54175408681226L219.47544642857142,118.13559150695792L220.4296875,120.99991257985425L221.38392857142858,100.9479166666666L222.33816964285717,120.99991257985425L223.29241071428572,112.40607515970859L224.24665178571428,112.40607515970859L225.20089285714286,129.59374999999991L226.15513392857142,106.6769959131876L227.109375,123.86467075347892L228.06361607142856,115.27083333333326L229.01785714285714,120.99991257985425L229.97209821428572,120.99991257985425L230.9263392857143,120.99991257985425L231.88058035714286,120.99991257985425L232.83482142857144,115.27083333333326L233.7890625,118.13559150695792L234.74330357142856,106.6769959131876L235.69754464285714,129.59374999999991L236.6517857142857,118.13559150695792L237.60602678571428,120.99991257985425L238.56026785714286,115.27083333333326L239.51450892857144,126.72899182637525L240.46875,129.59374999999991L241.42299107142858,132.45850817362458L242.37723214285714,123.86467075347892L243.33147321428572,115.27083333333326L244.28571428571428,126.72899182637525" style="fill: none;" fill="none"></path></g><g><path stroke="rgb(0, 119, 187)" stroke-width="2px" d="M19.084821428571427,281.8652194341022L20.0390625,138.0573314030964L20.99330357142857,120.1536855697631L21.947544642857142,98.59675184885654L22.901785714285715,76.85929552714026L23.856026785714285,78.34237829844152L24.810267857142858,63.838501930236774L25.76450892857143,61.234255790710435L26.71875,59.28128973642981L27.672991071428573,59.28128973642981L28.627232142857142,56.35140355428058L29.58147321428571,58.557888031005845L30.535714285714285,57.32832368214923L31.489955357142858,51.14334837595621L32.44419642857143,44.63273302714029L33.3984375,45.60921605428058L34.35267857142857,47.23697916666666L35.306919642857146,43.65624999999997L36.26116071428571,45.60921605428058L37.215401785714285,52.77067438761392L38.169642857142854,57.58140500386554L39.12388392857143,41.3776439030965L40.078125,41.3776439030965L41.03236607142858,43.65624999999997L41.98660714285714,47.490060488382966L42.940848214285715,43.005407015482575L43.895089285714285,38.122554779052734L44.849330357142854,44.307092984517396L45.80357142857143,51.46855131785074L46.7578125,34.216185569763184L47.71205357142857,33.89054552714029L48.66629464285714,31.93757947285968L49.620535714285715,31.611939430236816L50.574776785714285,29.984176317850768L51.52901785714286,30.888537724812807L52.48325892857143,30.635456403096498L53.4375,30.635456403096498L54.39174107142857,29.333333333333314L55.345982142857146,29.333333333333314L56.300223214285715,29.984176317850768L57.254464285714285,29.333333333333314L58.20870535714286,29.658973375956236L59.16294642857142,29.984176317850768L60.1171875,29.984176317850768L61.07142857142857,29.658973375956236L62.025669642857146,29.658973375956236L62.979910714285715,30.309816360473633L63.93415178571429,29.333333333333314L64.88839285714286,29.658973375956236L65.84263392857143,29.333333333333314L66.796875,29.658973375956236L67.75111607142857,29.658973375956236L68.70535714285714,29.333333333333314L69.65959821428572,29.658973375956236L70.61383928571429,29.658973375956236L71.56808035714286,29.333333333333314L72.52232142857142,29.333333333333314L73.4765625,29.658973375956236L74.43080357142857,29.984176317850768L75.38504464285714,29.984176317850768L76.33928571428571,29.984176317850768L77.29352678571429,29.912054697672545L78.24776785714286,29.984176317850768L79.20200892857143,29.333333333333314L80.15625,29.658973375956236L81.11049107142857,29.333333333333314L82.06473214285715,29.333333333333314L83.01897321428572,29.333333333333314L83.97321428571428,29.333333333333314L84.92745535714285,29.333333333333314L85.88169642857143,29.333333333333314L86.8359375,29.333333333333314L87.79017857142857,29.333333333333314L88.74441964285714,29.333333333333314L89.69866071428571,29.658973375956236L90.65290178571429,29.333333333333314L91.60714285714286,29.333333333333314L92.56138392857143,29.333333333333314L93.515625,29.333333333333314L94.46986607142858,29.333333333333314L95.42410714285714,29.333333333333314L96.37834821428571,29.658973375956236L97.33258928571428,29.658973375956236L98.28683035714286,29.333333333333314L99.24107142857143,29.333333333333314L100.1953125,29.333333333333314L101.14955357142857,29.333333333333314L102.10379464285714,29.333333333333314L103.05803571428572,29.333333333333314L104.01227678571429,29.984176317850768L104.96651785714286,29.333333333333314L105.92075892857142,29.333333333333314L106.875,29.333333333333314L107.82924107142857,29.333333333333314L108.78348214285714,29.333333333333314L109.73772321428571,29.333333333333314L110.69196428571429,29.333333333333314L111.64620535714286,29.333333333333314L112.60044642857143,29.333333333333314L113.5546875,29.333333333333314L114.50892857142857,29.333333333333314L115.46316964285715,29.333333333333314L116.41741071428572,29.333333333333314L117.37165178571428,29.333333333333314L118.32589285714285,29.333333333333314L119.28013392857143,29.333333333333314L120.234375,29.333333333333314L121.18861607142857,29.658973375956236L122.14285714285714,29.333333333333314L123.09709821428571,29.333333333333314L124.05133928571429,29.333333333333314L125.00558035714286,29.658973375956236L125.95982142857143,29.333333333333314L126.9140625,29.658973375956236L127.86830357142858,29.333333333333314L128.82254464285714,29.333333333333314L129.77678571428572,29.333333333333314L130.73102678571428,29.333333333333314L131.68526785714286,29.333333333333314L132.63950892857144,29.333333333333314L133.59375,29.333333333333314L134.54799107142856,29.333333333333314L135.50223214285714,29.333333333333314L136.4564732142857,29.333333333333314L137.41071428571428,29.333333333333314L138.36495535714286,29.333333333333314L139.31919642857144,29.333333333333314L140.2734375,29.333333333333314L141.22767857142858,29.333333333333314L142.18191964285714,29.333333333333314L143.13616071428572,29.333333333333314L144.09040178571428,29.658973375956236L145.04464285714283,29.333333333333314L145.99888392857142,29.333333333333314L146.953125,29.658973375956236L147.90736607142858,29.333333333333314L148.86160714285714,29.333333333333314L149.81584821428572,29.333333333333314L150.77008928571428,29.333333333333314L151.72433035714286,29.333333333333314L152.67857142857142,29.333333333333314L153.6328125,29.333333333333314L154.58705357142858,29.333333333333314L155.54129464285717,29.333333333333314L156.49553571428572,29.333333333333314L157.44977678571428,29.658973375956236L158.40401785714286,29.333333333333314L159.35825892857142,29.333333333333314L160.3125,29.658973375956236L161.26674107142856,29.333333333333314L162.22098214285714,29.333333333333314L163.17522321428572,29.333333333333314L164.1294642857143,29.333333333333314L165.08370535714286,29.333333333333314L166.03794642857144,29.333333333333314L166.9921875,29.333333333333314L167.94642857142856,29.333333333333314L168.90066964285714,29.333333333333314L169.8549107142857,29.333333333333314L170.80915178571428,29.333333333333314L171.76339285714286,29.333333333333314L172.71763392857144,29.333333333333314L173.671875,29.333333333333314L174.62611607142858,29.658973375956236L175.58035714285714,29.333333333333314L176.53459821428572,29.333333333333314L177.48883928571428,29.333333333333314L178.44308035714283,29.658973375956236L179.39732142857142,29.333333333333314L180.3515625,29.333333333333314L181.30580357142858,29.333333333333314L182.26004464285714,29.333333333333314L183.21428571428572,29.333333333333314L184.16852678571428,29.333333333333314L185.12276785714286,29.333333333333314L186.07700892857142,29.333333333333314L187.03125,29.333333333333314L187.98549107142858,29.658973375956236L188.93973214285717,29.333333333333314L189.89397321428572,29.333333333333314L190.84821428571428,29.333333333333314L191.80245535714286,29.333333333333314L192.75669642857142,29.333333333333314L193.7109375,29.333333333333314L194.66517857142856,29.333333333333314L195.61941964285714,29.333333333333314L196.57366071428572,29.333333333333314L197.5279017857143,29.333333333333314L198.48214285714286,29.333333333333314L199.43638392857144,29.658973375956236L200.390625,29.333333333333314L201.34486607142856,29.333333333333314L202.29910714285714,29.333333333333314L203.2533482142857,29.333333333333314L204.20758928571428,29.333333333333314L205.16183035714286,29.333333333333314L206.11607142857144,29.333333333333314L207.0703125,29.333333333333314L208.02455357142858,29.333333333333314L208.97879464285714,29.333333333333314L209.93303571428572,29.333333333333314L210.88727678571428,29.333333333333314L211.84151785714283,29.333333333333314L212.79575892857142,29.333333333333314L213.75,29.333333333333314L214.70424107142858,29.333333333333314L215.65848214285714,29.333333333333314L216.61272321428572,29.333333333333314L217.56696428571428,29.333333333333314L218.52120535714286,29.333333333333314L219.47544642857142,29.333333333333314L220.4296875,29.333333333333314L221.38392857142858,29.333333333333314L222.33816964285717,29.658973375956236L223.29241071428572,29.658973375956236L224.24665178571428,29.333333333333314L225.20089285714286,29.333333333333314L226.15513392857142,29.333333333333314L227.109375,29.333333333333314L228.06361607142856,29.333333333333314L229.01785714285714,29.333333333333314L229.97209821428572,29.333333333333314L230.9263392857143,29.333333333333314L231.88058035714286,29.658973375956236L232.83482142857144,29.333333333333314L233.7890625,29.333333333333314L234.74330357142856,29.333333333333314L235.69754464285714,29.333333333333314L236.6517857142857,29.333333333333314L237.60602678571428,29.333333333333314L238.56026785714286,29.333333333333314L239.51450892857144,29.333333333333314L240.46875,29.333333333333314L241.42299107142858,29.658973375956236L242.37723214285714,29.333333333333314L243.33147321428572,29.333333333333314L244.28571428571428,29.658973375956236" style="fill: none;" fill="none"></path></g></g></g></g></g></g><g transform="translate(62, 176)" clip-path="url(#clip_1)"><clipPath id="clip_1"><rect width="267" height="24"></rect></clipPath><g><g><line x1="0" y1="0" x2="0" y2="5" style="visibility: inherit;" fill="rgb(0, 0, 0)" stroke="rgb(204, 204, 204)" stroke-width="1px"></line><line x1="19.084821428571427" y1="0" x2="19.084821428571427" y2="5" style="visibility: inherit;" fill="rgb(0, 0, 0)" stroke="rgb(204, 204, 204)" stroke-width="1px"></line><line x1="38.169642857142854" y1="0" x2="38.169642857142854" y2="5" style="visibility: inherit;" fill="rgb(0, 0, 0)" stroke="rgb(204, 204, 204)" stroke-width="1px"></line><line x1="57.254464285714285" y1="0" x2="57.254464285714285" y2="5" style="visibility: inherit;" fill="rgb(0, 0, 0)" stroke="rgb(204, 204, 204)" stroke-width="1px"></line><line x1="76.33928571428571" y1="0" x2="76.33928571428571" y2="5" style="visibility: inherit;" fill="rgb(0, 0, 0)" stroke="rgb(204, 204, 204)" stroke-width="1px"></line><line x1="95.42410714285714" y1="0" x2="95.42410714285714" y2="5" style="visibility: inherit;" fill="rgb(0, 0, 0)" stroke="rgb(204, 204, 204)" stroke-width="1px"></line><line x1="114.50892857142857" y1="0" x2="114.50892857142857" y2="5" style="visibility: inherit;" fill="rgb(0, 0, 0)" stroke="rgb(204, 204, 204)" stroke-width="1px"></line><line x1="133.59375" y1="0" x2="133.59375" y2="5" style="visibility: inherit;" fill="rgb(0, 0, 0)" stroke="rgb(204, 204, 204)" stroke-width="1px"></line><line x1="152.67857142857142" y1="0" x2="152.67857142857142" y2="5" style="visibility: inherit;" fill="rgb(0, 0, 0)" stroke="rgb(204, 204, 204)" stroke-width="1px"></line><line x1="171.76339285714286" y1="0" x2="171.76339285714286" y2="5" style="visibility: inherit;" fill="rgb(0, 0, 0)" stroke="rgb(204, 204, 204)" stroke-width="1px"></line><line x1="190.84821428571428" y1="0" x2="190.84821428571428" y2="5" style="visibility: inherit;" fill="rgb(0, 0, 0)" stroke="rgb(204, 204, 204)" stroke-width="1px"></line><line x1="209.93303571428572" y1="0" x2="209.93303571428572" y2="5" style="visibility: inherit;" fill="rgb(0, 0, 0)" stroke="rgb(204, 204, 204)" stroke-width="1px"></line><line x1="229.01785714285714" y1="0" x2="229.01785714285714" y2="5" style="visibility: inherit;" fill="rgb(0, 0, 0)" stroke="rgb(204, 204, 204)" stroke-width="1px"></line><line x1="248.10267857142858" y1="0" x2="248.10267857142858" y2="5" style="visibility: inherit;" fill="rgb(0, 0, 0)" stroke="rgb(204, 204, 204)" stroke-width="1px"></line><line x1="267.1875" y1="0" x2="267.1875" y2="5" style="visibility: inherit;" fill="rgb(0, 0, 0)" stroke="rgb(204, 204, 204)" stroke-width="1px"></line></g><g transform="translate(0, 8)"><text x="0" y="0" dx="0em" dy="0.95em" style="text-anchor: middle; visibility: hidden; font-family: &quot;Helvetica Neue&quot;, sans-serif; font-size: 12px; font-weight: 200;" fill="rgb(50, 49, 63)" stroke="none" stroke-width="1px">-20</text><text x="19.084821428571427" y="0" dx="0em" dy="0.95em" style="text-anchor: middle; visibility: inherit; font-family: &quot;Helvetica Neue&quot;, sans-serif; font-size: 12px; font-weight: 200;" fill="rgb(50, 49, 63)" stroke="none" stroke-width="1px">0</text><text x="38.169642857142854" y="0" dx="0em" dy="0.95em" style="text-anchor: middle; visibility: hidden; font-family: &quot;Helvetica Neue&quot;, sans-serif; font-size: 12px; font-weight: 200;" fill="rgb(50, 49, 63)" stroke="none" stroke-width="1px">20</text><text x="57.254464285714285" y="0" dx="0em" dy="0.95em" style="text-anchor: middle; visibility: inherit; font-family: &quot;Helvetica Neue&quot;, sans-serif; font-size: 12px; font-weight: 200;" fill="rgb(50, 49, 63)" stroke="none" stroke-width="1px">40</text><text x="76.33928571428571" y="0" dx="0em" dy="0.95em" style="text-anchor: middle; visibility: hidden; font-family: &quot;Helvetica Neue&quot;, sans-serif; font-size: 12px; font-weight: 200;" fill="rgb(50, 49, 63)" stroke="none" stroke-width="1px">60</text><text x="95.42410714285714" y="0" dx="0em" dy="0.95em" style="text-anchor: middle; visibility: inherit; font-family: &quot;Helvetica Neue&quot;, sans-serif; font-size: 12px; font-weight: 200;" fill="rgb(50, 49, 63)" stroke="none" stroke-width="1px">80</text><text x="114.50892857142857" y="0" dx="0em" dy="0.95em" style="text-anchor: middle; visibility: hidden; font-family: &quot;Helvetica Neue&quot;, sans-serif; font-size: 12px; font-weight: 200;" fill="rgb(50, 49, 63)" stroke="none" stroke-width="1px">100</text><text x="133.59375" y="0" dx="0em" dy="0.95em" style="text-anchor: middle; visibility: inherit; font-family: &quot;Helvetica Neue&quot;, sans-serif; font-size: 12px; font-weight: 200;" fill="rgb(50, 49, 63)" stroke="none" stroke-width="1px">120</text><text x="152.67857142857142" y="0" dx="0em" dy="0.95em" style="text-anchor: middle; visibility: hidden; font-family: &quot;Helvetica Neue&quot;, sans-serif; font-size: 12px; font-weight: 200;" fill="rgb(50, 49, 63)" stroke="none" stroke-width="1px">140</text><text x="171.76339285714286" y="0" dx="0em" dy="0.95em" style="text-anchor: middle; visibility: inherit; font-family: &quot;Helvetica Neue&quot;, sans-serif; font-size: 12px; font-weight: 200;" fill="rgb(50, 49, 63)" stroke="none" stroke-width="1px">160</text><text x="190.84821428571428" y="0" dx="0em" dy="0.95em" style="text-anchor: middle; visibility: hidden; font-family: &quot;Helvetica Neue&quot;, sans-serif; font-size: 12px; font-weight: 200;" fill="rgb(50, 49, 63)" stroke="none" stroke-width="1px">180</text><text x="209.93303571428572" y="0" dx="0em" dy="0.95em" style="text-anchor: middle; visibility: inherit; font-family: &quot;Helvetica Neue&quot;, sans-serif; font-size: 12px; font-weight: 200;" fill="rgb(50, 49, 63)" stroke="none" stroke-width="1px">200</text><text x="229.01785714285714" y="0" dx="0em" dy="0.95em" style="text-anchor: middle; visibility: hidden; font-family: &quot;Helvetica Neue&quot;, sans-serif; font-size: 12px; font-weight: 200;" fill="rgb(50, 49, 63)" stroke="none" stroke-width="1px">220</text><text x="248.10267857142858" y="0" dx="0em" dy="0.95em" style="text-anchor: middle; visibility: inherit; font-family: &quot;Helvetica Neue&quot;, sans-serif; font-size: 12px; font-weight: 200;" fill="rgb(50, 49, 63)" stroke="none" stroke-width="1px">240</text><text x="267.1875" y="0" dx="0em" dy="0.95em" style="text-anchor: middle; visibility: hidden; font-family: &quot;Helvetica Neue&quot;, sans-serif; font-size: 12px; font-weight: 200;" fill="rgb(50, 49, 63)" stroke="none" stroke-width="1px">260</text></g><line x1="0" y1="0" x2="267.1875" y2="0" fill="rgb(0, 0, 0)" stroke="rgb(204, 204, 204)" stroke-width="1px"></line></g></g></g></g></svg>