<svg viewBox="0 0 330 200" xmlns="http://www.w3.org/2000/svg"><g><g><g><g><g><line x1="62.8125" y1="176" x2="57.8125" y2="176" style="visibility: inherit;" fill="rgb(0, 0, 0)" stroke="rgb(204, 204, 204)" stroke-width="1px"></line><line x1="62.8125" y1="156.44444444444446" x2="57.8125" y2="156.44444444444446" style="visibility: inherit;" fill="rgb(0, 0, 0)" stroke="rgb(204, 204, 204)" stroke-width="1px"></line><line x1="62.8125" y1="136.88888888888889" x2="57.8125" y2="136.88888888888889" style="visibility: inherit;" fill="rgb(0, 0, 0)" stroke="rgb(204, 204, 204)" stroke-width="1px"></line><line x1="62.8125" y1="117.33333333333334" x2="57.8125" y2="117.33333333333334" style="visibility: inherit;" fill="rgb(0, 0, 0)" stroke="rgb(204, 204, 204)" stroke-width="1px"></line><line x1="62.8125" y1="97.77777777777777" x2="57.8125" y2="97.77777777777777" style="visibility: inherit;" fill="rgb(0, 0, 0)" stroke="rgb(204, 204, 204)" stroke-width="1px"></line><line x1="62.8125" y1="78.22222222222221" x2="57.8125" y2="78.22222222222221" style="visibility: inherit;" fill="rgb(0, 0, 0)" stroke="rgb(204, 204, 204)" stroke-width="1px"></line><line x1="62.8125" y1="58.66666666666666" x2="57.8125" y2="58.66666666666666" style="visibility: inherit;" fill="rgb(0, 0, 0)" stroke="rgb(204, 204, 204)" stroke-width="1px"></line><line x1="62.8125" y1="39.11111111111114" x2="57.8125" y2="39.11111111111114" style="visibility: inherit;" fill="rgb(0, 0, 0)" stroke="rgb(204, 204, 204)" stroke-width="1px"></line><line x1="62.8125" y1="19.555555555555543" x2="57.8125" y2="19.555555555555543" style="visibility: inherit;" fill="rgb(0, 0, 0)" stroke="rgb(204, 204, 204)" stroke-width="1px"></line><line x1="62.8125" y1="0" x2="57.8125" y2="0" style="visibility: inherit;" fill="rgb(0, 0, 0)" stroke="rgb(204, 204, 204)" stroke-width="1px"></line></g><g transform="translate(52.8125, 0)"><text x="0" y="176" dx="0em" dy="0.3em" style="text-anchor: end; visibility: hidden; font-family: &quot;Helvetica Neue&quot;, sans-serif; font-size: 12px; font-weight: 200;" fill="rgb(50, 49, 63)" stroke="none" stroke-width="1px">-0.01</text><text x="0" y="156.44444444444446" dx="0em" dy="0.3em" style="text-anchor: end; visibility: inherit; font-family: &quot;Helvetica Neue&quot;, sans-serif; font-size: 12px; font-weight: 200;" fill="rgb(50, 49, 63)" stroke="none" stroke-width="1px">0</text><text x="0" y="136.88888888888889" dx="0em" dy="0.3em" style="text-anchor: end; visibility: hidden; font-family: &quot;Helvetica Neue&quot;, sans-serif; font-size: 12px; font-weight: 200;" fill="rgb(50, 49, 63)" stroke="none" stroke-width="1px">0.01</text><text x="0" y="117.33333333333334" dx="0em" dy="0.3em" style="text-anchor: end; visibility: inherit; font-family: &quot;Helvetica Neue&quot;, sans-serif; font-size: 12px; font-weight: 200;" fill="rgb(50, 49, 63)" stroke="none" stroke-width="1px">0.02</text><text x="0" y="97.77777777777777" dx="0em" dy="0.3em" style="text-anchor: end; visibility: hidden; font-family: &quot;Helvetica Neue&quot;, sans-serif; font-size: 12px; font-weight: 200;" fill="rgb(50, 49, 63)" stroke="none" stroke-width="1px">0.03</text><text x="0" y="78.22222222222221" dx="0em" dy="0.3em" style="text-anchor: end; visibility: inherit; font-family: &quot;Helvetica Neue&quot;, sans-serif; font-size: 12px; font-weight: 200;" fill="rgb(50, 49, 63)" stroke="none" stroke-width="1px">0.04</text><text x="0" y="58.66666666666666" dx="0em" dy="0.3em" style="text-anchor: end; visibility: hidden; font-family: &quot;Helvetica Neue&quot;, sans-serif; font-size: 12px; font-weight: 200;" fill="rgb(50, 49, 63)" stroke="none" stroke-width="1px">0.05</text><text x="0" y="39.11111111111114" dx="0em" dy="0.3em" style="text-anchor: end; visibility: inherit; font-family: &quot;Helvetica Neue&quot;, sans-serif; font-size: 12px; font-weight: 200;" fill="rgb(50, 49, 63)" stroke="none" stroke-width="1px">0.06</text><text x="0" y="19.555555555555543" dx="0em" dy="0.3em" style="text-anchor: end; visibility: hidden; font-family: &quot;Helvetica Neue&quot;, sans-serif; font-size: 12px; font-weight: 200;" fill="rgb(50, 49, 63)" stroke="none" stroke-width="1px">0.07</text><text x="0" y="0" dx="0em" dy="0.3em" style="text-anchor: end; visibility: hidden; font-family: &quot;Helvetica Neue&quot;, sans-serif; font-size: 12px; font-weight: 200;" fill="rgb(50, 49, 63)" stroke="none" stroke-width="1px">0.08</text></g><line x1="62.8125" y1="0" x2="62.8125" y2="176" fill="rgb(0, 0, 0)" stroke="rgb(204, 204, 204)" stroke-width="1px"></line></g></g><g transform="translate(62, 0)" clip-path="url(#clip_0)"><clipPath id="clip_0"><rect width="267" height="176"></rect></clipPath><g><g><g><line x1="0" y1="0" x2="0" y2="176" fill="rgb(0, 0, 0)" stroke="rgb(60, 60, 60)" stroke-width="1px" opacity="0.25"></line><line x1="22.265625" y1="0" x2="22.265625" y2="176" fill="rgb(0, 0, 0)" stroke="rgb(60, 60, 60)" stroke-width="1px" opacity="0.25"></line><line x1="44.53125" y1="0" x2="44.53125" y2="176" fill="rgb(0, 0, 0)" stroke="rgb(60, 60, 60)" stroke-width="1px" opacity="0.25"></line><line x1="66.796875" y1="0" x2="66.796875" y2="176" fill="rgb(0, 0, 0)" stroke="rgb(60, 60, 60)" stroke-width="1px" opacity="0.25"></line><line x1="89.0625" y1="0" x2="89.0625" y2="176" fill="rgb(0, 0, 0)" stroke="rgb(60, 60, 60)" stroke-width="1px" opacity="0.25"></line><line x1="111.328125" y1="0" x2="111.328125" y2="176" fill="rgb(0, 0, 0)" stroke="rgb(60, 60, 60)" stroke-width="1px" opacity="0.25"></line><line x1="133.59375" y1="0" x2="133.59375" y2="176" fill="rgb(0, 0, 0)" stroke="rgb(60, 60, 60)" stroke-width="1px" opacity="0.25"></line><line x1="155.859375" y1="0" x2="155.859375" y2="176" fill="rgb(0, 0, 0)" stroke="rgb(60, 60, 60)" stroke-width="1px" opacity="0.25"></line><line x1="178.125" y1="0" x2="178.125" y2="176" fill="rgb(0, 0, 0)" stroke="rgb(60, 60, 60)" stroke-width="1px" opacity="0.25"></line><line x1="200.390625" y1="0" x2="200.390625" y2="176" fill="rgb(0, 0, 0)" stroke="rgb(60, 60, 60)" stroke-width="1px" opacity="0.25"></line><line x1="222.65625" y1="0" x2="222.65625" y2="176" fill="rgb(0, 0, 0)" stroke="rgb(60, 60, 60)" stroke-width="1px" opacity="0.25"></line><line x1="244.921875" y1="0" x2="244.921875" y2="176" fill="rgb(0, 0, 0)" stroke="rgb(60, 60, 60)" stroke-width="1px" opacity="0.25"></line><line x1="267.1875" y1="0" x2="267.1875" y2="176" fill="rgb(0, 0, 0)" stroke="rgb(60, 60, 60)" stroke-width="1px" opacity="0.25"></line></g><g><line x1="0" y1="176" x2="267.1875" y2="176" fill="rgb(0, 0, 0)" stroke="rgb(60, 60, 60)" stroke-width="1px" opacity="0.25"></line><line x1="0" y1="156.44444444444446" x2="267.1875" y2="156.44444444444446" fill="rgb(0, 0, 0)" stroke="rgb(60, 60, 60)" stroke-width="1px" opacity="0.25"></line><line x1="0" y1="136.88888888888889" x2="267.1875" y2="136.88888888888889" fill="rgb(0, 0, 0)" stroke="rgb(60, 60, 60)" stroke-width="1px" opacity="0.25"></line><line x1="0" y1="117.33333333333334" x2="267.1875" y2="117.33333333333334" fill="rgb(0, 0, 0)" stroke="rgb(60, 60, 60)" stroke-width="1px" opacity="0.25"></line><line x1="0" y1="97.77777777777777" x2="267.1875" y2="97.77777777777777" fill="rgb(0, 0, 0)" stroke="rgb(60, 60, 60)" stroke-width="1px" opacity="0.25"></line><line x1="0" y1="78.22222222222221" x2="267.1875" y2="78.22222222222221" fill="rgb(0, 0, 0)" stroke="rgb(60, 60, 60)" stroke-width="1px" opacity="0.25"></line><line x1="0" y1="58.66666666666666" x2="267.1875" y2="58.66666666666666" fill="rgb(0, 0, 0)" stroke="rgb(60, 60, 60)" stroke-width="1px" opacity="0.25"></line><line x1="0" y1="39.11111111111114" x2="267.1875" y2="39.11111111111114" fill="rgb(0, 0, 0)" stroke="rgb(60, 60, 60)" stroke-width="1px" opacity="0.25"></line><line x1="0" y1="19.555555555555543" x2="267.1875" y2="19.555555555555543" fill="rgb(0, 0, 0)" stroke="rgb(60, 60, 60)" stroke-width="1px" opacity="0.25"></line><line x1="0" y1="0" x2="267.1875" y2="0" fill="rgb(0, 0, 0)" stroke="rgb(60, 60, 60)" stroke-width="1px" opacity="0.25"></line></g></g></g><g><g><line x1="0" y1="156.44444444444446" x2="267.1875" y2="156.44444444444446" fill="rgb(0, 0, 0)" stroke="rgb(153, 153, 153)" stroke-width="1.5px"></line></g></g><g><g><line x1="22.265625" y1="0" x2="22.265625" y2="176" fill="rgb(0, 0, 0)" stroke="rgb(153, 153, 153)" stroke-width="1.5px"></line></g></g><g><g><g><g><g><path stroke="rgb(187, 187, 187)" stroke-width="2px" d="M22.265625,-20.97590679592554L24.4921875,42.01843550139003L26.71875,66.22263326558397L28.9453125,26.939013444909875L31.171875,51.87745101720827L33.3984375,27.455634222510525L35.625,34.444726582234836L37.8515625,47.472160136255894L40.078125,64.90531665443993L42.3046875,65.97308266804342L44.53125,69.0314866079119L46.7578125,73.80111894096636L48.984375,57.539054715004966L51.2109375,45.71678172553774L53.4375,42.031348412034475L55.6640625,47.75702164863691L57.890625,40.24667862067463L60.1171875,46.21061205245661L62.34375,54.4716581286517L64.5703125,47.91157601111473L66.796875,46.50298216255456L69.0234375,45.30926195287654L71.25,62.48878730485893L73.4765625,69.77387313913802L75.703125,70.54187682784436L77.9296875,62.23378390770122L80.15625,53.43846693029754L82.3828125,51.22595203582419L84.609375,58.60581714032037L86.8359375,49.558941758420744L89.0625,59.125155237683444L91.2890625,64.30254072534206L93.515625,64.94575459007564L95.7421875,68.73458500710397L97.96875,72.4614092328833L100.1953125,72.60360472062983L102.421875,69.60842547015959L104.6484375,75.82821156027727L106.875,78.44102374035445L109.1015625,76.50626661377468L111.328125,72.56735455010046L113.5546875,73.53498295401633L115.78125,69.34250746122206L118.0078125,66.3255831246718L120.234375,69.75663342118361L122.4609375,64.59588941857211L124.6875,64.09532304889404L126.9140625,65.7908026368323L129.140625,54.58813817696665L131.3671875,49.752142505190776L133.59375,52.11428691329233L135.8203125,32.603741431467625L138.046875,43.904499465783005L140.2734375,39.630598188173025L142.5,34.56804609077065L144.7265625,44.45394569900142L146.953125,46.29139897584861L149.1796875,46.98135275856632L151.40625,39.35057645701227L153.6328125,41.448751451549185L155.859375,41.49316624653309L158.0859375,43.09023936236417L160.3125,36.0488434558448L162.5390625,45.35443856006225L164.765625,43.95512897118476L166.9921875,50.16368173036372L169.21875,52.31720023304925L171.4453125,54.72113240331831L173.671875,56.64609753365902L175.8984375,59.05349550080318L178.125,51.651770266485315L180.3515625,52.95925952681759L182.578125,51.800330394638706L184.8046875,53.954895890235804L187.03125,51.83475561461974L189.2578125,51.07717980258937L191.484375,48.72203875635694L193.7109375,33.69263701537693L195.9375,47.069790593845966L198.1640625,39.95882119129564L200.390625,41.877118693798224L202.6171875,42.48704225772519L204.84375,54.572820869144536L207.0703125,48.94336667216555L209.296875,52.729810059739904L211.5234375,43.10168744100886L213.75,44.3014193910783L215.9765625,46.537007326853484L218.203125,41.938435106459565L220.4296875,38.330552891946496L222.65625,42.96278651320338L224.8828125,38.78861173912591L227.109375,48.395072391511576L229.3359375,44.232161035665825L231.5625,42.59047308463258L233.7890625,41.33363902706941L236.015625,38.25117877672207L238.2421875,39.155810207758236L240.46875,41.714471399499644L242.6953125,49.56953561951208L244.921875,49.65896052906605L247.1484375,46.82322521812864" style="fill: none;" fill="none"></path></g><g><path stroke="rgb(0, 153, 136)" stroke-width="2px" d="M22.265625,-19.98446035385132L24.4921875,16.382274713781158L26.71875,42.1191159116438L28.9453125,58.53533891184267L31.171875,59.86142192218546L33.3984375,71.66485567334901L35.625,76.50175916952082L37.8515625,89.54105303607783L40.078125,91.44808771370835L42.3046875,92.1947775646226L44.53125,99.48359933847384L46.7578125,104.07568653024619L48.984375,108.42361570339342L51.2109375,109.05544136234667L53.4375,111.52393910891647L55.6640625,114.11244789108544L57.890625,117.29900878010912L60.1171875,112.98715144992104L62.34375,117.16536454743226L64.5703125,120.93164264173318L66.796875,116.96504551488826L69.0234375,115.18836152995573L71.25,120.84977243585863L73.4765625,124.41231206334396L75.703125,127.48227354441275L77.9296875,127.14772938311302L80.15625,130.47003872788008L82.3828125,130.90063602370446L84.609375,132.80960447909953L86.8359375,133.17091801332958L89.0625,137.35688100092852L91.2890625,142.42931197091085L93.515625,146.4483791668046L95.7421875,149.08958591908748L97.96875,151.1383075606119L100.1953125,147.1613115524434L102.421875,147.63201418675646L104.6484375,150.31597381033316L106.875,152.10813590126517L109.1015625,153.27177307737156L111.328125,153.959233893072L113.5546875,154.64542873190672L115.78125,155.06698996296544L118.0078125,155.38517249959867L120.234375,155.41405929926233L122.4609375,155.4591090517627L124.6875,155.6500229233673L126.9140625,155.81460312748516L129.140625,155.77300575289476L131.3671875,155.7881855139933L133.59375,155.80779701498307L135.8203125,155.90680466782374L138.046875,156.0335074674775L140.2734375,156.09905554792266L142.5,156.0048593779198L144.7265625,156.10893364456382L146.953125,156.1094357155603L149.1796875,156.09727739051365L151.40625,151.6451408537215L153.6328125,153.45947433348587L155.859375,154.56521023258972L158.0859375,155.06132502026603L160.3125,155.52886335293383L162.5390625,155.79588975772054L164.765625,155.9793815501709L166.9921875,156.0729394033542L169.21875,156.15773749637052L171.4453125,156.19028087017819L173.671875,156.17411678335463L175.8984375,156.19505209756812L178.125,156.21805887229496L180.3515625,156.20968985301937L182.578125,156.228938243122L184.8046875,156.2447913192696L187.03125,156.28894408634142L189.2578125,156.29877544174096L191.484375,151.38826445246107L193.7109375,153.34475958883883L195.9375,154.48419206365023L198.1640625,155.19896153836476L200.390625,155.633874040448L202.6171875,155.87569909056805L204.84375,156.0011279514909L207.0703125,156.11117730220704L209.296875,156.19385202709168L211.5234375,156.22908320866108L213.75,156.27304097170878L215.9765625,156.27123024198147L218.203125,156.282199520312L220.4296875,156.30054083278478L222.65625,156.28635498737464L224.8828125,153.92735756284432L227.109375,154.8949112312304L229.3359375,155.48947695239062L231.5625,155.81183029115155L233.7890625,155.99153311383367L236.015625,156.12568292099388L238.2421875,156.20595340405916L240.46875,151.02699957441962L242.6953125,153.11683090007725L244.921875,152.54535223397136L247.1484375,154.05635095657834" style="fill: none;" fill="none"></path></g></g></g></g><g opacity="0.2"><g><g><g><path stroke="rgb(187, 187, 187)" stroke-width="2px" d="M22.265625,-20.97590679592554L24.4921875,79.81504087977939L26.71875,89.45866311921013L28.9453125,-19.25852346420288L31.171875,84.43707511160108L33.3984375,-6.328530258602541L35.625,44.43924048211841L37.8515625,66.46628332138062L40.078125,90.61583630243936L42.3046875,67.55859075652226L44.53125,73.59135301907857L46.7578125,80.92961131201848L48.984375,33.19905683729385L51.2109375,28.00653330485028L53.4375,36.50753053029379L55.6640625,56.3414933151669L57.890625,28.98434220419989L60.1171875,55.15499795807732L62.34375,66.86196875572205L64.5703125,38.072052452299346L66.796875,44.39016864034866L69.0234375,43.51872091823154L71.25,88.25773615307278L73.4765625,80.70141559176975L75.703125,71.69387690226236L77.9296875,49.77167995770773L80.15625,40.24551396899753L82.3828125,47.90718309084576L84.609375,69.67560799916585L86.8359375,35.988633685641815L89.0625,73.47447228431702L91.2890625,72.06861792670354L93.515625,65.91057531038919L95.7421875,74.4178303612603L97.96875,78.05164541138542L100.1953125,72.81689794858296L102.421875,65.11565664079453L104.6484375,85.15789063771565L106.875,82.3602419959174L109.1015625,73.60413093037076L111.328125,66.6589864624871L113.5546875,74.98642555872598L115.78125,63.05379422505696L118.0078125,61.80019662115308L120.234375,74.90320886505974L122.4609375,56.85477341545952L124.6875,63.34447349442375L126.9140625,68.33402201864453L129.140625,37.78414148754544L131.3671875,42.498148997624725L133.59375,55.65750352541605L135.8203125,3.337923208872496L138.046875,60.85563651720682L140.2734375,33.219746271769225L142.5,26.97421794467502L144.7265625,59.28279511133829L146.953125,49.04757889111838L149.1796875,48.01628343264262L151.40625,27.90441200468277L153.6328125,44.59601394335431L155.859375,41.55978843900894L158.0859375,45.48584903611078L160.3125,25.48674959606595L162.5390625,59.31283121638826L164.765625,41.85616458786859L166.9921875,59.47651086913213L169.21875,55.547477987077485L171.4453125,58.327030658721924L173.671875,59.533545229170045L175.8984375,62.66459245151944L178.125,40.549182415008545L180.3515625,54.920493417315996L182.578125,50.06193669637045L184.8046875,57.18674413363138L187.03125,48.6545452011956L189.2578125,49.94081608454387L191.484375,45.18932718700833L193.7109375,11.148534403906922L195.9375,67.13552096154953L198.1640625,29.292367087470154L200.390625,44.754564947552154L202.6171875,43.40192760361566L204.84375,72.70148878627352L207.0703125,40.49918537669711L209.296875,58.409475141101396L211.5234375,28.659503512912323L213.75,46.101017316182464L215.9765625,49.890389230516234L218.203125,35.04057677586874L220.4296875,32.91872957017688L222.65625,49.911136945088714L224.8828125,32.527349578009705L227.109375,62.80476337009004L229.3359375,37.987794001897186L231.5625,40.12794115808276L233.7890625,39.4483879407247L236.015625,33.62748840120105L238.2421875,40.51275735431247L240.46875,45.552463187111755L242.6953125,61.35213194953069L244.921875,49.79309789339702L247.1484375,42.56962225172256" style="fill: none;" fill="none"></path></g><g><path stroke="rgb(0, 153, 136)" stroke-width="2px" d="M22.265625,-19.98446035385132L24.4921875,38.202315754360626L26.71875,66.82648346159192L28.9453125,77.84081716007657L31.171875,61.59275590048894L33.3984375,87.9932537873586L35.625,83.41860855950249L37.8515625,108.55246867073906L40.078125,94.26059344079758L42.3046875,93.30352497100829L44.53125,110.35072292221916L46.7578125,110.93882738219367L48.984375,114.93131271998087L51.2109375,110.00194203853606L53.4375,115.22378410233391L55.6640625,117.99338544739616L57.890625,122.07750166787041L60.1171875,106.52046023474799L62.34375,123.43204768498738L64.5703125,126.58071553044849L66.796875,111.01536736223431L69.0234375,112.52339401510025L71.25,129.34177702003055L73.4765625,129.75607930289374L75.703125,132.08719394604364L77.9296875,126.64591456784142L80.15625,135.45349424415164L82.3828125,131.54653130637274L84.609375,135.6730554037624L86.8359375,133.71288811498218L89.0625,143.63582409421602L91.2890625,150.03795741664038L93.515625,152.47697948084937L95.7421875,153.05139585832754L97.96875,154.21138993485107L100.1953125,141.19581764274173L102.421875,148.3380681309435L104.6484375,154.34191322078308L106.875,154.7963790276812L109.1015625,155.0172288376424L111.328125,154.99042511524425L113.5546875,155.67472098933325L115.78125,155.6993318092492L118.0078125,155.8624463044107L120.234375,155.45738949875036L122.4609375,155.5266836805062L124.6875,155.93639373075632L126.9140625,156.06147343365268L129.140625,155.71060969101057L131.3671875,155.81095515564084L133.59375,155.8372142664674L135.8203125,156.05531614708403L138.046875,156.2235616669576L140.2734375,156.19737766859018L142.5,155.86356512291565L144.7265625,156.26504504452976L146.953125,156.11018882205502L149.1796875,156.0790399029437L151.40625,144.96693604853417L153.6328125,156.18097455313222L155.859375,156.22381408124542L158.0859375,155.80549720178047L160.3125,156.23017085193553L162.5390625,156.1964293649006L164.765625,156.25461923884643L166.9921875,156.21327618312918L169.21875,156.28493463589498L171.4453125,156.23909593088968L173.671875,156.14987065311936L175.8984375,156.22645506888836L178.125,156.25256903438517L180.3515625,156.197136324106L182.578125,156.25781082827598L184.8046875,156.268570933491L187.03125,156.35517323694916L189.2578125,156.31352247484028L191.484375,144.02249796854124L193.7109375,156.27950229340544L195.9375,156.1933407758673L198.1640625,156.27111575043656L200.390625,156.28624279357285L202.6171875,156.23843666574814L204.84375,156.18927124287518L207.0703125,156.27625132828123L209.296875,156.31786411441863L211.5234375,156.2819299810152L213.75,156.33897761628032L215.9765625,156.2685141473905L218.203125,156.29865343780773L220.4296875,156.32805280149398L222.65625,156.26507621925944L224.8828125,150.3888614260488L227.109375,156.3462417338095L229.3359375,156.38132553413095L231.5625,156.29536029929295L233.7890625,156.26108734785683L236.015625,156.32690763173417L238.2421875,156.32635912865712L240.46875,143.2585688299603L242.6953125,156.2515778885637L244.921875,151.68813423481254L247.1484375,156.32284904048882" style="fill: none;" fill="none"></path></g></g></g></g></g></g><g transform="translate(62, 176)" clip-path="url(#clip_1)"><clipPath id="clip_1"><rect width="267" height="24"></rect></clipPath><g><g><line x1="0" y1="0" x2="0" y2="5" style="visibility: inherit;" fill="rgb(0, 0, 0)" stroke="rgb(204, 204, 204)" stroke-width="1px"></line><line x1="22.265625" y1="0" x2="22.265625" y2="5" style="visibility: inherit;" fill="rgb(0, 0, 0)" stroke="rgb(204, 204, 204)" stroke-width="1px"></line><line x1="44.53125" y1="0" x2="44.53125" y2="5" style="visibility: inherit;" fill="rgb(0, 0, 0)" stroke="rgb(204, 204, 204)" stroke-width="1px"></line><line x1="66.796875" y1="0" x2="66.796875" y2="5" style="visibility: inherit;" fill="rgb(0, 0, 0)" stroke="rgb(204, 204, 204)" stroke-width="1px"></line><line x1="89.0625" y1="0" x2="89.0625" y2="5" style="visibility: inherit;" fill="rgb(0, 0, 0)" stroke="rgb(204, 204, 204)" stroke-width="1px"></line><line x1="111.328125" y1="0" x2="111.328125" y2="5" style="visibility: inherit;" fill="rgb(0, 0, 0)" stroke="rgb(204, 204, 204)" stroke-width="1px"></line><line x1="133.59375" y1="0" x2="133.59375" y2="5" style="visibility: inherit;" fill="rgb(0, 0, 0)" stroke="rgb(204, 204, 204)" stroke-width="1px"></line><line x1="155.859375" y1="0" x2="155.859375" y2="5" style="visibility: inherit;" fill="rgb(0, 0, 0)" stroke="rgb(204, 204, 204)" stroke-width="1px"></line><line x1="178.125" y1="0" x2="178.125" y2="5" style="visibility: inherit;" fill="rgb(0, 0, 0)" stroke="rgb(204, 204, 204)" stroke-width="1px"></line><line x1="200.390625" y1="0" x2="200.390625" y2="5" style="visibility: inherit;" fill="rgb(0, 0, 0)" stroke="rgb(204, 204, 204)" stroke-width="1px"></line><line x1="222.65625" y1="0" x2="222.65625" y2="5" style="visibility: inherit;" fill="rgb(0, 0, 0)" stroke="rgb(204, 204, 204)" stroke-width="1px"></line><line x1="244.921875" y1="0" x2="244.921875" y2="5" style="visibility: inherit;" fill="rgb(0, 0, 0)" stroke="rgb(204, 204, 204)" stroke-width="1px"></line><line x1="267.1875" y1="0" x2="267.1875" y2="5" style="visibility: inherit;" fill="rgb(0, 0, 0)" stroke="rgb(204, 204, 204)" stroke-width="1px"></line></g><g transform="translate(0, 8)"><text x="0" y="0" dx="0em" dy="0.95em" style="text-anchor: middle; visibility: hidden; font-family: &quot;Helvetica Neue&quot;, sans-serif; font-size: 12px; font-weight: 200;" fill="rgb(50, 49, 63)" stroke="none" stroke-width="1px">-10</text><text x="22.265625" y="0" dx="0em" dy="0.95em" style="text-anchor: middle; visibility: inherit; font-family: &quot;Helvetica Neue&quot;, sans-serif; font-size: 12px; font-weight: 200;" fill="rgb(50, 49, 63)" stroke="none" stroke-width="1px">0</text><text x="44.53125" y="0" dx="0em" dy="0.95em" style="text-anchor: middle; visibility: inherit; font-family: &quot;Helvetica Neue&quot;, sans-serif; font-size: 12px; font-weight: 200;" fill="rgb(50, 49, 63)" stroke="none" stroke-width="1px">10</text><text x="66.796875" y="0" dx="0em" dy="0.95em" style="text-anchor: middle; visibility: inherit; font-family: &quot;Helvetica Neue&quot;, sans-serif; font-size: 12px; font-weight: 200;" fill="rgb(50, 49, 63)" stroke="none" stroke-width="1px">20</text><text x="89.0625" y="0" dx="0em" dy="0.95em" style="text-anchor: middle; visibility: inherit; font-family: &quot;Helvetica Neue&quot;, sans-serif; font-size: 12px; font-weight: 200;" fill="rgb(50, 49, 63)" stroke="none" stroke-width="1px">30</text><text x="111.328125" y="0" dx="0em" dy="0.95em" style="text-anchor: middle; visibility: inherit; font-family: &quot;Helvetica Neue&quot;, sans-serif; font-size: 12px; font-weight: 200;" fill="rgb(50, 49, 63)" stroke="none" stroke-width="1px">40</text><text x="133.59375" y="0" dx="0em" dy="0.95em" style="text-anchor: middle; visibility: inherit; font-family: &quot;Helvetica Neue&quot;, sans-serif; font-size: 12px; font-weight: 200;" fill="rgb(50, 49, 63)" stroke="none" stroke-width="1px">50</text><text x="155.859375" y="0" dx="0em" dy="0.95em" style="text-anchor: middle; visibility: inherit; font-family: &quot;Helvetica Neue&quot;, sans-serif; font-size: 12px; font-weight: 200;" fill="rgb(50, 49, 63)" stroke="none" stroke-width="1px">60</text><text x="178.125" y="0" dx="0em" dy="0.95em" style="text-anchor: middle; visibility: inherit; font-family: &quot;Helvetica Neue&quot;, sans-serif; font-size: 12px; font-weight: 200;" fill="rgb(50, 49, 63)" stroke="none" stroke-width="1px">70</text><text x="200.390625" y="0" dx="0em" dy="0.95em" style="text-anchor: middle; visibility: inherit; font-family: &quot;Helvetica Neue&quot;, sans-serif; font-size: 12px; font-weight: 200;" fill="rgb(50, 49, 63)" stroke="none" stroke-width="1px">80</text><text x="222.65625" y="0" dx="0em" dy="0.95em" style="text-anchor: middle; visibility: inherit; font-family: &quot;Helvetica Neue&quot;, sans-serif; font-size: 12px; font-weight: 200;" fill="rgb(50, 49, 63)" stroke="none" stroke-width="1px">90</text><text x="244.921875" y="0" dx="0em" dy="0.95em" style="text-anchor: middle; visibility: inherit; font-family: &quot;Helvetica Neue&quot;, sans-serif; font-size: 12px; font-weight: 200;" fill="rgb(50, 49, 63)" stroke="none" stroke-width="1px">100</text><text x="267.1875" y="0" dx="0em" dy="0.95em" style="text-anchor: middle; visibility: hidden; font-family: &quot;Helvetica Neue&quot;, sans-serif; font-size: 12px; font-weight: 200;" fill="rgb(50, 49, 63)" stroke="none" stroke-width="1px">110</text></g><line x1="0" y1="0" x2="267.1875" y2="0" fill="rgb(0, 0, 0)" stroke="rgb(204, 204, 204)" stroke-width="1px"></line></g></g></g></g></svg>