<svg viewBox="0 0 330 200" xmlns="http://www.w3.org/2000/svg"><g><g><g><g><g><line x1="62.8125" y1="176" x2="57.8125" y2="176" style="visibility: inherit;" fill="rgb(0, 0, 0)" stroke="rgb(204, 204, 204)" stroke-width="1px"></line><line x1="62.8125" y1="154" x2="57.8125" y2="154" style="visibility: inherit;" fill="rgb(0, 0, 0)" stroke="rgb(204, 204, 204)" stroke-width="1px"></line><line x1="62.8125" y1="132" x2="57.8125" y2="132" style="visibility: inherit;" fill="rgb(0, 0, 0)" stroke="rgb(204, 204, 204)" stroke-width="1px"></line><line x1="62.8125" y1="110" x2="57.8125" y2="110" style="visibility: inherit;" fill="rgb(0, 0, 0)" stroke="rgb(204, 204, 204)" stroke-width="1px"></line><line x1="62.8125" y1="88" x2="57.8125" y2="88" style="visibility: inherit;" fill="rgb(0, 0, 0)" stroke="rgb(204, 204, 204)" stroke-width="1px"></line><line x1="62.8125" y1="66" x2="57.8125" y2="66" style="visibility: inherit;" fill="rgb(0, 0, 0)" stroke="rgb(204, 204, 204)" stroke-width="1px"></line><line x1="62.8125" y1="44" x2="57.8125" y2="44" style="visibility: inherit;" fill="rgb(0, 0, 0)" stroke="rgb(204, 204, 204)" stroke-width="1px"></line><line x1="62.8125" y1="22.000000000000483" x2="57.8125" y2="22.000000000000483" style="visibility: inherit;" fill="rgb(0, 0, 0)" stroke="rgb(204, 204, 204)" stroke-width="1px"></line><line x1="62.8125" y1="0" x2="57.8125" y2="0" style="visibility: inherit;" fill="rgb(0, 0, 0)" stroke="rgb(204, 204, 204)" stroke-width="1px"></line></g><g transform="translate(52.8125, 0)"><text x="0" y="176" dx="0em" dy="0.3em" style="text-anchor: end; visibility: hidden; font-family: &quot;Helvetica Neue&quot;, sans-serif; font-size: 12px; font-weight: 200;" fill="rgb(50, 49, 63)" stroke="none" stroke-width="1px">0.97</text><text x="0" y="154" dx="0em" dy="0.3em" style="text-anchor: end; visibility: inherit; font-family: &quot;Helvetica Neue&quot;, sans-serif; font-size: 12px; font-weight: 200;" fill="rgb(50, 49, 63)" stroke="none" stroke-width="1px">0.975</text><text x="0" y="132" dx="0em" dy="0.3em" style="text-anchor: end; visibility: hidden; font-family: &quot;Helvetica Neue&quot;, sans-serif; font-size: 12px; font-weight: 200;" fill="rgb(50, 49, 63)" stroke="none" stroke-width="1px">0.98</text><text x="0" y="110" dx="0em" dy="0.3em" style="text-anchor: end; visibility: inherit; font-family: &quot;Helvetica Neue&quot;, sans-serif; font-size: 12px; font-weight: 200;" fill="rgb(50, 49, 63)" stroke="none" stroke-width="1px">0.985</text><text x="0" y="88" dx="0em" dy="0.3em" style="text-anchor: end; visibility: hidden; font-family: &quot;Helvetica Neue&quot;, sans-serif; font-size: 12px; font-weight: 200;" fill="rgb(50, 49, 63)" stroke="none" stroke-width="1px">0.99</text><text x="0" y="66" dx="0em" dy="0.3em" style="text-anchor: end; visibility: inherit; font-family: &quot;Helvetica Neue&quot;, sans-serif; font-size: 12px; font-weight: 200;" fill="rgb(50, 49, 63)" stroke="none" stroke-width="1px">0.995</text><text x="0" y="44" dx="0em" dy="0.3em" style="text-anchor: end; visibility: hidden; font-family: &quot;Helvetica Neue&quot;, sans-serif; font-size: 12px; font-weight: 200;" fill="rgb(50, 49, 63)" stroke="none" stroke-width="1px">1</text><text x="0" y="22.000000000000483" dx="0em" dy="0.3em" style="text-anchor: end; visibility: inherit; font-family: &quot;Helvetica Neue&quot;, sans-serif; font-size: 12px; font-weight: 200;" fill="rgb(50, 49, 63)" stroke="none" stroke-width="1px">1</text><text x="0" y="0" dx="0em" dy="0.3em" style="text-anchor: end; visibility: hidden; font-family: &quot;Helvetica Neue&quot;, sans-serif; font-size: 12px; font-weight: 200;" fill="rgb(50, 49, 63)" stroke="none" stroke-width="1px">1.01</text></g><line x1="62.8125" y1="0" x2="62.8125" y2="176" fill="rgb(0, 0, 0)" stroke="rgb(204, 204, 204)" stroke-width="1px"></line></g></g><g transform="translate(62, 0)" clip-path="url(#clip_0)"><clipPath id="clip_0"><rect width="267" height="176"></rect></clipPath><g><g><g><line x1="0" y1="0" x2="0" y2="176" fill="rgb(0, 0, 0)" stroke="rgb(60, 60, 60)" stroke-width="1px" opacity="0.25"></line><line x1="24.289772727272727" y1="0" x2="24.289772727272727" y2="176" fill="rgb(0, 0, 0)" stroke="rgb(60, 60, 60)" stroke-width="1px" opacity="0.25"></line><line x1="48.57954545454545" y1="0" x2="48.57954545454545" y2="176" fill="rgb(0, 0, 0)" stroke="rgb(60, 60, 60)" stroke-width="1px" opacity="0.25"></line><line x1="72.86931818181817" y1="0" x2="72.86931818181817" y2="176" fill="rgb(0, 0, 0)" stroke="rgb(60, 60, 60)" stroke-width="1px" opacity="0.25"></line><line x1="97.1590909090909" y1="0" x2="97.1590909090909" y2="176" fill="rgb(0, 0, 0)" stroke="rgb(60, 60, 60)" stroke-width="1px" opacity="0.25"></line><line x1="121.44886363636363" y1="0" x2="121.44886363636363" y2="176" fill="rgb(0, 0, 0)" stroke="rgb(60, 60, 60)" stroke-width="1px" opacity="0.25"></line><line x1="145.73863636363635" y1="0" x2="145.73863636363635" y2="176" fill="rgb(0, 0, 0)" stroke="rgb(60, 60, 60)" stroke-width="1px" opacity="0.25"></line><line x1="170.0284090909091" y1="0" x2="170.0284090909091" y2="176" fill="rgb(0, 0, 0)" stroke="rgb(60, 60, 60)" stroke-width="1px" opacity="0.25"></line><line x1="194.3181818181818" y1="0" x2="194.3181818181818" y2="176" fill="rgb(0, 0, 0)" stroke="rgb(60, 60, 60)" stroke-width="1px" opacity="0.25"></line><line x1="218.60795454545456" y1="0" x2="218.60795454545456" y2="176" fill="rgb(0, 0, 0)" stroke="rgb(60, 60, 60)" stroke-width="1px" opacity="0.25"></line><line x1="242.89772727272725" y1="0" x2="242.89772727272725" y2="176" fill="rgb(0, 0, 0)" stroke="rgb(60, 60, 60)" stroke-width="1px" opacity="0.25"></line><line x1="267.1875" y1="0" x2="267.1875" y2="176" fill="rgb(0, 0, 0)" stroke="rgb(60, 60, 60)" stroke-width="1px" opacity="0.25"></line></g><g><line x1="0" y1="176" x2="267.1875" y2="176" fill="rgb(0, 0, 0)" stroke="rgb(60, 60, 60)" stroke-width="1px" opacity="0.25"></line><line x1="0" y1="154" x2="267.1875" y2="154" fill="rgb(0, 0, 0)" stroke="rgb(60, 60, 60)" stroke-width="1px" opacity="0.25"></line><line x1="0" y1="132" x2="267.1875" y2="132" fill="rgb(0, 0, 0)" stroke="rgb(60, 60, 60)" stroke-width="1px" opacity="0.25"></line><line x1="0" y1="110" x2="267.1875" y2="110" fill="rgb(0, 0, 0)" stroke="rgb(60, 60, 60)" stroke-width="1px" opacity="0.25"></line><line x1="0" y1="88" x2="267.1875" y2="88" fill="rgb(0, 0, 0)" stroke="rgb(60, 60, 60)" stroke-width="1px" opacity="0.25"></line><line x1="0" y1="66" x2="267.1875" y2="66" fill="rgb(0, 0, 0)" stroke="rgb(60, 60, 60)" stroke-width="1px" opacity="0.25"></line><line x1="0" y1="44" x2="267.1875" y2="44" fill="rgb(0, 0, 0)" stroke="rgb(60, 60, 60)" stroke-width="1px" opacity="0.25"></line><line x1="0" y1="22.000000000000483" x2="267.1875" y2="22.000000000000483" fill="rgb(0, 0, 0)" stroke="rgb(60, 60, 60)" stroke-width="1px" opacity="0.25"></line><line x1="0" y1="0" x2="267.1875" y2="0" fill="rgb(0, 0, 0)" stroke="rgb(60, 60, 60)" stroke-width="1px" opacity="0.25"></line></g></g></g><g><g><line x1="0" y1="4443.999999999996" x2="267.1875" y2="4443.999999999996" fill="rgb(0, 0, 0)" stroke="rgb(153, 153, 153)" stroke-width="1.5px"></line></g></g><g><g><line x1="24.289772727272727" y1="0" x2="24.289772727272727" y2="176" fill="rgb(0, 0, 0)" stroke="rgb(153, 153, 153)" stroke-width="1.5px"></line></g></g><g><g><g><g><g><path stroke="rgb(238, 51, 119)" stroke-width="2px" d="M24.289772727272727,134.50633907318107L26.71875,155.17492020130146L29.14772727272727,133.97352220574194L31.576704545454543,132.6186665471864L34.00568181818181,138.7217388007482L36.434659090909086,136.22273644776112L38.86363636363636,136.94889850014175L41.29261363636363,135.2470410511681L43.72159090909091,151.82666693983927L46.15056818181818,138.55245022384543L48.57954545454545,155.095237872699L51.00852272727273,148.9349107820583L53.4375,143.15593435422218L55.866477272727266,136.90641263198324L58.29545454545454,138.73202780967165L60.72443181818181,142.61241946494056L63.153409090909086,137.28044266232035L65.58238636363636,133.38561944422233L68.01136363636363,144.2775718009882L70.4403409090909,137.58404775965613L72.86931818181817,139.83404887577365L75.29829545454545,125.17112904506911L77.72727272727272,130.99390116086653L80.15625,128.2216838534216L82.58522727272727,137.6976433468393L85.01420454545455,132.94007828929506L87.44318181818181,134.26283296485454L89.8721590909091,129.48680413052665L92.30113636363636,132.1908681120973L94.73011363636364,129.63602069917653L97.1590909090909,117.66011043424086L99.58806818181819,113.9556008015306L102.01704545454545,109.64425299049675L104.44602272727273,104.96880225543416L106.875,102.8597809202766L109.30397727272728,100.20197501584147L111.73295454545453,101.39207773232415L114.16193181818181,100.01749722938351L116.59090909090908,97.80035581560065L119.01988636363636,95.07767785644772L121.44886363636363,94.83646419658571L123.8778409090909,96.08412911364405L126.30681818181817,96.8327280634953L128.73579545454544,95.88949432084357L131.16477272727272,100.1969824205907L133.59375,100.69283315966095L136.02272727272725,95.42077115414402L138.45170454545456,99.2194995120296L140.8806818181818,95.92916407790102L143.3096590909091,97.4359980500239L145.73863636363635,99.73249154547985L148.16761363636365,98.32560141837266L150.5965909090909,101.65864667866566L153.0255681818182,100.1774386022905L155.45454545454544,99.98496276464586L157.88352272727275,97.08469103769258L160.3125,95.34452800152158L162.74147727272728,97.78136050818871L165.17045454545453,98.5473159081844L167.59943181818184,101.09542636436922L170.0284090909091,95.66232707716584L172.45738636363637,100.75693108211522L174.88636363636363,99.63640924436189L177.31534090909093,104.53377349461553L179.7443181818182,102.59876370004059L182.17329545454544,100.74150881511721L184.60227272727272,101.7157980045245L187.03125,102.9965156221727L189.46022727272728,100.28401586439246L191.88920454545453,98.65651600972423L194.3181818181818,97.6800160969229L196.7471590909091,95.70172303705978L199.17613636363637,95.21089130514571L201.60511363636363,94.22024816199395L204.0340909090909,92.23336425974519L206.4630681818182,91.73748292657483L208.89204545454547,93.52859624703393L211.32102272727272,91.81837311076919L213.75,94.27327446155465L216.17897727272728,94.35382215984282L218.60795454545456,92.31350865845461L221.0369318181818,93.87421168616142L223.46590909090907,92.72199138242458L225.89488636363637,95.5116944327262L228.32386363636363,96.48926725472809L230.7528409090909,97.77205995610832L233.18181818181816,97.84548656875813L235.61079545454547,98.58579154452624L238.03977272727272,96.24518830562208L240.46875,92.75218424191826L242.89772727272725,96.22595425242642L245.32670454545456,97.61407215472721L247.7556818181818,99.14308700011189L250.1846590909091,97.97195869115569L252.61363636363635,95.18063958542093L255.04261363636365,95.59449024234121" style="fill: none;" fill="none"></path></g><g><path stroke="rgb(51, 187, 238)" stroke-width="2px" d="M24.289772727272727,187.16403865814198L26.71875,153.83893275260914L29.14772727272727,139.85065014508365L31.576704545454543,127.66555808221611L34.00568181818181,118.14666477960526L36.434659090909086,116.21015878061709L38.86363636363636,106.90951538771637L41.29261363636363,102.05481294717234L43.72159090909091,95.88000633416951L46.15056818181818,92.52960110780634L48.57954545454545,90.6892470613562L51.00852272727273,96.63585817810794L53.4375,88.0702895327772L55.866477272727266,81.29623074838138L58.29545454545454,80.28346457786722L60.72443181818181,85.06834176013524L63.153409090909086,81.68726006818177L65.58238636363636,76.29928976539263L68.01136363636363,72.832487606269L70.4403409090909,70.98690601288732L72.86931818181817,70.89530474525361L75.29829545454545,76.54353580036071L77.72727272727272,70.47922719876877L80.15625,68.55943083276335L82.58522727272727,66.23567096662771L85.01420454545455,66.32581588072019L87.44318181818181,65.67672932735483L89.8721590909091,66.14665334824726L92.30113636363636,63.850481626166186L94.73011363636364,65.51961666098619L97.1590909090909,60.42742293137063L99.58806818181819,55.10649148232039L102.01704545454545,51.99198159369516L104.44602272727273,49.65456388924703L106.875,47.62709422520854L109.30397727272728,47.348141068991424L111.73295454545453,46.55575009974757L114.16193181818181,45.68965237291653L116.59090909090908,45.24814734927975L119.01988636363636,45.061397946061106L121.44886363636363,45.027501914582444L123.8778409090909,44.850857075177544L126.30681818181817,44.901177392093956L128.73579545454544,44.69690875150479L131.16477272727272,44.57434756717444L133.59375,45.75084900363527L136.02272727272725,45.12866301238702L138.45170454545456,44.7553514176534L140.8806818181818,44.687566777104735L143.3096590909091,44.490693676490565L145.73863636363635,44.45061852217842L148.16761363636365,44.42657342959163L150.5965909090909,45.19347266798516L153.0255681818182,44.794237211020885L155.45454545454544,44.710898253126004L157.88352272727275,44.426538951875216L160.3125,44.4121256874094L162.74147727272728,45.02849680221567L165.17045454545453,44.851454007842676L167.59943181818184,44.589026014935484L170.0284090909091,44.50961792524538L172.45738636363637,45.633857608174964L174.88636363636363,45.136516881188754L177.31534090909093,44.838112444997336L179.7443181818182,44.581021077228L182.17329545454544,45.12983403610741L184.60227272727272,44.75605403189422L187.03125,44.60983473542092L189.46022727272728,44.44405445148223L191.88920454545453,44.42263498717304L194.3181818181818,44.331734602533004L196.7471590909091,44.2771943717494L199.17613636363637,44.166316623049454L201.60511363636363,44.25599229011425L204.0340909090909,45.48168222709609L206.4630681818182,45.04521165254164L208.89204545454547,45.330299675240894L211.32102272727272,44.876333415374035L213.75,44.525800049224216L216.17897727272728,44.315480029534626L218.60795454545456,44.345490334004865L221.0369318181818,44.20729420040283L223.46590909090907,44.28057883652596L225.89488636363637,44.24650091214497L228.32386363636363,44.38225647380065L230.7528409090909,44.385556200564565L233.18181818181816,44.23133372033874L235.61079545454547,44.21695384243253L238.03977272727272,44.20832591568882L240.46875,44.124995549413086L242.89772727272725,44.15315093987715L245.32670454545456,44.170044174155976L247.7556818181818,45.43011335752084L250.1846590909091,44.85806801451241L252.61363636363635,44.67104312499163L255.04261363636365,44.55882819127885" style="fill: none;" fill="none"></path></g></g></g></g><g opacity="0.2"><g><g><g><path stroke="rgb(238, 51, 119)" stroke-width="2px" d="M24.289772727272727,134.50633907318107L26.71875,167.57606887817371L29.14772727272727,113.62018013000483L31.576704545454543,131.02535629272452L34.00568181818181,146.68990993499747L36.434659090909086,132.7657165527343L38.86363636363636,137.9873218536376L41.29261363636363,132.7657165527343L43.72159090909091,176.27839469909657L46.15056818181818,118.84178543090813L48.57954545454545,179.7593774795531L51.00852272727273,139.7279443740844L53.4375,134.50633907318107L55.866477272727266,127.54437351226798L58.29545454545454,141.46830463409415L60.72443181818181,148.43027019500724L63.153409090909086,129.28473377227775L65.58238636363636,127.54437351226798L68.01136363636363,160.61384105682362L70.4403409090909,127.54437351226798L72.86931818181817,143.20892715454093L75.29829545454545,103.17723178863521L77.72727272727272,139.7279443740844L80.15625,124.06339073181145L82.58522727272727,151.91151523590077L85.01420454545455,125.80375099182122L87.44318181818181,136.24696159362784L89.8721590909091,122.32276821136468L92.30113636363636,136.24696159362784L94.73011363636364,125.80375099182122L97.1590909090909,99.69624900817867L99.58806818181819,108.39883708953852L102.01704545454545,103.17723178863521L104.44602272727273,97.95562648773189L106.875,99.69624900817867L109.30397727272728,96.21526622772213L111.73295454545453,103.17723178863521L114.16193181818181,97.95562648773189L116.59090909090908,94.47464370727535L119.01988636363636,90.9936609268188L121.44886363636363,94.47464370727535L123.8778409090909,97.95562648773189L126.30681818181817,97.95562648773189L128.73579545454544,94.47464370727535L131.16477272727272,106.65821456909174L133.59375,101.43660926818843L136.02272727272725,87.51267814636226L138.45170454545456,104.91759204864496L140.8806818181818,90.9936609268188L143.3096590909091,99.69624900817867L145.73863636363635,103.17723178863521L148.16761363636365,96.21526622772213L150.5965909090909,106.65821456909174L153.0255681818182,97.95562648773189L155.45454545454544,99.69624900817867L157.88352272727275,92.73428344726558L160.3125,92.73428344726558L162.74147727272728,101.43660926818843L165.17045454545453,99.69624900817867L167.59943181818184,104.91759204864496L170.0284090909091,87.51267814636226L172.45738636363637,108.39883708953852L174.88636363636363,97.95562648773189L177.31534090909093,111.87981986999506L179.7443181818182,99.69624900817867L182.17329545454544,97.95562648773189L184.60227272727272,103.17723178863521L187.03125,104.91759204864496L189.46022727272728,96.21526622772213L191.88920454545453,96.21526622772213L194.3181818181818,96.21526622772213L196.7471590909091,92.73428344726558L199.17613636363637,94.47464370727535L201.60511363636363,92.73428344726558L204.0340909090909,89.25303840637203L206.4630681818182,90.9936609268188L208.89204545454547,96.21526622772213L211.32102272727272,89.25303840637203L213.75,97.95562648773189L216.17897727272728,94.47464370727535L218.60795454545456,89.25303840637203L221.0369318181818,96.21526622772213L223.46590909090907,90.9936609268188L225.89488636363637,99.69624900817867L228.32386363636363,97.95562648773189L230.7528409090909,99.69624900817867L233.18181818181816,97.95562648773189L235.61079545454547,99.69624900817867L238.03977272727272,92.73428344726558L240.46875,87.51267814636226L242.89772727272725,101.43660926818843L245.32670454545456,99.69624900817867L247.7556818181818,101.43660926818843L250.1846590909091,96.21526622772213L252.61363636363635,90.9936609268188L255.04261363636365,96.21526622772213" style="fill: none;" fill="none"></path></g><g><path stroke="rgb(51, 187, 238)" stroke-width="2px" d="M24.289772727272727,187.16403865814198L26.71875,133.84386920928947L29.14772727272727,126.42189884185784L31.576704545454543,113.33588981628412L34.00568181818181,105.71879768371576L36.434659090909086,113.53127384185785L38.86363636363636,93.60944652557369L41.29261363636363,94.97661018371578L43.72159090909091,86.77336597442623L46.15056818181818,87.55463981628414L48.57954545454545,87.9454078674316L51.00852272727273,105.52341365814203L53.4375,75.24990463256835L55.866477272727266,71.14841365814208L58.29545454545454,78.7655057907104L60.72443181818181,92.2422828674316L63.153409090909086,76.61706829071044L65.58238636363636,68.21870231628417L68.01136363636363,67.63281249999999L70.4403409090909,68.21870231628417L72.86931818181817,70.75790786743163L75.29829545454545,85.01569652557369L77.72727272727272,61.382884025573716L80.15625,65.67975902557372L82.58522727272727,62.750047683715806L85.01420454545455,66.46103286743163L87.44318181818181,64.70310115814208L89.8721590909091,66.85153865814208L92.30113636363636,60.406226158142076L94.73011363636364,68.02331829071044L97.1590909090909,52.78913402557373L99.58806818181819,47.12509536743164L102.01704545454545,47.32021713256836L104.44602272727273,46.1484375L106.875,44.58588981628418L109.30397727272728,46.92971134185791L111.73295454545453,45.36716365814209L114.16193181818181,44.39050579071045L116.59090909090908,44.58588981628418L119.01988636363636,44.78127384185791L121.44886363636363,44.97665786743164L123.8778409090909,44.58588981628418L126.30681818181817,44.97665786743164L128.73579545454544,44.39050579071045L131.16477272727272,44.39050579071045L133.59375,47.51560115814209L136.02272727272725,44.19538402557373L138.45170454545456,44.19538402557373L140.8806818181818,44.58588981628418L143.3096590909091,44.19538402557373L145.73863636363635,44.39050579071045L148.16761363636365,44.39050579071045L150.5965909090909,46.34382152557373L153.0255681818182,44.19538402557373L155.45454545454544,44.58588981628418L157.88352272727275,44L160.3125,44.39050579071045L162.74147727272728,45.95305347442627L165.17045454545453,44.58588981628418L167.59943181818184,44.19538402557373L170.0284090909091,44.39050579071045L172.45738636363637,47.32021713256836L174.88636363636363,44.39050579071045L177.31534090909093,44.39050579071045L179.7443181818182,44.19538402557373L182.17329545454544,45.95305347442627L184.60227272727272,44.19538402557373L187.03125,44.39050579071045L189.46022727272728,44.19538402557373L191.88920454545453,44.39050579071045L194.3181818181818,44.19538402557373L196.7471590909091,44.19538402557373L199.17613636363637,44L201.60511363636363,44.39050579071045L204.0340909090909,47.32021713256836L206.4630681818182,44.39050579071045L208.89204545454547,45.75793170928955L211.32102272727272,44.19538402557373L213.75,44L216.17897727272728,44L218.60795454545456,44.39050579071045L221.0369318181818,44L223.46590909090907,44.39050579071045L225.89488636363637,44.19538402557373L228.32386363636363,44.58588981628418L230.7528409090909,44.39050579071045L233.18181818181816,44L235.61079545454547,44.19538402557373L238.03977272727272,44.19538402557373L240.46875,44L242.89772727272725,44.19538402557373L245.32670454545456,44.19538402557373L247.7556818181818,47.32021713256836L250.1846590909091,44L252.61363636363635,44.39050579071045L255.04261363636365,44.39050579071045" style="fill: none;" fill="none"></path></g></g></g></g></g></g><g transform="translate(62, 176)" clip-path="url(#clip_1)"><clipPath id="clip_1"><rect width="267" height="24"></rect></clipPath><g><g><line x1="0" y1="0" x2="0" y2="5" style="visibility: inherit;" fill="rgb(0, 0, 0)" stroke="rgb(204, 204, 204)" stroke-width="1px"></line><line x1="24.289772727272727" y1="0" x2="24.289772727272727" y2="5" style="visibility: inherit;" fill="rgb(0, 0, 0)" stroke="rgb(204, 204, 204)" stroke-width="1px"></line><line x1="48.57954545454545" y1="0" x2="48.57954545454545" y2="5" style="visibility: inherit;" fill="rgb(0, 0, 0)" stroke="rgb(204, 204, 204)" stroke-width="1px"></line><line x1="72.86931818181817" y1="0" x2="72.86931818181817" y2="5" style="visibility: inherit;" fill="rgb(0, 0, 0)" stroke="rgb(204, 204, 204)" stroke-width="1px"></line><line x1="97.1590909090909" y1="0" x2="97.1590909090909" y2="5" style="visibility: inherit;" fill="rgb(0, 0, 0)" stroke="rgb(204, 204, 204)" stroke-width="1px"></line><line x1="121.44886363636363" y1="0" x2="121.44886363636363" y2="5" style="visibility: inherit;" fill="rgb(0, 0, 0)" stroke="rgb(204, 204, 204)" stroke-width="1px"></line><line x1="145.73863636363635" y1="0" x2="145.73863636363635" y2="5" style="visibility: inherit;" fill="rgb(0, 0, 0)" stroke="rgb(204, 204, 204)" stroke-width="1px"></line><line x1="170.0284090909091" y1="0" x2="170.0284090909091" y2="5" style="visibility: inherit;" fill="rgb(0, 0, 0)" stroke="rgb(204, 204, 204)" stroke-width="1px"></line><line x1="194.3181818181818" y1="0" x2="194.3181818181818" y2="5" style="visibility: inherit;" fill="rgb(0, 0, 0)" stroke="rgb(204, 204, 204)" stroke-width="1px"></line><line x1="218.60795454545456" y1="0" x2="218.60795454545456" y2="5" style="visibility: inherit;" fill="rgb(0, 0, 0)" stroke="rgb(204, 204, 204)" stroke-width="1px"></line><line x1="242.89772727272725" y1="0" x2="242.89772727272725" y2="5" style="visibility: inherit;" fill="rgb(0, 0, 0)" stroke="rgb(204, 204, 204)" stroke-width="1px"></line><line x1="267.1875" y1="0" x2="267.1875" y2="5" style="visibility: inherit;" fill="rgb(0, 0, 0)" stroke="rgb(204, 204, 204)" stroke-width="1px"></line></g><g transform="translate(0, 8)"><text x="0" y="0" dx="0em" dy="0.95em" style="text-anchor: middle; visibility: hidden; font-family: &quot;Helvetica Neue&quot;, sans-serif; font-size: 12px; font-weight: 200;" fill="rgb(50, 49, 63)" stroke="none" stroke-width="1px">-10</text><text x="24.289772727272727" y="0" dx="0em" dy="0.95em" style="text-anchor: middle; visibility: inherit; font-family: &quot;Helvetica Neue&quot;, sans-serif; font-size: 12px; font-weight: 200;" fill="rgb(50, 49, 63)" stroke="none" stroke-width="1px">0</text><text x="48.57954545454545" y="0" dx="0em" dy="0.95em" style="text-anchor: middle; visibility: inherit; font-family: &quot;Helvetica Neue&quot;, sans-serif; font-size: 12px; font-weight: 200;" fill="rgb(50, 49, 63)" stroke="none" stroke-width="1px">10</text><text x="72.86931818181817" y="0" dx="0em" dy="0.95em" style="text-anchor: middle; visibility: inherit; font-family: &quot;Helvetica Neue&quot;, sans-serif; font-size: 12px; font-weight: 200;" fill="rgb(50, 49, 63)" stroke="none" stroke-width="1px">20</text><text x="97.1590909090909" y="0" dx="0em" dy="0.95em" style="text-anchor: middle; visibility: inherit; font-family: &quot;Helvetica Neue&quot;, sans-serif; font-size: 12px; font-weight: 200;" fill="rgb(50, 49, 63)" stroke="none" stroke-width="1px">30</text><text x="121.44886363636363" y="0" dx="0em" dy="0.95em" style="text-anchor: middle; visibility: inherit; font-family: &quot;Helvetica Neue&quot;, sans-serif; font-size: 12px; font-weight: 200;" fill="rgb(50, 49, 63)" stroke="none" stroke-width="1px">40</text><text x="145.73863636363635" y="0" dx="0em" dy="0.95em" style="text-anchor: middle; visibility: inherit; font-family: &quot;Helvetica Neue&quot;, sans-serif; font-size: 12px; font-weight: 200;" fill="rgb(50, 49, 63)" stroke="none" stroke-width="1px">50</text><text x="170.0284090909091" y="0" dx="0em" dy="0.95em" style="text-anchor: middle; visibility: inherit; font-family: &quot;Helvetica Neue&quot;, sans-serif; font-size: 12px; font-weight: 200;" fill="rgb(50, 49, 63)" stroke="none" stroke-width="1px">60</text><text x="194.3181818181818" y="0" dx="0em" dy="0.95em" style="text-anchor: middle; visibility: inherit; font-family: &quot;Helvetica Neue&quot;, sans-serif; font-size: 12px; font-weight: 200;" fill="rgb(50, 49, 63)" stroke="none" stroke-width="1px">70</text><text x="218.60795454545456" y="0" dx="0em" dy="0.95em" style="text-anchor: middle; visibility: inherit; font-family: &quot;Helvetica Neue&quot;, sans-serif; font-size: 12px; font-weight: 200;" fill="rgb(50, 49, 63)" stroke="none" stroke-width="1px">80</text><text x="242.89772727272725" y="0" dx="0em" dy="0.95em" style="text-anchor: middle; visibility: inherit; font-family: &quot;Helvetica Neue&quot;, sans-serif; font-size: 12px; font-weight: 200;" fill="rgb(50, 49, 63)" stroke="none" stroke-width="1px">90</text><text x="267.1875" y="0" dx="0em" dy="0.95em" style="text-anchor: middle; visibility: hidden; font-family: &quot;Helvetica Neue&quot;, sans-serif; font-size: 12px; font-weight: 200;" fill="rgb(50, 49, 63)" stroke="none" stroke-width="1px">100</text></g><line x1="0" y1="0" x2="267.1875" y2="0" fill="rgb(0, 0, 0)" stroke="rgb(204, 204, 204)" stroke-width="1px"></line></g></g></g></g></svg>