<svg viewBox="0 0 330 200" xmlns="http://www.w3.org/2000/svg"><g><g><g><g><g><line x1="62.8125" y1="176" x2="57.8125" y2="176" style="visibility: inherit;" fill="rgb(0, 0, 0)" stroke="rgb(204, 204, 204)" stroke-width="1px"></line><line x1="62.8125" y1="163.42857142857167" x2="57.8125" y2="163.42857142857167" style="visibility: inherit;" fill="rgb(0, 0, 0)" stroke="rgb(204, 204, 204)" stroke-width="1px"></line><line x1="62.8125" y1="150.85714285714306" x2="57.8125" y2="150.85714285714306" style="visibility: inherit;" fill="rgb(0, 0, 0)" stroke="rgb(204, 204, 204)" stroke-width="1px"></line><line x1="62.8125" y1="138.28571428571445" x2="57.8125" y2="138.28571428571445" style="visibility: inherit;" fill="rgb(0, 0, 0)" stroke="rgb(204, 204, 204)" stroke-width="1px"></line><line x1="62.8125" y1="125.71428571428584" x2="57.8125" y2="125.71428571428584" style="visibility: inherit;" fill="rgb(0, 0, 0)" stroke="rgb(204, 204, 204)" stroke-width="1px"></line><line x1="62.8125" y1="113.14285714285722" x2="57.8125" y2="113.14285714285722" style="visibility: inherit;" fill="rgb(0, 0, 0)" stroke="rgb(204, 204, 204)" stroke-width="1px"></line><line x1="62.8125" y1="100.57142857142861" x2="57.8125" y2="100.57142857142861" style="visibility: inherit;" fill="rgb(0, 0, 0)" stroke="rgb(204, 204, 204)" stroke-width="1px"></line><line x1="62.8125" y1="88" x2="57.8125" y2="88" style="visibility: inherit;" fill="rgb(0, 0, 0)" stroke="rgb(204, 204, 204)" stroke-width="1px"></line><line x1="62.8125" y1="75.42857142857139" x2="57.8125" y2="75.42857142857139" style="visibility: inherit;" fill="rgb(0, 0, 0)" stroke="rgb(204, 204, 204)" stroke-width="1px"></line><line x1="62.8125" y1="62.857142857142776" x2="57.8125" y2="62.857142857142776" style="visibility: inherit;" fill="rgb(0, 0, 0)" stroke="rgb(204, 204, 204)" stroke-width="1px"></line><line x1="62.8125" y1="50.285714285714164" x2="57.8125" y2="50.285714285714164" style="visibility: inherit;" fill="rgb(0, 0, 0)" stroke="rgb(204, 204, 204)" stroke-width="1px"></line><line x1="62.8125" y1="37.71428571428555" x2="57.8125" y2="37.71428571428555" style="visibility: inherit;" fill="rgb(0, 0, 0)" stroke="rgb(204, 204, 204)" stroke-width="1px"></line><line x1="62.8125" y1="25.14285714285694" x2="57.8125" y2="25.14285714285694" style="visibility: inherit;" fill="rgb(0, 0, 0)" stroke="rgb(204, 204, 204)" stroke-width="1px"></line><line x1="62.8125" y1="12.571428571428328" x2="57.8125" y2="12.571428571428328" style="visibility: inherit;" fill="rgb(0, 0, 0)" stroke="rgb(204, 204, 204)" stroke-width="1px"></line></g><g transform="translate(52.8125, 0)"><text x="0" y="176" dx="0em" dy="0.3em" style="text-anchor: end; visibility: hidden; font-family: &quot;Helvetica Neue&quot;, sans-serif; font-size: 12px; font-weight: 200;" fill="rgb(50, 49, 63)" stroke="none" stroke-width="1px">0.935</text><text x="0" y="163.42857142857167" dx="0em" dy="0.3em" style="text-anchor: end; visibility: inherit; font-family: &quot;Helvetica Neue&quot;, sans-serif; font-size: 12px; font-weight: 200;" fill="rgb(50, 49, 63)" stroke="none" stroke-width="1px">0.94</text><text x="0" y="150.85714285714306" dx="0em" dy="0.3em" style="text-anchor: end; visibility: hidden; font-family: &quot;Helvetica Neue&quot;, sans-serif; font-size: 12px; font-weight: 200;" fill="rgb(50, 49, 63)" stroke="none" stroke-width="1px">0.945</text><text x="0" y="138.28571428571445" dx="0em" dy="0.3em" style="text-anchor: end; visibility: inherit; font-family: &quot;Helvetica Neue&quot;, sans-serif; font-size: 12px; font-weight: 200;" fill="rgb(50, 49, 63)" stroke="none" stroke-width="1px">0.95</text><text x="0" y="125.71428571428584" dx="0em" dy="0.3em" style="text-anchor: end; visibility: hidden; font-family: &quot;Helvetica Neue&quot;, sans-serif; font-size: 12px; font-weight: 200;" fill="rgb(50, 49, 63)" stroke="none" stroke-width="1px">0.955</text><text x="0" y="113.14285714285722" dx="0em" dy="0.3em" style="text-anchor: end; visibility: inherit; font-family: &quot;Helvetica Neue&quot;, sans-serif; font-size: 12px; font-weight: 200;" fill="rgb(50, 49, 63)" stroke="none" stroke-width="1px">0.96</text><text x="0" y="100.57142857142861" dx="0em" dy="0.3em" style="text-anchor: end; visibility: hidden; font-family: &quot;Helvetica Neue&quot;, sans-serif; font-size: 12px; font-weight: 200;" fill="rgb(50, 49, 63)" stroke="none" stroke-width="1px">0.965</text><text x="0" y="88" dx="0em" dy="0.3em" style="text-anchor: end; visibility: inherit; font-family: &quot;Helvetica Neue&quot;, sans-serif; font-size: 12px; font-weight: 200;" fill="rgb(50, 49, 63)" stroke="none" stroke-width="1px">0.97</text><text x="0" y="75.42857142857139" dx="0em" dy="0.3em" style="text-anchor: end; visibility: hidden; font-family: &quot;Helvetica Neue&quot;, sans-serif; font-size: 12px; font-weight: 200;" fill="rgb(50, 49, 63)" stroke="none" stroke-width="1px">0.975</text><text x="0" y="62.857142857142776" dx="0em" dy="0.3em" style="text-anchor: end; visibility: inherit; font-family: &quot;Helvetica Neue&quot;, sans-serif; font-size: 12px; font-weight: 200;" fill="rgb(50, 49, 63)" stroke="none" stroke-width="1px">0.98</text><text x="0" y="50.285714285714164" dx="0em" dy="0.3em" style="text-anchor: end; visibility: hidden; font-family: &quot;Helvetica Neue&quot;, sans-serif; font-size: 12px; font-weight: 200;" fill="rgb(50, 49, 63)" stroke="none" stroke-width="1px">0.985</text><text x="0" y="37.71428571428555" dx="0em" dy="0.3em" style="text-anchor: end; visibility: inherit; font-family: &quot;Helvetica Neue&quot;, sans-serif; font-size: 12px; font-weight: 200;" fill="rgb(50, 49, 63)" stroke="none" stroke-width="1px">0.99</text><text x="0" y="25.14285714285694" dx="0em" dy="0.3em" style="text-anchor: end; visibility: hidden; font-family: &quot;Helvetica Neue&quot;, sans-serif; font-size: 12px; font-weight: 200;" fill="rgb(50, 49, 63)" stroke="none" stroke-width="1px">0.995</text><text x="0" y="12.571428571428328" dx="0em" dy="0.3em" style="text-anchor: end; visibility: inherit; font-family: &quot;Helvetica Neue&quot;, sans-serif; font-size: 12px; font-weight: 200;" fill="rgb(50, 49, 63)" stroke="none" stroke-width="1px">1</text></g><line x1="62.8125" y1="0" x2="62.8125" y2="176" fill="rgb(0, 0, 0)" stroke="rgb(204, 204, 204)" stroke-width="1px"></line></g></g><g transform="translate(62, 0)" clip-path="url(#clip_0)"><clipPath id="clip_0"><rect width="267" height="176"></rect></clipPath><g><g><g><line x1="0" y1="0" x2="0" y2="176" fill="rgb(0, 0, 0)" stroke="rgb(60, 60, 60)" stroke-width="1px" opacity="0.25"></line><line x1="22.265625" y1="0" x2="22.265625" y2="176" fill="rgb(0, 0, 0)" stroke="rgb(60, 60, 60)" stroke-width="1px" opacity="0.25"></line><line x1="44.53125" y1="0" x2="44.53125" y2="176" fill="rgb(0, 0, 0)" stroke="rgb(60, 60, 60)" stroke-width="1px" opacity="0.25"></line><line x1="66.796875" y1="0" x2="66.796875" y2="176" fill="rgb(0, 0, 0)" stroke="rgb(60, 60, 60)" stroke-width="1px" opacity="0.25"></line><line x1="89.0625" y1="0" x2="89.0625" y2="176" fill="rgb(0, 0, 0)" stroke="rgb(60, 60, 60)" stroke-width="1px" opacity="0.25"></line><line x1="111.328125" y1="0" x2="111.328125" y2="176" fill="rgb(0, 0, 0)" stroke="rgb(60, 60, 60)" stroke-width="1px" opacity="0.25"></line><line x1="133.59375" y1="0" x2="133.59375" y2="176" fill="rgb(0, 0, 0)" stroke="rgb(60, 60, 60)" stroke-width="1px" opacity="0.25"></line><line x1="155.859375" y1="0" x2="155.859375" y2="176" fill="rgb(0, 0, 0)" stroke="rgb(60, 60, 60)" stroke-width="1px" opacity="0.25"></line><line x1="178.125" y1="0" x2="178.125" y2="176" fill="rgb(0, 0, 0)" stroke="rgb(60, 60, 60)" stroke-width="1px" opacity="0.25"></line><line x1="200.390625" y1="0" x2="200.390625" y2="176" fill="rgb(0, 0, 0)" stroke="rgb(60, 60, 60)" stroke-width="1px" opacity="0.25"></line><line x1="222.65625" y1="0" x2="222.65625" y2="176" fill="rgb(0, 0, 0)" stroke="rgb(60, 60, 60)" stroke-width="1px" opacity="0.25"></line><line x1="244.921875" y1="0" x2="244.921875" y2="176" fill="rgb(0, 0, 0)" stroke="rgb(60, 60, 60)" stroke-width="1px" opacity="0.25"></line><line x1="267.1875" y1="0" x2="267.1875" y2="176" fill="rgb(0, 0, 0)" stroke="rgb(60, 60, 60)" stroke-width="1px" opacity="0.25"></line></g><g><line x1="0" y1="176" x2="267.1875" y2="176" fill="rgb(0, 0, 0)" stroke="rgb(60, 60, 60)" stroke-width="1px" opacity="0.25"></line><line x1="0" y1="163.42857142857167" x2="267.1875" y2="163.42857142857167" fill="rgb(0, 0, 0)" stroke="rgb(60, 60, 60)" stroke-width="1px" opacity="0.25"></line><line x1="0" y1="150.85714285714306" x2="267.1875" y2="150.85714285714306" fill="rgb(0, 0, 0)" stroke="rgb(60, 60, 60)" stroke-width="1px" opacity="0.25"></line><line x1="0" y1="138.28571428571445" x2="267.1875" y2="138.28571428571445" fill="rgb(0, 0, 0)" stroke="rgb(60, 60, 60)" stroke-width="1px" opacity="0.25"></line><line x1="0" y1="125.71428571428584" x2="267.1875" y2="125.71428571428584" fill="rgb(0, 0, 0)" stroke="rgb(60, 60, 60)" stroke-width="1px" opacity="0.25"></line><line x1="0" y1="113.14285714285722" x2="267.1875" y2="113.14285714285722" fill="rgb(0, 0, 0)" stroke="rgb(60, 60, 60)" stroke-width="1px" opacity="0.25"></line><line x1="0" y1="100.57142857142861" x2="267.1875" y2="100.57142857142861" fill="rgb(0, 0, 0)" stroke="rgb(60, 60, 60)" stroke-width="1px" opacity="0.25"></line><line x1="0" y1="88" x2="267.1875" y2="88" fill="rgb(0, 0, 0)" stroke="rgb(60, 60, 60)" stroke-width="1px" opacity="0.25"></line><line x1="0" y1="75.42857142857139" x2="267.1875" y2="75.42857142857139" fill="rgb(0, 0, 0)" stroke="rgb(60, 60, 60)" stroke-width="1px" opacity="0.25"></line><line x1="0" y1="62.857142857142776" x2="267.1875" y2="62.857142857142776" fill="rgb(0, 0, 0)" stroke="rgb(60, 60, 60)" stroke-width="1px" opacity="0.25"></line><line x1="0" y1="50.285714285714164" x2="267.1875" y2="50.285714285714164" fill="rgb(0, 0, 0)" stroke="rgb(60, 60, 60)" stroke-width="1px" opacity="0.25"></line><line x1="0" y1="37.71428571428555" x2="267.1875" y2="37.71428571428555" fill="rgb(0, 0, 0)" stroke="rgb(60, 60, 60)" stroke-width="1px" opacity="0.25"></line><line x1="0" y1="25.14285714285694" x2="267.1875" y2="25.14285714285694" fill="rgb(0, 0, 0)" stroke="rgb(60, 60, 60)" stroke-width="1px" opacity="0.25"></line><line x1="0" y1="12.571428571428328" x2="267.1875" y2="12.571428571428328" fill="rgb(0, 0, 0)" stroke="rgb(60, 60, 60)" stroke-width="1px" opacity="0.25"></line></g></g></g><g><g><line x1="0" y1="2526.857142857148" x2="267.1875" y2="2526.857142857148" fill="rgb(0, 0, 0)" stroke="rgb(153, 153, 153)" stroke-width="1.5px"></line></g></g><g><g><line x1="22.265625" y1="0" x2="22.265625" y2="176" fill="rgb(0, 0, 0)" stroke="rgb(153, 153, 153)" stroke-width="1.5px"></line></g></g><g><g><g><g><g><path stroke="rgb(0, 153, 136)" stroke-width="2px" d="M22.265625,141.3724746704102L24.4921875,109.69085189274405L26.71875,89.51031268372829L28.9453125,78.175370550957L31.171875,75.50608857299426L33.3984375,69.38484736163464L35.625,64.03599683006696L37.8515625,64.91983663674503L40.078125,59.73064346572015L42.3046875,58.901324779697234L44.53125,58.16551839801811L46.7578125,58.32836927379135L48.984375,59.51768259963069L51.2109375,57.44603512434324L53.4375,60.679904051108565L55.6640625,57.903647952960725L57.890625,41.85257916182948L60.1171875,33.40238001266303L62.34375,27.547059628705824L64.5703125,24.03409575845714L66.796875,22.712119172364055L69.0234375,21.25349088241049L71.25,20.25807508910586L73.4765625,19.660830644250666L75.703125,18.90960355059451L77.9296875,19.877954813506676L80.15625,20.611345477100713L82.3828125,21.17162962565405L84.609375,23.472086332622638L86.8359375,23.673776136154117L89.0625,22.495956242885967L91.2890625,22.96784791833261L93.515625,22.19264958835413L95.7421875,22.000161585876356L97.96875,22.518050233656794L100.1953125,23.221604596390648L102.421875,21.046070044175053L104.6484375,21.03958290085305L106.875,20.12973815924377L109.1015625,19.97665249181182L111.328125,20.7908134910667L113.5546875,19.980476515009002L115.78125,20.007405607673718L118.0078125,21.202086535849105L120.234375,21.405823759909538L122.4609375,21.13518497335349L124.6875,20.972801701430654L126.9140625,20.089669441597295L129.140625,21.2514448360117L131.3671875,21.82825991570192L133.59375,21.388646666843727L135.8203125,20.33917642086206L138.046875,20.61544672688956L140.2734375,21.053839874513187L142.5,20.531113521177843L144.7265625,20.610358830131133L146.953125,19.872203718837454L149.1796875,20.335263105674642L151.40625,20.49284858082919L153.6328125,21.49335231953583L155.859375,21.187702109146016L158.0859375,21.790014279578145L160.3125,21.365699285171303L162.5390625,21.896812585192947L164.765625,21.036897147586217L166.9921875,20.520947885021826L169.21875,21.389961745103676L171.4453125,20.732786643532677L173.671875,20.85161286049194L175.8984375,20.530087414955517L178.125,19.824040869731874L180.3515625,19.520663099545544L182.578125,19.611207456197718L184.8046875,19.272712894477706L187.03125,20.36844973201292L189.2578125,19.727058259966753L191.484375,20.761307108254016L193.7109375,19.96277268571143L195.9375,19.876473207897305L198.1640625,21.12352709577624L200.390625,20.572925853936198L202.6171875,20.63544622978634L204.84375,21.065839576250454L207.0703125,21.32407558412916L209.296875,20.69325494694783L211.5234375,20.827893842540817L213.75,20.78842702294918L215.9765625,19.97904463452852L218.203125,20.79224877604335L220.4296875,20.49446896428651L222.65625,20.31580107723275L224.8828125,20.08829024280999L227.109375,19.951783742156323L229.3359375,20.26276096271826L231.5625,19.66364499838957L233.7890625,19.304175419792813L236.015625,19.601624950536518L238.2421875,20.445546808700584L240.46875,20.95189992359923L242.6953125,20.077128374918374L244.921875,19.945086621421297L247.1484375,20.771873968179136" style="fill: none;" fill="none"></path></g><g><path stroke="rgb(238, 51, 119)" stroke-width="2px" d="M24.4921875,183.00881052017226L26.71875,130.74985346224145L28.9453125,99.50691934192872L31.171875,81.7859872508077L33.3984375,67.75883874890225L35.625,55.66890385591498L37.8515625,47.085893599342086L40.078125,40.6478980191317L42.3046875,35.09803259079186L44.53125,31.78966860060666L46.7578125,28.29669087220728L48.984375,26.42378266093155L51.2109375,24.770972999713763L53.4375,22.797511664427702L55.6640625,21.435401610787892L57.890625,22.130996114960993L60.1171875,21.705481638803604L62.34375,21.093025091426313L64.5703125,19.693280226668378L66.796875,19.171422604260897L69.0234375,18.629621246425558L71.25,17.768810130503738L73.4765625,17.252327811745744L75.703125,17.037213684986057L77.9296875,16.45627758971949L80.15625,16.37555218549562L82.3828125,15.79138603243311L84.609375,15.887358902659116L86.8359375,15.453871065028608L89.0625,15.327696113840432L91.2890625,15.118073470887168L93.515625,14.590486914481573L95.7421875,14.27393499676262L97.96875,14.396498407739642L100.1953125,14.246800366690735L102.421875,14.207155711537723L104.6484375,13.999277077447573L106.875,13.963868309377688L109.1015625,13.987222309248807L111.328125,14.09600813800833L113.5546875,14.066506206381405L115.78125,14.093464253272998L118.0078125,13.841803736769577L120.234375,13.690807426895475L122.4609375,13.644868846828984L124.6875,13.61730569879083L126.9140625,13.64536707057212L129.140625,13.617604633037416L131.3671875,13.690205636965402L133.59375,13.778425445168239L135.8203125,13.786698124243998L138.046875,13.880920198137204L140.2734375,13.75893650957687L142.5,13.641087090595363L144.7265625,13.525718233360635L146.953125,13.590414591313674L149.1796875,13.724005834866261L151.40625,13.798705563907504L153.6328125,13.75420698964183L155.859375,13.68290858447989L158.0859375,13.595470335537158L160.3125,13.548462403261368L162.5390625,13.514802626805903L164.765625,13.494606760932612L166.9921875,13.482489241408416L169.21875,13.609136401988081L171.4453125,13.601321248977342L173.671875,13.63577640068354L175.8984375,13.567191025258978L178.125,13.615298266452555L180.3515625,13.599563350566484L182.578125,13.50080398934358L184.8046875,13.396889166764822L187.03125,13.379199479062692L189.2578125,13.413244872286754L191.484375,13.389012902376066L193.7109375,13.374473720429563L195.9375,13.455068622952524L198.1640625,13.503425564466284L200.390625,13.487780523529011L202.6171875,13.478393498966767L204.84375,13.517420490074727L207.0703125,13.58543594534217L209.296875,13.581645957899951L211.5234375,13.534712759589326L213.75,13.506552840602694L215.9765625,13.629029578594128L218.203125,13.607802137851252L220.4296875,13.595065673405287L222.65625,13.498105383047204L224.8828125,13.39527000298682L227.109375,13.46754639248698L229.3359375,13.42159381449622L231.5625,13.349363061855883L233.7890625,13.395343021962873L236.015625,13.378271792181408L238.2421875,13.457347466003739L240.46875,13.54939213089969L242.6953125,13.42604205169809L244.921875,13.486009621713492L247.1484375,13.432671752031695" style="fill: none;" fill="none"></path></g></g></g></g><g opacity="0.2"><g><g><g><path stroke="rgb(0, 153, 136)" stroke-width="2px" d="M22.265625,141.3724746704102L24.4921875,90.68187822614391L26.71875,70.13699504307327L28.9453125,64.84547860281795L31.171875,72.02107402256546L33.3984375,60.91696711948927L35.625,56.38705498831598L37.8515625,66.20848355974458L40.078125,52.07759148733942L42.3046875,57.66988318307045L44.53125,57.06848253522587L46.7578125,58.57175936017704L48.984375,61.29776927403029L51.2109375,54.34262248447948L53.4375,65.52690614972784L55.6640625,53.74122183663491L57.890625,17.78276824951149L60.1171875,20.729226793561423L62.34375,18.764971051897106L64.5703125,18.764971051897106L66.796875,20.729226793561423L69.0234375,19.065596444265964L71.25,18.764971051897106L73.4765625,18.764971051897106L75.703125,17.78276824951149L77.9296875,21.330477578299167L80.15625,21.71142959594704L82.3828125,22.012054988315896L84.609375,26.922769274030202L86.8359375,23.97631072998024L89.0625,20.729226793561423L91.2890625,23.675685337611384L93.515625,21.02985218593031L95.7421875,21.71142959594704L97.96875,23.294883183070368L100.1953125,24.276936122349127L102.421875,17.78276824951149L104.6484375,21.02985218593031L106.875,18.764971051897106L109.1015625,19.747023991175837L111.328125,22.012054988315896L113.5546875,18.764971051897106L115.78125,20.04779924665158L118.0078125,22.994107927594655L120.234375,21.71142959594704L122.4609375,20.729226793561423L124.6875,20.729226793561423L126.9140625,18.764971051897106L129.140625,22.994107927594655L131.3671875,22.693482535225797L133.59375,20.729226793561423L135.8203125,18.764971051897106L138.046875,21.02985218593031L140.2734375,21.71142959594704L142.5,19.747023991175837L144.7265625,20.729226793561423L146.953125,18.764971051897106L149.1796875,21.02985218593031L151.40625,20.729226793561423L153.6328125,22.994107927594655L155.859375,20.729226793561423L158.0859375,22.693482535225797L160.3125,20.729226793561423L162.5390625,22.693482535225797L164.765625,19.747023991175837L166.9921875,19.747023991175837L169.21875,22.693482535225797L171.4453125,19.747023991175837L173.671875,21.02985218593031L175.8984375,20.04779924665158L178.125,18.764971051897106L180.3515625,19.065596444265964L182.578125,19.747023991175837L184.8046875,18.764971051897106L187.03125,22.012054988315896L189.2578125,18.764971051897106L191.484375,22.31268038068478L193.7109375,18.764971051897106L195.9375,19.747023991175837L198.1640625,22.994107927594655L200.390625,19.747023991175837L202.6171875,20.729226793561423L204.84375,21.71142959594704L207.0703125,21.71142959594704L209.296875,19.747023991175837L211.5234375,21.02985218593031L213.75,20.729226793561423L215.9765625,18.764971051897106L218.203125,22.012054988315896L220.4296875,20.04779924665158L222.65625,20.04779924665158L224.8828125,19.747023991175837L227.109375,19.747023991175837L229.3359375,20.729226793561423L231.5625,18.764971051897106L233.7890625,18.764971051897106L236.015625,20.04779924665158L238.2421875,21.71142959594704L240.46875,21.71142959594704L242.6953125,18.764971051897106L244.921875,19.747023991175837L247.1484375,22.012054988315896" style="fill: none;" fill="none"></path></g><g><path stroke="rgb(238, 51, 119)" stroke-width="2px" d="M22.265625,296.6645224434993L24.4921875,114.81538336617605L26.71875,80.58125468662797L28.9453125,62.765228816440995L31.171875,58.649538312639365L33.3984375,48.35424259730732L35.625,38.38010351998446L37.8515625,34.57178224836056L40.078125,31.15310505458268L42.3046875,26.857129233223844L44.53125,26.857129233223844L46.7578125,23.076232910156023L48.984375,23.620535714285495L51.2109375,22.29499653407484L53.4375,19.839639391217673L55.6640625,19.39319719587033L57.890625,23.174093518938122L60.1171875,21.067317962646257L62.34375,20.17443357195151L64.5703125,17.593790871756198L66.796875,18.38866479056199L69.0234375,17.816937037876443L71.25,16.477610451834323L73.4765625,16.477610451834323L75.703125,16.714544023786033L77.9296875,15.584875924246433L80.15625,16.25446428571405L82.3828125,14.915137699671902L84.609375,16.031318119593806L86.8359375,14.803639548165222L89.0625,15.138433728899031L91.2890625,14.803639548165222L93.515625,13.799107142856883L95.7421875,13.799107142856883L97.96875,14.580343518938093L100.1953125,14.022253308977156L102.421875,14.147688729422214L104.6484375,13.687459128243347L106.875,13.910755157470476L109.1015625,14.022253308977156L111.328125,14.259186880928894L113.5546875,14.022253308977156L115.78125,14.13390132359072L118.0078125,13.464312962123074L120.234375,13.464312962123074L122.4609375,13.575960976736667L124.6875,13.575960976736667L126.9140625,13.687459128243347L129.140625,13.575960976736667L131.3671875,13.799107142856883L133.59375,13.910755157470476L135.8203125,13.799107142856883L138.046875,14.022253308977156L140.2734375,13.575960976736667L142.5,13.464312962123074L144.7265625,13.352664947509538L146.953125,13.687459128243347L149.1796875,13.924392700195085L151.40625,13.910755157470476L153.6328125,13.687459128243347L155.859375,13.575960976736667L158.0859375,13.464312962123074L160.3125,13.477950504847684L162.5390625,13.464312962123074L164.765625,13.464312962123074L166.9921875,13.464312962123074L169.21875,13.799107142856883L171.4453125,13.589598519461276L173.671875,13.687459128243347L175.8984375,13.464312962123074L178.125,13.687459128243347L180.3515625,13.575960976736667L182.578125,13.352664947509538L184.8046875,13.241016932895946L187.03125,13.352664947509538L189.2578125,13.464312962123074L191.484375,13.352664947509538L193.7109375,13.352664947509538L195.9375,13.575960976736667L198.1640625,13.575960976736667L200.390625,13.464312962123074L202.6171875,13.464312962123074L204.84375,13.575960976736667L207.0703125,13.687459128243347L209.296875,13.575960976736667L211.5234375,13.464312962123074L213.75,13.464312962123074L215.9765625,13.812744685581492L218.203125,13.575960976736667L220.4296875,13.575960976736667L222.65625,13.352664947509538L224.8828125,13.241016932895946L227.109375,13.575960976736667L229.3359375,13.352664947509538L231.5625,13.241016932895946L233.7890625,13.464312962123074L236.015625,13.352664947509538L238.2421875,13.575960976736667L240.46875,13.687459128243347L242.6953125,13.241016932895946L244.921875,13.575960976736667L247.1484375,13.352664947509538" style="fill: none;" fill="none"></path></g></g></g></g></g></g><g transform="translate(62, 176)" clip-path="url(#clip_1)"><clipPath id="clip_1"><rect width="267" height="24"></rect></clipPath><g><g><line x1="0" y1="0" x2="0" y2="5" style="visibility: inherit;" fill="rgb(0, 0, 0)" stroke="rgb(204, 204, 204)" stroke-width="1px"></line><line x1="22.265625" y1="0" x2="22.265625" y2="5" style="visibility: inherit;" fill="rgb(0, 0, 0)" stroke="rgb(204, 204, 204)" stroke-width="1px"></line><line x1="44.53125" y1="0" x2="44.53125" y2="5" style="visibility: inherit;" fill="rgb(0, 0, 0)" stroke="rgb(204, 204, 204)" stroke-width="1px"></line><line x1="66.796875" y1="0" x2="66.796875" y2="5" style="visibility: inherit;" fill="rgb(0, 0, 0)" stroke="rgb(204, 204, 204)" stroke-width="1px"></line><line x1="89.0625" y1="0" x2="89.0625" y2="5" style="visibility: inherit;" fill="rgb(0, 0, 0)" stroke="rgb(204, 204, 204)" stroke-width="1px"></line><line x1="111.328125" y1="0" x2="111.328125" y2="5" style="visibility: inherit;" fill="rgb(0, 0, 0)" stroke="rgb(204, 204, 204)" stroke-width="1px"></line><line x1="133.59375" y1="0" x2="133.59375" y2="5" style="visibility: inherit;" fill="rgb(0, 0, 0)" stroke="rgb(204, 204, 204)" stroke-width="1px"></line><line x1="155.859375" y1="0" x2="155.859375" y2="5" style="visibility: inherit;" fill="rgb(0, 0, 0)" stroke="rgb(204, 204, 204)" stroke-width="1px"></line><line x1="178.125" y1="0" x2="178.125" y2="5" style="visibility: inherit;" fill="rgb(0, 0, 0)" stroke="rgb(204, 204, 204)" stroke-width="1px"></line><line x1="200.390625" y1="0" x2="200.390625" y2="5" style="visibility: inherit;" fill="rgb(0, 0, 0)" stroke="rgb(204, 204, 204)" stroke-width="1px"></line><line x1="222.65625" y1="0" x2="222.65625" y2="5" style="visibility: inherit;" fill="rgb(0, 0, 0)" stroke="rgb(204, 204, 204)" stroke-width="1px"></line><line x1="244.921875" y1="0" x2="244.921875" y2="5" style="visibility: inherit;" fill="rgb(0, 0, 0)" stroke="rgb(204, 204, 204)" stroke-width="1px"></line><line x1="267.1875" y1="0" x2="267.1875" y2="5" style="visibility: inherit;" fill="rgb(0, 0, 0)" stroke="rgb(204, 204, 204)" stroke-width="1px"></line></g><g transform="translate(0, 8)"><text x="0" y="0" dx="0em" dy="0.95em" style="text-anchor: middle; visibility: hidden; font-family: &quot;Helvetica Neue&quot;, sans-serif; font-size: 12px; font-weight: 200;" fill="rgb(50, 49, 63)" stroke="none" stroke-width="1px">-10</text><text x="22.265625" y="0" dx="0em" dy="0.95em" style="text-anchor: middle; visibility: inherit; font-family: &quot;Helvetica Neue&quot;, sans-serif; font-size: 12px; font-weight: 200;" fill="rgb(50, 49, 63)" stroke="none" stroke-width="1px">0</text><text x="44.53125" y="0" dx="0em" dy="0.95em" style="text-anchor: middle; visibility: inherit; font-family: &quot;Helvetica Neue&quot;, sans-serif; font-size: 12px; font-weight: 200;" fill="rgb(50, 49, 63)" stroke="none" stroke-width="1px">10</text><text x="66.796875" y="0" dx="0em" dy="0.95em" style="text-anchor: middle; visibility: inherit; font-family: &quot;Helvetica Neue&quot;, sans-serif; font-size: 12px; font-weight: 200;" fill="rgb(50, 49, 63)" stroke="none" stroke-width="1px">20</text><text x="89.0625" y="0" dx="0em" dy="0.95em" style="text-anchor: middle; visibility: inherit; font-family: &quot;Helvetica Neue&quot;, sans-serif; font-size: 12px; font-weight: 200;" fill="rgb(50, 49, 63)" stroke="none" stroke-width="1px">30</text><text x="111.328125" y="0" dx="0em" dy="0.95em" style="text-anchor: middle; visibility: inherit; font-family: &quot;Helvetica Neue&quot;, sans-serif; font-size: 12px; font-weight: 200;" fill="rgb(50, 49, 63)" stroke="none" stroke-width="1px">40</text><text x="133.59375" y="0" dx="0em" dy="0.95em" style="text-anchor: middle; visibility: inherit; font-family: &quot;Helvetica Neue&quot;, sans-serif; font-size: 12px; font-weight: 200;" fill="rgb(50, 49, 63)" stroke="none" stroke-width="1px">50</text><text x="155.859375" y="0" dx="0em" dy="0.95em" style="text-anchor: middle; visibility: inherit; font-family: &quot;Helvetica Neue&quot;, sans-serif; font-size: 12px; font-weight: 200;" fill="rgb(50, 49, 63)" stroke="none" stroke-width="1px">60</text><text x="178.125" y="0" dx="0em" dy="0.95em" style="text-anchor: middle; visibility: inherit; font-family: &quot;Helvetica Neue&quot;, sans-serif; font-size: 12px; font-weight: 200;" fill="rgb(50, 49, 63)" stroke="none" stroke-width="1px">70</text><text x="200.390625" y="0" dx="0em" dy="0.95em" style="text-anchor: middle; visibility: inherit; font-family: &quot;Helvetica Neue&quot;, sans-serif; font-size: 12px; font-weight: 200;" fill="rgb(50, 49, 63)" stroke="none" stroke-width="1px">80</text><text x="222.65625" y="0" dx="0em" dy="0.95em" style="text-anchor: middle; visibility: inherit; font-family: &quot;Helvetica Neue&quot;, sans-serif; font-size: 12px; font-weight: 200;" fill="rgb(50, 49, 63)" stroke="none" stroke-width="1px">90</text><text x="244.921875" y="0" dx="0em" dy="0.95em" style="text-anchor: middle; visibility: inherit; font-family: &quot;Helvetica Neue&quot;, sans-serif; font-size: 12px; font-weight: 200;" fill="rgb(50, 49, 63)" stroke="none" stroke-width="1px">100</text><text x="267.1875" y="0" dx="0em" dy="0.95em" style="text-anchor: middle; visibility: hidden; font-family: &quot;Helvetica Neue&quot;, sans-serif; font-size: 12px; font-weight: 200;" fill="rgb(50, 49, 63)" stroke="none" stroke-width="1px">110</text></g><line x1="0" y1="0" x2="267.1875" y2="0" fill="rgb(0, 0, 0)" stroke="rgb(204, 204, 204)" stroke-width="1px"></line></g></g></g></g></svg>